<svg width="16" height="16" viewBox="0 0 16 16" fill="none" xmlns="http://www.w3.org/2000/svg">
<path d="M15.6894 12.7226L13.9156 11.54L12.3388 10.4889C12.0345 10.2865 11.6255 10.3528 11.4008 10.6412L10.4251 11.8956C10.2155 12.1677 9.83852 12.246 9.53796 12.0795C8.8759 11.7113 8.09301 11.3645 6.36559 9.63489C4.63817 7.90525 4.28921 7.12457 3.92093 6.46252C3.75452 6.16196 3.83274 5.78493 4.10493 5.57537L5.35926 4.59967C5.6476 4.37504 5.714 3.96608 5.51154 3.66174L4.4928 2.13348L3.2779 0.311122C3.07113 0.000938136 2.65719 -0.0921858 2.33751 0.0995307L0.9364 0.940084C0.557748 1.16317 0.279407 1.52342 0.159034 1.94613C-0.224118 3.34309 -0.301367 6.42471 4.63733 11.3634C9.57602 16.3021 12.6574 16.2246 14.0543 15.8414C14.477 15.7211 14.8373 15.4427 15.0604 15.064L15.9009 13.663C16.0927 13.3433 15.9995 12.9294 15.6894 12.7226Z" fill="white"/>
<path d="M9.10348 2.48286C11.6923 2.48574 13.7902 4.58365 13.7931 7.17246C13.7931 7.32481 13.9166 7.44834 14.0689 7.44834C14.2213 7.44834 14.3448 7.32484 14.3448 7.17246C14.3416 4.27909 11.9969 1.93434 9.10351 1.93115C8.95117 1.93115 8.82764 2.05465 8.82764 2.20702C8.82761 2.35933 8.9511 2.48286 9.10348 2.48286Z" fill="white"/>
<path d="M9.10351 4.13768C10.7786 4.13965 12.136 5.49707 12.1379 7.17211C12.1379 7.32445 12.2614 7.44798 12.4138 7.44798C12.5662 7.44798 12.6897 7.32449 12.6897 7.17211C12.6874 5.19248 11.0832 3.58822 9.10351 3.58594C8.95117 3.58594 8.82764 3.70944 8.82764 3.86181C8.82764 4.01418 8.95114 4.13768 9.10351 4.13768Z" fill="white"/>
<path d="M9.10348 5.79292C9.86487 5.79383 10.4819 6.41082 10.4828 7.17222C10.4828 7.32456 10.6063 7.44809 10.7586 7.44809C10.911 7.44809 11.0345 7.32459 11.0345 7.17222C11.0333 6.10626 10.1695 5.24243 9.10351 5.24121C8.95117 5.24121 8.82764 5.36471 8.82764 5.51708C8.82761 5.66942 8.9511 5.79292 9.10348 5.79292Z" fill="white"/>
</svg>
