<svg width="120" height="120" viewBox="0 0 120 120" fill="none" xmlns="http://www.w3.org/2000/svg">
<path fill-rule="evenodd" clip-rule="evenodd" d="M114 8H116V110.1C118.282 110.563 120 112.581 120 115C120 117.761 117.761 120 115 120C112.581 120 110.563 118.282 110.1 116H8V114H110.1C110.498 112.041 112.041 110.498 114 110.1V8ZM117.778 115C117.778 116.534 116.534 117.778 115 117.778C113.466 117.778 112.222 116.534 112.222 115C112.222 113.466 113.466 112.222 115 112.222C116.534 112.222 117.778 113.466 117.778 115Z" fill="#C2C2C2"/>
<path fill-rule="evenodd" clip-rule="evenodd" d="M6 9.89998C7.95914 9.5023 9.50229 7.95913 9.89998 6H110.1C110.563 8.28224 112.581 10 115 10C117.761 10 120 7.76142 120 5C120 2.23858 117.761 0 115 0C112.581 0 110.563 1.71776 110.1 4H9.89998C9.43671 1.71776 7.41896 0 5 0C2.23857 0 0 2.23858 0 5C0 7.41895 1.71776 9.43671 4 9.89998V110.1C1.71776 110.563 0 112.581 0 115C0 117.761 2.23857 120 5 120C7.76143 120 10 117.761 10 115C10 112.581 8.28224 110.563 6 110.1V9.89998ZM5 7.77778C6.53412 7.77778 7.77777 6.53413 7.77777 5C7.77777 3.46587 6.53412 2.22222 5 2.22222C3.46588 2.22222 2.22223 3.46587 2.22223 5C2.22223 6.53413 3.46588 7.77778 5 7.77778ZM5 117.778C6.53412 117.778 7.77777 116.534 7.77777 115C7.77777 113.466 6.53412 112.222 5 112.222C3.46588 112.222 2.22223 113.466 2.22223 115C2.22223 116.534 3.46588 117.778 5 117.778ZM117.778 5C117.778 6.53413 116.534 7.77778 115 7.77778C113.466 7.77778 112.222 6.53413 112.222 5C112.222 3.46587 113.466 2.22222 115 2.22222C116.534 2.22222 117.778 3.46587 117.778 5Z" fill="#202020"/>
<path fill-rule="evenodd" clip-rule="evenodd" d="M85.1808 35.6909L68 59.9999L88.7266 79.9999C89.1144 79.4439 89.4865 78.8761 89.8422 78.2972C93.1135 72.9732 95 66.7069 95 59.9999C95 51.2932 91.8208 43.329 86.5599 37.2049C86.1149 36.6868 85.655 36.182 85.1808 35.6909ZM85.3676 38.8919L70.6239 59.7526L88.3664 76.8731C91.3095 71.9368 93 66.1681 93 59.9999C93 51.9707 90.1346 44.6142 85.3676 38.8919Z" fill="#202020"/>
<path fill-rule="evenodd" clip-rule="evenodd" d="M65 56L82 33C81.715 32.7859 81.4266 32.5726 81.1349 32.3606C80.8867 32.1802 80.6362 32.0007 80.3833 31.8225C76.4176 29.0272 71.882 26.5366 67 25.5438C66.3395 25.4095 65.6726 25.3026 65 25.2261V56ZM67 27.5885V49.9293L79.1942 33.4313C75.4617 30.8052 71.34 28.5531 67 27.5885Z" fill="#202020"/>
<path fill-rule="evenodd" clip-rule="evenodd" d="M58 60.8404V27.0596C40.7059 28.0935 27 42.4461 27 60C27 78.2254 41.7746 93 60 93C68.5147 93 76.2736 89.7775 82.1286 84.4815L58 60.8404ZM85 84.4949C84.5332 84.9713 84.0528 85.4344 83.5596 85.8836C77.341 91.5471 69.0738 95 60 95C40.67 95 25 79.33 25 60C25 41.3413 39.6006 26.0927 58 25.0562C58.6619 25.0189 59.3288 25 60 25V60L85 84.4949Z" fill="#C2C2C2"/>
</svg>
