<svg width="90" height="90" viewBox="0 0 90 90" fill="none" xmlns="http://www.w3.org/2000/svg">
<path fill-rule="evenodd" clip-rule="evenodd" d="M85.5 6H87V82.575C88.7117 82.9225 90 84.4358 90 86.25C90 88.3211 88.3211 90 86.25 90C84.4358 90 82.9225 88.7117 82.575 87H6V85.5H82.575C82.8733 84.0307 84.0307 82.8733 85.5 82.575V6ZM88.3333 86.25C88.3333 87.4006 87.4006 88.3333 86.25 88.3333C85.0994 88.3333 84.1667 87.4006 84.1667 86.25C84.1667 85.0994 85.0994 84.1667 86.25 84.1667C87.4006 84.1667 88.3333 85.0994 88.3333 86.25Z" fill="#F1F1F1"/>
<path fill-rule="evenodd" clip-rule="evenodd" d="M4.5 7.42498C5.96935 7.12672 7.12672 5.96935 7.42498 4.5H82.575C82.9225 6.21168 84.4358 7.5 86.25 7.5C88.3211 7.5 90 5.82107 90 3.75C90 1.67893 88.3211 0 86.25 0C84.4358 0 82.9225 1.28832 82.575 3H7.42498C7.07753 1.28832 5.56422 0 3.75 0C1.67893 0 0 1.67893 0 3.75C0 5.56421 1.28832 7.07753 3 7.42498V82.575C1.28832 82.9225 0 84.4358 0 86.25C0 88.3211 1.67893 90 3.75 90C5.82107 90 7.5 88.3211 7.5 86.25C7.5 84.4358 6.21168 82.9225 4.5 82.575V7.42498ZM3.75 5.83333C4.90059 5.83333 5.83333 4.90059 5.83333 3.75C5.83333 2.59941 4.90059 1.66667 3.75 1.66667C2.59941 1.66667 1.66667 2.59941 1.66667 3.75C1.66667 4.90059 2.59941 5.83333 3.75 5.83333ZM3.75 88.3333C4.90059 88.3333 5.83333 87.4006 5.83333 86.25C5.83333 85.0994 4.90059 84.1667 3.75 84.1667C2.59941 84.1667 1.66667 85.0994 1.66667 86.25C1.66667 87.4006 2.59941 88.3333 3.75 88.3333ZM88.3333 3.75C88.3333 4.90059 87.4006 5.83333 86.25 5.83333C85.0994 5.83333 84.1667 4.90059 84.1667 3.75C84.1667 2.59941 85.0994 1.66667 86.25 1.66667C87.4006 1.66667 88.3333 2.59941 88.3333 3.75Z" fill="#F1F1F1"/>
<path fill-rule="evenodd" clip-rule="evenodd" d="M63.8856 26.7682L51 44.9999L66.5449 59.9999C66.8358 59.5829 67.1149 59.1571 67.3817 58.7229C69.8351 54.7299 71.25 50.0301 71.25 44.9999C71.25 38.4699 68.8656 32.4967 64.9199 27.9037C64.5862 27.5151 64.2412 27.1365 63.8856 26.7682ZM64.0257 29.169L52.9679 44.8144L66.2748 57.6548C68.4821 53.9526 69.75 49.6261 69.75 44.9999C69.75 38.9781 67.601 33.4606 64.0257 29.169Z" fill="#F1F1F1"/>
<path fill-rule="evenodd" clip-rule="evenodd" d="M48.75 42L61.5 24.75C61.2862 24.5894 61.0699 24.4294 60.8512 24.2704C60.665 24.1351 60.4771 24.0005 60.2875 23.8669C57.3132 21.7704 53.9115 19.9024 50.25 19.1579C49.7546 19.0571 49.2545 18.977 48.75 18.9196V42ZM50.25 20.6914V37.447L59.3956 25.0735C56.5963 23.1039 53.505 21.4148 50.25 20.6914Z" fill="#F1F1F1"/>
<path fill-rule="evenodd" clip-rule="evenodd" d="M43.5 45.6303V20.2947C30.5294 21.0701 20.25 31.8346 20.25 45C20.25 58.669 31.331 69.75 45 69.75C51.386 69.75 57.2052 67.3331 61.5964 63.3611L43.5 45.6303ZM63.75 63.3712C63.3999 63.7285 63.0396 64.0758 62.6697 64.4127C58.0058 68.6603 51.8053 71.25 45 71.25C30.5025 71.25 18.75 59.4975 18.75 45C18.75 31.006 29.7005 19.5695 43.5 18.7921C43.9964 18.7642 44.4966 18.75 45 18.75V45L63.75 63.3712Z" fill="#F1F1F1"/>
</svg>
