<svg width="120" height="120" viewBox="0 0 120 120" fill="none" xmlns="http://www.w3.org/2000/svg">
<path fill-rule="evenodd" clip-rule="evenodd" d="M114 8H116V110.1C118.282 110.563 120 112.581 120 115C120 117.761 117.761 120 115 120C112.581 120 110.563 118.282 110.1 116H8V114H110.1C110.498 112.041 112.041 110.498 114 110.1V8ZM117.778 115C117.778 116.534 116.534 117.778 115 117.778C113.466 117.778 112.222 116.534 112.222 115C112.222 113.466 113.466 112.222 115 112.222C116.534 112.222 117.778 113.466 117.778 115Z" fill="#C2C2C2"/>
<path fill-rule="evenodd" clip-rule="evenodd" d="M6 9.89998C7.95914 9.5023 9.50229 7.95913 9.89998 6H110.1C110.563 8.28224 112.581 10 115 10C117.761 10 120 7.76142 120 5C120 2.23858 117.761 0 115 0C112.581 0 110.563 1.71776 110.1 4H9.89998C9.43671 1.71776 7.41896 0 5 0C2.23857 0 0 2.23858 0 5C0 7.41895 1.71776 9.43671 4 9.89998V110.1C1.71776 110.563 0 112.581 0 115C0 117.761 2.23857 120 5 120C7.76143 120 10 117.761 10 115C10 112.581 8.28224 110.563 6 110.1V9.89998ZM5 7.77778C6.53412 7.77778 7.77777 6.53413 7.77777 5C7.77777 3.46587 6.53412 2.22222 5 2.22222C3.46588 2.22222 2.22223 3.46587 2.22223 5C2.22223 6.53413 3.46588 7.77778 5 7.77778ZM5 117.778C6.53412 117.778 7.77777 116.534 7.77777 115C7.77777 113.466 6.53412 112.222 5 112.222C3.46588 112.222 2.22223 113.466 2.22223 115C2.22223 116.534 3.46588 117.778 5 117.778ZM117.778 5C117.778 6.53413 116.534 7.77778 115 7.77778C113.466 7.77778 112.222 6.53413 112.222 5C112.222 3.46587 113.466 2.22222 115 2.22222C116.534 2.22222 117.778 3.46587 117.778 5Z" fill="#202020"/>
<path d="M32 57V78H78" stroke="#C2C2C2" stroke-width="2" stroke-linecap="round" stroke-linejoin="round"/>
<path d="M78 78V70" stroke="#C2C2C2" stroke-width="2" stroke-linecap="round" stroke-linejoin="round"/>
<path d="M24 57.9439L44.2817 41L96 78" stroke="#202020" stroke-width="2" stroke-linecap="round" stroke-linejoin="round"/>
<path d="M78 65V54" stroke="#202020" stroke-width="2" stroke-linecap="round" stroke-linejoin="round"/>
</svg>
