<svg width="120" height="120" viewBox="0 0 120 120" fill="none" xmlns="http://www.w3.org/2000/svg">
<path d="M30.5628 100.847L31.6382 101.511L35.6785 94.9649L34.603 94.3012L30.5628 100.847Z" fill="white"/>
<path d="M25.0861 96.9348L24.0856 96.1627L28.785 90.0725L29.568 90.6768L29.2502 97.0248L32.4391 92.8922L33.4396 93.6642L28.7402 99.7544L27.9572 99.1502L28.275 92.8021L25.0861 96.9348Z" fill="white"/>
<path d="M18.8411 90.9556L19.7035 90.1085L21.2206 91.6529L25.846 87.1094L26.7316 88.011L22.1062 92.5545L23.6309 94.1068L22.7686 94.9539L18.8411 90.9556Z" fill="white"/>
<path d="M22.1462 84.7427L20.0772 82.0364L21.0375 81.3022L23.8741 85.0126L17.7629 89.6846L14.9597 86.0179L15.9201 85.2837L17.9557 87.9464L19.5446 86.7317L17.6758 84.2872L18.6274 83.5597L20.4962 86.0042L22.1462 84.7427Z" fill="white"/>
<path d="M18.2981 76.7237L16.678 79.5296L17.4223 80.8257L19.8524 79.4301L20.4817 80.526L13.811 84.3569L12.2787 81.6887C11.9339 81.0883 11.8535 80.4628 12.0375 79.8123C12.2064 79.1576 12.5911 78.6579 13.1915 78.3131C13.6203 78.0669 14.0726 77.9718 14.562 78.0076C15.0569 78.0529 15.5003 78.2291 15.8867 78.5268L17.6085 75.523L18.2981 76.7237ZM14.2109 82.67L16.4408 81.3894L15.5378 79.817C15.3681 79.5216 15.121 79.334 14.7869 79.2597C14.4528 79.1855 14.1353 79.2284 13.8208 79.409C13.5063 79.5896 13.3092 79.8422 13.205 80.1682C13.1007 80.4942 13.1382 80.8022 13.3079 81.0976L14.2109 82.67Z" fill="white"/>
<path d="M9.85916 76.8856L10.3862 78.0342L17.3777 74.8259L16.8507 73.6773L9.85916 76.8856Z" fill="white"/>
<path d="M13.268 66.6743C14.2492 67.179 14.9041 67.9614 15.243 69.0183C15.5819 70.0752 15.5043 71.0926 14.9962 72.0634C14.502 73.0413 13.7195 73.6961 12.6626 74.035C11.6057 74.374 10.5883 74.2963 9.60706 73.7916C8.63966 73.294 7.98481 72.5115 7.64588 71.4546C7.30695 70.3977 7.38461 69.3803 7.87885 68.4025C8.38692 67.4317 9.1694 66.7769 10.2263 66.4379C11.2832 66.099 12.3006 66.1767 13.268 66.6743ZM13.9082 71.4775C14.2527 70.8246 14.3059 70.1267 14.071 69.3942C13.8361 68.6617 13.387 68.1248 12.7236 67.7836C12.074 67.4495 11.3656 67.3997 10.6122 67.6413C9.85878 67.8829 9.31146 68.3354 8.96689 68.9883C8.63614 69.6483 8.58298 70.3463 8.81789 71.0788C9.05279 71.8113 9.50192 72.3481 10.1515 72.6822C10.8148 73.0235 11.5232 73.0733 12.2767 72.8316C13.0301 72.59 13.5774 72.1375 13.9082 71.4775Z" fill="white"/>
<path d="M13.1342 59.9857L10.591 61.9933L10.8031 63.4727L13.577 63.0751L13.7563 64.3261L6.1416 65.4175L5.70506 62.3716C5.60683 61.6863 5.76352 61.0754 6.17512 60.5391C6.57428 59.9934 7.11652 59.6715 7.80184 59.5732C8.29135 59.5031 8.74675 59.5821 9.18821 59.7964C9.63124 60.0215 9.97796 60.3493 10.2268 60.7688L12.9378 58.6151L13.1342 59.9857ZM7.13714 63.9981L9.68262 63.6333L9.42537 61.8384C9.37704 61.5012 9.21685 61.2355 8.93391 61.0429C8.65097 60.8503 8.34011 60.7728 7.98113 60.8242C7.62215 60.8757 7.3456 61.0374 7.12814 61.3017C6.91068 61.566 6.83156 61.866 6.87989 62.2032L7.13714 63.9981Z" fill="white"/>
<path d="M8.92571 50.3819L9.45317 50.3865C10.5081 50.3957 11.3622 50.7548 12.0265 51.453C12.6907 52.1511 13.0234 53.0662 13.0137 54.187C13.0033 55.3738 12.6102 56.3485 11.8342 57.111C11.0582 57.8845 10.1098 58.2609 8.98896 58.2511C7.87908 58.2414 6.93739 57.8486 6.16399 57.0616C5.40148 56.2856 5.0252 55.3262 5.03517 54.1834C5.0414 53.4691 5.21198 52.8112 5.54682 52.2207C5.88167 51.6302 6.32524 51.1725 6.88855 50.8477L7.50543 51.9411C7.14098 52.1467 6.84169 52.4408 6.60738 52.8454C6.38405 53.25 6.27024 53.6996 6.26592 54.1941C6.25893 54.9963 6.51681 55.6689 7.03978 56.19C7.56274 56.7111 8.21977 56.9806 9.01097 56.9875C9.80216 56.9944 10.4638 56.7364 10.9849 56.2134C11.5059 55.7015 11.7756 55.0115 11.783 54.1653C11.7889 53.484 11.629 52.9221 11.325 52.4909C10.9991 52.0595 10.5838 51.7921 10.0464 51.6665L10.024 54.2379L8.89217 54.228L8.92571 50.3819Z" fill="white"/>
<path d="M13.2361 42.985C13.8561 43.8978 14.0566 44.8982 13.8484 45.9885C13.6401 47.0787 13.085 47.9348 12.1743 48.544C11.2724 49.1661 10.2719 49.3666 9.1817 49.1583C8.09149 48.9501 7.23536 48.395 6.61535 47.4822C6.00409 46.5823 5.8036 45.5818 6.01184 44.4916C6.22007 43.4014 6.77517 42.5453 7.67714 41.9232C8.58785 41.314 9.5883 41.1135 10.6785 41.3218C11.7687 41.53 12.6249 42.0851 13.2361 42.985ZM11.4994 47.5089C12.1144 47.1005 12.4951 46.5131 12.6394 45.7575C12.7838 45.002 12.6463 44.3156 12.2272 43.6985C11.8168 43.0943 11.2186 42.7115 10.4414 42.5631C9.66424 42.4147 8.96711 42.55 8.35209 42.9584C7.7458 43.3796 7.3651 43.967 7.22078 44.7226C7.07646 45.4781 7.21387 46.1645 7.6243 46.7687C8.04345 47.3858 8.64162 47.7685 9.4188 47.917C10.196 48.0654 10.8931 47.9301 11.4994 47.5089Z" fill="white"/>
<path d="M8.66036 35.5486C9.03893 34.5639 9.70315 33.8774 10.6428 33.4851C11.5784 33.1031 12.556 33.1022 13.5715 33.4926C14.5767 33.879 15.3019 34.5346 15.7407 35.445C16.1858 36.3696 16.2191 37.3243 15.8405 38.309L14.7561 41.1298L7.57593 38.3694L8.66036 35.5486ZM14.7122 37.8752C14.9725 37.1982 14.9495 36.5536 14.6496 35.9556C14.3536 35.3474 13.8415 34.9032 13.1338 34.6311C12.4157 34.3551 11.7483 34.3457 11.1108 34.5952C10.4875 34.8383 10.0489 35.3054 9.78867 35.9824L9.15773 37.6236L14.0813 39.5164L14.7122 37.8752Z" fill="white"/>
<path d="M19.958 29.933L18.3439 29.6405L16.7345 32.4926L17.8194 33.723L17.1443 34.9193L11.8166 28.708L12.5619 27.3872L20.6277 28.7462L19.958 29.933ZM15.9061 31.5456L17.1051 29.4209L13.4813 28.7767L15.9061 31.5456Z" fill="white"/>
<path d="M20.7635 23.2981C20.7905 23.5296 20.7349 23.7239 20.5916 23.9048C20.4484 24.0858 20.2722 24.1845 20.0406 24.2115C19.809 24.2384 19.6148 24.1828 19.4339 24.0396C19.2529 23.8964 19.1455 23.7133 19.1186 23.4817C19.0934 23.2656 19.1559 23.0628 19.2991 22.8818C19.4423 22.7009 19.6186 22.6021 19.8501 22.5752C20.0817 22.5482 20.2759 22.6038 20.4569 22.7471C20.6378 22.8903 20.7366 23.0665 20.7635 23.2981Z" fill="white"/>
<path d="M21.2841 16.0997L20.3975 17.0002L25.8792 22.397L26.7658 21.4964L21.2841 16.0997Z" fill="white"/>
<path d="M26.3303 11.6351L27.3055 10.8313L32.198 16.7676L31.4347 17.3966L25.3164 15.6749L28.6362 19.703L27.661 20.5068L22.7686 14.5706L23.5318 13.9415L29.6501 15.6632L26.3303 11.6351Z" fill="white"/>
<path d="M33.5421 6.86084L34.1758 7.89022L32.3323 9.02518L35.7314 14.5464L34.6553 15.2089L31.2561 9.68773L29.4033 10.8285L28.7695 9.79907L33.5421 6.86084Z" fill="white"/>
<path d="M38.8682 11.4896L41.9693 10.0794L42.4697 11.1798L38.2182 13.1131L35.0339 6.1106L39.2354 4.20005L39.7358 5.30044L36.6847 6.68786L37.5126 8.50851L40.3136 7.23481L40.8095 8.3252L38.0085 9.59889L38.8682 11.4896Z" fill="white"/>
<path d="M47.5488 9.53825L45.1801 7.32766L43.7497 7.76082L44.5618 10.4428L43.3523 10.8091L41.1228 3.44678L44.0677 2.55497C44.7303 2.35431 45.3578 2.41689 45.9502 2.74271C46.55 3.05482 46.9502 3.54218 47.1508 4.20479C47.2941 4.67808 47.2848 5.14019 47.1397 5.60897C46.9841 6.08093 46.7125 6.47319 46.3354 6.78258L48.8741 9.13694L47.5488 9.53825ZM42.6763 4.2164L43.4216 6.67751L45.157 6.15198C45.483 6.05324 45.7215 5.85474 45.8691 5.54595C46.0167 5.23716 46.0464 4.91815 45.9413 4.57107C45.8362 4.22399 45.6345 3.97505 45.3404 3.80003C45.0462 3.62501 44.7378 3.59213 44.4117 3.69087L42.6763 4.2164Z" fill="white"/>
<path d="M49.2983 1.26079L48.0603 1.51489L49.607 9.05026L50.845 8.79616L49.2983 1.26079Z" fill="white"/>
<path d="M58.4739 6.88604C57.7615 7.72868 56.8518 8.19084 55.7458 8.28347C54.6397 8.3761 53.6659 8.0717 52.8342 7.35838C51.9925 6.65693 51.5303 5.74725 51.4377 4.64121C51.345 3.53516 51.6494 2.56128 52.3618 1.71865C53.0642 0.887879 53.9739 0.42572 55.0799 0.333087C56.186 0.240454 57.1599 0.544861 58.0016 1.24631C58.8333 1.95962 59.2954 2.8693 59.3881 3.97535C59.4807 5.08139 59.1763 6.05528 58.4739 6.88604ZM53.6497 6.42992C54.2084 6.91246 54.8765 7.12117 55.6431 7.05696C56.4096 6.99276 57.0337 6.67583 57.5153 6.10616C57.9869 5.54836 58.1947 4.86929 58.1287 4.08082C58.0627 3.29236 57.7448 2.65731 57.1861 2.17477C56.6173 1.7041 55.9492 1.49539 55.1827 1.55959C54.4161 1.62379 53.792 1.94073 53.3204 2.49853C52.8388 3.0682 52.631 3.74727 52.697 4.53573C52.7631 5.3242 53.0809 5.95925 53.6497 6.42992Z" fill="white"/>
<path d="M65.035 8.251L63.6424 5.32553L62.1528 5.20374L61.9245 7.99668L60.6649 7.89369L61.2917 0.226807L64.3585 0.47755C65.0485 0.533967 65.6093 0.822388 66.0409 1.34281C66.4843 1.85318 66.6778 2.45338 66.6214 3.1434C66.5811 3.63627 66.4029 4.06273 66.0959 4.4456C65.778 4.82756 65.3814 5.09284 64.9172 5.24232L66.4151 8.36384L65.035 8.251ZM62.4546 1.51268L62.245 4.07561L64.0522 4.22337C64.3918 4.25113 64.6864 4.15394 64.937 3.92083C65.1876 3.68772 65.3323 3.40185 65.3618 3.04041C65.3914 2.67897 65.2951 2.3734 65.0857 2.10268C64.8762 1.83196 64.6013 1.6882 64.2618 1.66044L62.4546 1.51268Z" fill="white"/>
<path d="M75.3101 6.27271L75.1877 6.7858C74.943 7.81199 74.402 8.56419 73.5731 9.05563C72.7441 9.54708 71.7779 9.66685 70.6876 9.4068C69.5331 9.13147 68.671 8.53044 68.1012 7.60371C67.5207 6.67444 67.3658 5.66592 67.6258 4.57559C67.8833 3.49595 68.4767 2.66589 69.4167 2.08795C70.3434 1.51814 71.3626 1.36581 72.4743 1.63095C73.1691 1.79666 73.7722 2.10997 74.273 2.56833C74.7737 3.02668 75.1207 3.56133 75.3114 4.18298L74.1078 4.53989C73.9888 4.13869 73.7691 3.78124 73.4271 3.46244C73.0826 3.15432 72.6698 2.9429 72.1888 2.82817C71.4084 2.64206 70.6952 2.7431 70.0704 3.13637C69.4456 3.52964 69.0361 4.10982 68.8526 4.87946C68.669 5.64911 68.7726 6.35166 69.1659 6.97644C69.5484 7.59867 70.1607 8.01583 70.9838 8.21213C71.6465 8.3702 72.2299 8.33988 72.7182 8.14C73.2116 7.91874 73.565 7.57373 73.8075 7.07799L71.3062 6.48142L71.5688 5.38041L75.3101 6.27271Z" fill="white"/>
<path d="M81.579 12.1457C80.5499 12.5436 79.53 12.513 78.5149 12.064C77.4999 11.615 76.7912 10.881 76.4033 9.85624C76.001 8.83711 76.0315 7.81722 76.4805 6.80218C76.9295 5.78714 77.6636 5.07843 78.6928 4.68052C79.7074 4.28821 80.7273 4.31877 81.7424 4.76777C82.7574 5.21677 83.4661 5.95083 83.8685 6.96995C84.2563 7.99468 84.2258 9.01457 83.7768 10.0296C83.3278 11.0447 82.5937 11.7534 81.579 12.1457ZM77.5641 9.43243C77.8231 10.1238 78.3093 10.6272 79.0128 10.9384C79.7163 11.2496 80.416 11.2707 81.1117 11.0017C81.793 10.7383 82.301 10.242 82.621 9.51838C82.9411 8.79479 82.9666 8.0851 82.7077 7.39376C82.4342 6.70803 81.948 6.20455 81.2445 5.89336C80.541 5.58218 79.8413 5.56109 79.16 5.8245C78.4643 6.09351 77.9563 6.58982 77.6363 7.31341C77.3162 8.03701 77.2907 8.7467 77.5641 9.43243Z" fill="white"/>
<path d="M89.8496 9.38171C90.7241 9.97178 91.2439 10.7732 91.4151 11.7769C91.5772 12.7745 91.3585 13.7273 90.75 14.6292C90.1477 15.5219 89.346 16.0813 88.3603 16.3044C87.3593 16.5305 86.4215 16.3485 85.547 15.7584L83.0419 14.0681L87.3445 7.69141L89.8496 9.38171ZM86.2232 14.7564C86.8244 15.162 87.4577 15.2844 88.1078 15.1265C88.767 14.9747 89.3148 14.5754 89.7389 13.9469C90.1691 13.3092 90.3282 12.6609 90.2283 11.9837C90.1314 11.3218 89.7747 10.7894 89.1735 10.3838L87.716 9.40031L84.7656 13.7729L86.2232 14.7564Z" fill="white"/>
<path d="M92.7815 21.6249L93.4264 20.1166L91.0048 17.9121L89.5635 18.6955L88.5477 17.7707L95.7902 13.9613L96.9116 14.9822L93.7892 22.5423L92.7815 21.6249ZM92.1125 17.3156L93.9166 18.9579L95.3522 15.5688L92.1125 17.3156Z" fill="white"/>
<path d="M99.0726 23.9246C98.8409 23.8994 98.6639 23.802 98.5193 23.6221C98.3747 23.4422 98.3177 23.2484 98.3429 23.0167C98.3681 22.7849 98.4655 22.6079 98.6454 22.4633C98.8253 22.3188 99.0277 22.2548 99.2594 22.28C99.4757 22.3036 99.6596 22.4096 99.8042 22.5894C99.9487 22.7693 100.006 22.9631 99.9806 23.1949C99.9554 23.4266 99.8579 23.6036 99.6781 23.7482C99.4982 23.8928 99.3044 23.9498 99.0726 23.9246Z" fill="white"/>
<path d="M105.969 26.0275L105.289 24.9624L98.8059 29.1032L99.4861 30.1682L105.969 26.0275Z" fill="white"/>
<path d="M109.197 31.9589L109.763 33.0892L102.883 36.5299L102.44 35.6453L105.487 30.067L100.818 32.4018L100.253 31.2715L107.133 27.8308L107.575 28.7154L104.529 34.2936L109.197 31.9589Z" fill="white"/>
<path d="M112.23 40.0503L111.085 40.4364L110.394 38.3848L104.249 40.4552L103.846 39.2576L109.99 37.1872L109.295 35.1253L110.441 34.7393L112.23 40.0503Z" fill="white"/>
<path d="M106.53 44.1974L107.203 47.5369L106.018 47.7757L105.095 43.1974L112.636 41.6772L113.548 46.2017L112.363 46.4406L111.701 43.155L109.74 43.5502L110.348 46.5665L109.174 46.8032L108.566 43.7869L106.53 44.1974Z" fill="white"/>
<path d="M106.486 53.0972L109.172 51.286L109.072 49.7948L106.276 49.9834L106.191 48.7225L113.866 48.2048L114.073 51.2749C114.119 51.9656 113.917 52.563 113.467 53.067C113.028 53.5812 112.463 53.8616 111.772 53.9082C111.279 53.9415 110.831 53.8285 110.406 53.5818C109.982 53.3241 109.66 52.9713 109.444 52.5343L106.579 54.4788L106.486 53.0972ZM112.767 49.5456L110.201 49.7186L110.323 51.5278C110.346 51.8676 110.486 52.1446 110.753 52.3578C111.021 52.5711 111.325 52.6717 111.687 52.6473C112.049 52.6229 112.337 52.4823 112.574 52.2351C112.81 51.9878 112.912 51.6946 112.889 51.3547L112.767 49.5456Z" fill="white"/>
<path d="M114.16 56.6404L114.188 55.377L106.497 55.2062L106.469 56.4697L114.16 56.6404Z" fill="white"/>
<path d="M106.633 64.3129C105.969 63.4311 105.721 62.4415 105.876 61.3425C106.031 60.2435 106.544 59.3616 107.425 58.7091C108.296 58.0442 109.285 57.7956 110.384 57.9509C111.483 58.1062 112.365 58.6192 113.028 59.501C113.683 60.3703 113.931 61.3599 113.776 62.4589C113.621 63.5579 113.107 64.4398 112.237 65.1048C111.356 65.7573 110.367 66.0059 109.268 65.8506C108.169 65.6953 107.287 65.1822 106.633 64.3129ZM108.149 59.7104C107.554 60.148 107.202 60.7531 107.095 61.5148C106.987 62.2764 107.158 62.9553 107.606 63.5514C108.045 64.1351 108.661 64.4885 109.445 64.5992C110.228 64.7099 110.918 64.5411 111.512 64.1035C112.098 63.6534 112.449 63.0483 112.557 62.2867C112.665 61.525 112.494 60.8461 112.055 60.2624C111.607 59.6663 110.991 59.3129 110.207 59.2022C109.424 59.0915 108.734 59.2604 108.149 59.7104Z" fill="white"/>
<path d="M103.83 70.4216L106.993 69.7225L107.447 68.2985L104.777 67.4479L105.16 66.2438L112.49 68.5786L111.556 71.5104C111.346 72.1701 110.939 72.6517 110.335 72.9552C109.738 73.2725 109.109 73.326 108.45 73.1159C107.978 72.9658 107.603 72.6963 107.299 72.3111C106.998 71.9154 106.829 71.4694 106.788 70.9833L103.409 71.741L103.83 70.4216ZM110.976 69.4225L108.525 68.642L107.975 70.3697C107.872 70.6943 107.9 71.0032 108.071 71.2998C108.242 71.5964 108.488 71.8017 108.833 71.9118C109.179 72.0218 109.498 71.9967 109.809 71.8535C110.12 71.7104 110.322 71.4748 110.425 71.1502L110.976 69.4225Z" fill="white"/>
<path d="M103.425 80.8739L102.953 80.6391C102.008 80.1693 101.397 79.4728 101.105 78.5544C100.813 77.6361 100.914 76.6677 101.413 75.664C101.942 74.6013 102.722 73.8968 103.753 73.5505C104.789 73.1943 105.807 73.2707 106.81 73.7698C107.804 74.264 108.479 75.0292 108.83 76.0752C109.177 77.1065 109.096 78.1338 108.587 79.1572C108.269 79.7968 107.827 80.3138 107.268 80.6983C106.709 81.0829 106.11 81.3005 105.461 81.3461L105.384 80.0931C105.802 80.0676 106.2 79.934 106.588 79.6727C106.965 79.4065 107.264 79.052 107.485 78.6092C107.842 77.8908 107.904 77.1732 107.662 76.4758C107.419 75.7785 106.946 75.2488 106.238 74.8965C105.529 74.5442 104.822 74.4868 104.124 74.7292C103.432 74.9617 102.887 75.4642 102.511 76.2218C102.207 76.8319 102.105 77.4071 102.19 77.9279C102.294 78.4584 102.551 78.8805 102.979 79.2285L104.124 76.926L105.138 77.4299L103.425 80.8739Z" fill="white"/>
<path d="M96.3014 85.6527C96.144 84.5605 96.4021 83.5734 97.067 82.6846C97.7318 81.7958 98.6059 81.2695 99.6915 81.1209C100.775 80.9569 101.762 81.215 102.651 81.8798C103.539 82.5447 104.066 83.4187 104.223 84.5109C104.378 85.5876 104.12 86.5748 103.455 87.4635C102.791 88.3523 101.917 88.8787 100.833 89.0427C99.7477 89.1913 98.7605 88.9332 97.8718 88.2683C96.983 87.6035 96.4566 86.7294 96.3014 85.6527ZM99.8446 82.3471C99.1129 82.4447 98.5133 82.8059 98.0525 83.4218C97.5918 84.0378 97.4146 84.715 97.521 85.4533C97.6252 86.1763 97.9952 86.7824 98.6288 87.2564C99.2623 87.7303 99.9483 87.9141 100.68 87.8165C101.41 87.7035 102.009 87.3423 102.47 86.7263C102.931 86.1103 103.108 85.4332 103.004 84.7102C102.897 83.9719 102.527 83.3657 101.894 82.8918C101.26 82.4178 100.574 82.2341 99.8446 82.3471Z" fill="white"/>
<path d="M97.1407 94.3265C96.3707 95.0477 95.4736 95.3759 94.457 95.3193C93.4483 95.2551 92.5682 94.8298 91.8245 94.0357C91.0883 93.2497 90.7215 92.3435 90.7235 91.3329C90.726 90.3067 91.1123 89.433 91.8823 88.7119L94.0881 86.6461L99.3464 92.2607L97.1407 94.3265ZM92.7086 89.5942C92.1793 90.09 91.9189 90.6801 91.9281 91.349C91.9292 92.0255 92.1965 92.6484 92.7148 93.2019C93.2407 93.7633 93.8373 94.0628 94.5197 94.1162C95.1866 94.1692 95.785 93.94 96.3144 93.4442L97.5977 92.2423L93.992 88.3923L92.7086 89.5942Z" fill="white"/>
<path d="M84.5745 94.4845L85.9014 95.4489L88.5897 93.5788L88.1469 91.9993L89.2745 91.2148L91.3761 99.1236L90.1312 99.9896L83.4559 95.2626L84.5745 94.4845ZM88.9247 94.7915L86.922 96.1847L89.9065 98.3388L88.9247 94.7915Z" fill="white"/>
<path fill-rule="evenodd" clip-rule="evenodd" d="M38.1568 109.228L35.1218 110.253L44.002 85.6157L52.977 88.1328L58.3726 102.957L53.3958 116.905L51.6061 113.969L56.9951 99.1685L55.6153 95.3776L49.8803 111.132L46.918 106.268L41.3021 108.166L48.7606 87.6766L46.3604 86.6869L38.1568 109.228Z" fill="white"/>
<path fill-rule="evenodd" clip-rule="evenodd" d="M70.1047 120L59.016 89.5331L61.6719 89.2532L72.8641 120H82.5203L70.8893 88.041L73.1795 86.7538L85.2797 120H88.0393L75.8022 86.377L56.1396 89.2114L67.3452 120H70.1047Z" fill="white"/>
<path fill-rule="evenodd" clip-rule="evenodd" d="M59.6004 26.3088C75.4036 26.3088 88.2358 39.1409 88.2358 54.9463C88.2358 70.7495 75.4036 83.5816 59.6004 83.5816C43.795 83.5816 30.9651 70.7495 30.9651 54.9463C30.9651 39.1409 43.795 26.3088 59.6004 26.3088ZM70.7244 58.8034L69.0933 55.9932H67.5946V58.8034H66.3272V51.0892H69.4129C70.105 51.0892 70.689 51.3294 71.1717 51.8099C71.6521 52.2904 71.8925 52.8767 71.8925 53.5687C71.8925 54.0603 71.7515 54.5099 71.4693 54.9177C71.185 55.3254 70.8169 55.6207 70.3606 55.8059L72.1129 58.8034H70.7244ZM76.9399 51.0892C77.9979 51.0892 78.8772 51.4595 79.5803 52.2C80.2812 52.9428 80.6317 53.8575 80.6317 54.9463C80.6317 56.0263 80.2812 56.9388 79.5803 57.6837C78.8772 58.4287 77.9979 58.8034 76.9399 58.8034H73.9093V51.0892H76.9399ZM44.3086 58.8034L43.7685 57.2496H40.4845L39.9444 58.8034H38.5669L41.3661 51.0892H42.8869L45.675 58.8034H44.3086ZM63.3076 58.8034L62.7677 57.2496H59.4836L58.9436 58.8034H57.566L60.3652 51.0892H61.886L64.6742 58.8034H63.3076ZM48.5184 58.8034L46.3362 51.0892H47.6698L49.2898 57.1152L51.042 51.0892H52.2102L53.9514 57.1152L55.5714 51.0892H56.9048L54.7228 58.8034H53.2571L51.626 53.1721L49.984 58.8034H48.5184ZM76.9399 57.5912C77.6673 57.5912 78.26 57.34 78.7206 56.8397C79.1791 56.3415 79.4083 55.7089 79.4083 54.9463C79.4083 54.1749 79.1791 53.5401 78.7206 53.0442C78.26 52.5483 77.6673 52.3014 76.9399 52.3014H75.1767V57.5912H76.9399ZM40.9032 56.0571H43.3498L42.1265 52.5769L40.9032 56.0571ZM59.9024 56.0571H62.3489L61.1256 52.5769L59.9024 56.0571ZM67.5946 52.2793V54.856H69.4129C69.7523 54.856 70.039 54.7325 70.2726 54.4834C70.5084 54.2321 70.6252 53.928 70.6252 53.5687C70.6252 53.2073 70.5084 52.9032 70.2726 52.6519C70.039 52.4029 69.7523 52.2793 69.4129 52.2793H67.5946Z" fill="white"/>
<path fill-rule="evenodd" clip-rule="evenodd" d="M59.5867 19.1372C79.3421 19.1372 95.382 35.1751 95.382 54.9326C95.382 74.6881 79.3421 90.7261 59.5867 90.7261C39.8312 90.7261 23.7932 74.6881 23.7932 54.9326C23.7932 35.1751 39.8312 19.1372 59.5867 19.1372ZM59.5867 21.8931C77.8228 21.8931 92.6262 36.6965 92.6262 54.9326C92.6262 73.1667 77.8228 87.9702 59.5867 87.9702C41.3525 87.9702 26.547 73.1667 26.547 54.9326C26.547 36.6965 41.3525 21.8931 59.5867 21.8931Z" fill="white"/>
</svg>
