<svg width="473" height="507" viewBox="0 0 473 507" fill="none" xmlns="http://www.w3.org/2000/svg">
<path fill-rule="evenodd" clip-rule="evenodd" d="M83.0111 78.8062C166.7 38.4974 307.403 3.79007 473 0.155762V1.65612C307.578 5.29079 167.109 39.9652 83.662 80.1576C62.7472 90.2312 45.4318 100.643 32.209 110.987C18.977 121.338 9.89025 131.585 5.3653 141.314C0.855899 151.009 0.879712 160.169 5.82914 168.492C10.8066 176.863 20.8298 184.497 36.5612 190.928C45.1249 194.428 58.1048 197.824 73.9925 201.266C89.8685 204.706 108.599 208.183 128.643 211.856C130.631 212.22 132.631 212.586 134.643 212.954L134.717 212.968C173.248 220.019 215.943 227.833 252.116 237.485C271.159 242.565 288.419 248.162 302.328 254.436C316.214 260.7 326.858 267.682 332.556 275.585C335.415 279.552 337.041 283.768 337.184 288.244C337.327 292.719 335.986 297.387 333.025 302.255C327.118 311.963 314.708 322.563 294.381 334.24C277.295 344.056 270.437 356.009 271.862 369.222C273.298 382.549 283.172 397.406 300.206 412.915C334.058 443.736 395.709 476.701 473 504.84V506.436C395.404 478.233 333.338 445.109 299.196 414.024C282.087 398.446 271.867 383.271 270.37 369.383C268.861 355.382 276.228 342.939 293.634 332.94C313.901 321.297 326.039 310.852 331.743 301.476C334.587 296.802 335.817 292.418 335.685 288.292C335.553 284.168 334.058 280.234 331.339 276.462C325.879 268.889 315.536 262.039 301.711 255.803C287.909 249.577 270.736 244.005 251.729 238.934C215.616 229.299 172.976 221.495 134.427 214.439L131.353 213.877L128.373 213.331C108.333 209.659 89.5782 206.178 73.6749 202.732C57.7834 199.289 44.69 195.871 35.9936 192.316C20.1245 185.829 9.75613 178.031 4.53987 169.259C-0.704439 160.44 -0.676477 150.747 4.00522 140.681C8.67138 130.649 17.9627 120.227 31.2848 109.806C44.616 99.3768 62.0308 88.9113 83.0111 78.8062ZM473 36.2427C459.166 36.4362 392.441 38.6256 329.751 50.3633C296.722 56.5475 264.737 65.3955 242.2 78.0406C219.654 90.6902 206.405 107.244 211.307 128.81C212.926 135.933 218.353 142.862 226.252 149.648C234.157 156.439 244.607 163.146 256.399 169.821C268.194 176.499 281.364 183.164 294.722 189.864C295.952 190.48 297.183 191.097 298.415 191.715L298.417 191.716L298.421 191.718C310.577 197.81 322.8 203.936 334.23 210.143C346.82 216.981 358.421 223.904 367.883 230.969C377.351 238.039 384.627 245.214 388.629 252.548C392.615 259.854 393.363 267.334 389.746 275.09C386.114 282.875 378.058 290.994 364.294 299.482C350.807 307.799 346.174 316.147 348.438 324.271C350.676 332.3 359.591 339.785 372.208 346.518C397.108 359.805 437.24 370.587 473 377.009V375.625C437.363 369.209 397.593 358.488 373.011 345.371C360.466 338.677 352.085 331.468 350.013 324.033C347.967 316.692 352.007 308.803 365.298 300.607C379.18 292.046 387.48 283.755 391.257 275.659C395.046 267.535 394.253 259.663 390.092 252.036C385.945 244.437 378.465 237.099 368.912 229.966C359.352 222.828 347.666 215.857 335.044 209.003C323.585 202.779 311.332 196.638 299.178 190.547L297.19 189.551L295.484 188.696C282.123 181.994 268.991 175.348 257.241 168.696C245.488 162.043 235.152 155.401 227.371 148.716C219.583 142.026 214.423 135.35 212.896 128.631C208.166 107.819 220.852 91.7074 243.15 79.1971C265.455 66.6824 297.221 57.8757 330.191 51.7025C392.574 40.0221 458.996 37.8178 473 37.6148V36.2427ZM473 97.2065C448.938 120.093 423.031 131.058 402.828 139.042C401.59 139.531 400.373 140.009 399.177 140.479L399.147 140.491L399.14 140.493L399.14 140.493L399.14 140.493C390.456 143.904 382.942 146.856 377.365 150.122C370.987 153.857 366.985 158.092 366.687 164.036C366.418 169.384 367.94 173.893 370.827 177.798C373.706 181.692 377.914 184.947 382.956 187.835C390.887 192.377 401.031 196.085 411.58 199.94L411.58 199.94C414.396 200.969 417.24 202.009 420.079 203.078C433.618 208.176 447.098 213.957 457.198 222.462C464.974 229.009 470.768 237.19 473 247.973V242.059C470.077 233.735 464.884 227.059 458.305 221.519C447.956 212.805 434.213 206.934 420.661 201.831C417.77 200.743 414.89 199.69 412.053 198.652C401.528 194.804 391.587 191.17 383.807 186.714C378.886 183.896 374.889 180.781 372.185 177.123C369.489 173.476 368.05 169.254 368.304 164.177C368.573 158.815 372.145 154.892 378.339 151.265C383.803 148.065 391.186 145.164 399.894 141.742L399.905 141.738C401.107 141.266 402.333 140.784 403.584 140.29C423.494 132.423 449.084 121.609 473 99.3173V97.2065Z" fill="#D8D8D8"/>
</svg>
