<svg width="304" height="493" viewBox="0 0 304 493" fill="none" xmlns="http://www.w3.org/2000/svg">
<path fill-rule="evenodd" clip-rule="evenodd" d="M267.004 374.391C217.498 421.457 121.058 468.82 0 492.624V491.088C120.761 467.299 216.793 420.061 265.986 373.293C290.665 349.831 303.404 326.636 301.827 306.683C300.258 286.823 284.449 269.782 251.043 258.716C235.232 253.479 210.289 248.076 181.655 241.875C174.156 240.25 166.404 238.571 158.496 236.826C120.435 228.426 78.8243 218.5 44.7584 205.793C27.7255 199.439 12.5493 192.379 0.63544 184.448C0.422606 184.307 0.210789 184.165 0 184.022V182.2C0.480225 182.53 0.966381 182.859 1.45838 183.186C13.2402 191.029 28.2999 198.042 45.2793 204.376C79.238 217.044 120.757 226.951 158.82 235.352C166.698 237.091 174.431 238.765 181.918 240.387L181.918 240.387C210.565 246.591 235.619 252.017 251.512 257.282C285.148 268.424 301.673 285.799 303.313 306.556C304.947 327.221 291.774 350.843 267.004 374.391ZM0 102.629V100.604C5.56105 95.5851 12.0714 90.3991 19.5977 85.0374C36.7517 72.8169 48.7857 62.2391 56.0099 53.0696C63.2458 43.8853 65.5385 36.2709 63.575 29.8893C61.6014 23.4747 55.2384 17.9888 44.3699 13.3124C33.6901 8.71729 18.8289 4.97681 0 1.88181V0.352051C18.9879 3.46188 34.0691 7.23814 44.9581 11.9233C55.9321 16.645 62.8236 22.3657 64.9987 29.435C67.1839 36.5372 64.5193 44.6842 57.174 54.0074C49.8169 63.3455 37.6457 74.0216 20.4523 86.2702C12.5038 91.9327 5.71622 97.3827 0 102.629ZM31.7723 416.729C20.0501 422.67 8.90242 426.667 0 427.681V426.163C8.62296 425.148 19.525 421.252 31.1093 415.38C43.0382 409.334 55.6365 401.221 67.1308 392.094C78.6275 382.965 88.9979 372.839 96.4869 362.774C103.99 352.69 108.532 342.759 108.532 334.003C108.532 329.641 107.43 326.254 105.464 323.513C103.49 320.76 100.607 318.605 96.9607 316.786C91.0765 313.85 83.3715 311.858 74.6132 309.595C72.455 309.037 70.2328 308.463 67.9581 307.854C45.5897 301.864 18.6246 292.61 0 262.645V259.75C18.3435 290.876 45.5494 300.291 68.3452 306.395C70.5743 306.992 72.7662 307.558 74.9065 308.111L74.907 308.111C83.6822 310.377 91.5873 312.419 97.6245 315.432C101.4 317.315 104.509 319.606 106.672 322.623C108.843 325.651 110.023 329.357 110.023 333.996C110.023 343.24 105.252 353.497 97.6765 363.678C90.0873 373.878 79.6139 384.096 68.0479 393.28C56.4796 402.466 43.7966 410.634 31.7723 416.729Z" fill="#D8D8D8"/>
</svg>
