<svg width="90" height="90" viewBox="0 0 90 90" fill="none" xmlns="http://www.w3.org/2000/svg">
<path fill-rule="evenodd" clip-rule="evenodd" d="M85.5 6H87V82.575C88.7117 82.9225 90 84.4358 90 86.25C90 88.3211 88.3211 90 86.25 90C84.4358 90 82.9225 88.7117 82.575 87H6V85.5H82.575C82.8733 84.0307 84.0307 82.8733 85.5 82.575V6ZM88.3333 86.25C88.3333 87.4006 87.4006 88.3333 86.25 88.3333C85.0994 88.3333 84.1667 87.4006 84.1667 86.25C84.1667 85.0994 85.0994 84.1667 86.25 84.1667C87.4006 84.1667 88.3333 85.0994 88.3333 86.25Z" fill="#F1F1F1"/>
<path fill-rule="evenodd" clip-rule="evenodd" d="M4.5 7.42498C5.96935 7.12672 7.12672 5.96935 7.42498 4.5H82.575C82.9225 6.21168 84.4358 7.5 86.25 7.5C88.3211 7.5 90 5.82107 90 3.75C90 1.67893 88.3211 0 86.25 0C84.4358 0 82.9225 1.28832 82.575 3H7.42498C7.07753 1.28832 5.56422 0 3.75 0C1.67893 0 0 1.67893 0 3.75C0 5.56421 1.28832 7.07753 3 7.42498V82.575C1.28832 82.9225 0 84.4358 0 86.25C0 88.3211 1.67893 90 3.75 90C5.82107 90 7.5 88.3211 7.5 86.25C7.5 84.4358 6.21168 82.9225 4.5 82.575V7.42498ZM3.75 5.83333C4.90059 5.83333 5.83333 4.90059 5.83333 3.75C5.83333 2.59941 4.90059 1.66667 3.75 1.66667C2.59941 1.66667 1.66667 2.59941 1.66667 3.75C1.66667 4.90059 2.59941 5.83333 3.75 5.83333ZM3.75 88.3333C4.90059 88.3333 5.83333 87.4006 5.83333 86.25C5.83333 85.0994 4.90059 84.1667 3.75 84.1667C2.59941 84.1667 1.66667 85.0994 1.66667 86.25C1.66667 87.4006 2.59941 88.3333 3.75 88.3333ZM88.3333 3.75C88.3333 4.90059 87.4006 5.83333 86.25 5.83333C85.0994 5.83333 84.1667 4.90059 84.1667 3.75C84.1667 2.59941 85.0994 1.66667 86.25 1.66667C87.4006 1.66667 88.3333 2.59941 88.3333 3.75Z" fill="#F1F1F1"/>
<path fill-rule="evenodd" clip-rule="evenodd" d="M26.25 27.1875C26.25 26.6697 26.6697 26.25 27.1875 26.25H63.1875C63.7053 26.25 64.125 26.6697 64.125 27.1875V63.1875C64.125 63.7053 63.7053 64.125 63.1875 64.125H40.6875C40.1697 64.125 39.75 63.7053 39.75 63.1875V58.125H36.9375C36.4197 58.125 36 57.7053 36 57.1875C36 56.6697 36.4197 56.25 36.9375 56.25H39.75V47.4375C39.75 46.9197 40.1697 46.5 40.6875 46.5H44.4375C44.9553 46.5 45.375 46.9197 45.375 47.4375C45.375 47.9553 44.9553 48.375 44.4375 48.375H41.625V62.25H62.25V48.375H50.4375C49.9197 48.375 49.5 47.9553 49.5 47.4375C49.5 46.9197 49.9197 46.5 50.4375 46.5H62.25V28.125H37.125V39.9375C37.125 40.4553 36.7053 40.875 36.1875 40.875C35.6697 40.875 35.25 40.4553 35.25 39.9375V28.125H28.125V56.25H30.9375C31.4553 56.25 31.875 56.6697 31.875 57.1875C31.875 57.7053 31.4553 58.125 30.9375 58.125H27.1875C26.6697 58.125 26.25 57.7053 26.25 57.1875V27.1875Z" fill="#F1F1F1"/>
</svg>
