<svg width="120" height="120" viewBox="0 0 120 120" fill="none" xmlns="http://www.w3.org/2000/svg">
<path fill-rule="evenodd" clip-rule="evenodd" d="M114 8H116V110.1C118.282 110.563 120 112.581 120 115C120 117.761 117.761 120 115 120C112.581 120 110.563 118.282 110.1 116H8V114H110.1C110.498 112.041 112.041 110.498 114 110.1V8ZM117.778 115C117.778 116.534 116.534 117.778 115 117.778C113.466 117.778 112.222 116.534 112.222 115C112.222 113.466 113.466 112.222 115 112.222C116.534 112.222 117.778 113.466 117.778 115Z" fill="#C2C2C2"/>
<path fill-rule="evenodd" clip-rule="evenodd" d="M6 9.89998C7.95914 9.5023 9.50229 7.95913 9.89998 6H110.1C110.563 8.28224 112.581 10 115 10C117.761 10 120 7.76142 120 5C120 2.23858 117.761 0 115 0C112.581 0 110.563 1.71776 110.1 4H9.89998C9.43671 1.71776 7.41896 0 5 0C2.23857 0 0 2.23858 0 5C0 7.41895 1.71776 9.43671 4 9.89998V110.1C1.71776 110.563 0 112.581 0 115C0 117.761 2.23857 120 5 120C7.76143 120 10 117.761 10 115C10 112.581 8.28224 110.563 6 110.1V9.89998ZM5 7.77778C6.53412 7.77778 7.77777 6.53413 7.77777 5C7.77777 3.46587 6.53412 2.22222 5 2.22222C3.46588 2.22222 2.22223 3.46587 2.22223 5C2.22223 6.53413 3.46588 7.77778 5 7.77778ZM5 117.778C6.53412 117.778 7.77777 116.534 7.77777 115C7.77777 113.466 6.53412 112.222 5 112.222C3.46588 112.222 2.22223 113.466 2.22223 115C2.22223 116.534 3.46588 117.778 5 117.778ZM117.778 5C117.778 6.53413 116.534 7.77778 115 7.77778C113.466 7.77778 112.222 6.53413 112.222 5C112.222 3.46587 113.466 2.22222 115 2.22222C116.534 2.22222 117.778 3.46587 117.778 5Z" fill="#202020"/>
<path fill-rule="evenodd" clip-rule="evenodd" d="M35 36.25C35 35.5596 35.5596 35 36.25 35H84.25C84.9404 35 85.5 35.5596 85.5 36.25V84.25C85.5 84.9404 84.9404 85.5 84.25 85.5H54.25C53.5596 85.5 53 84.9404 53 84.25V77.5H49.25C48.5596 77.5 48 76.9404 48 76.25C48 75.5596 48.5596 75 49.25 75H53V63.25C53 62.5596 53.5596 62 54.25 62H59.25C59.9404 62 60.5 62.5596 60.5 63.25C60.5 63.9404 59.9404 64.5 59.25 64.5H55.5V83H83V64.5H67.25C66.5596 64.5 66 63.9404 66 63.25C66 62.5596 66.5596 62 67.25 62H83V37.5H49.5V53.25C49.5 53.9404 48.9404 54.5 48.25 54.5C47.5596 54.5 47 53.9404 47 53.25V37.5H37.5V75H41.25C41.9404 75 42.5 75.5596 42.5 76.25C42.5 76.9404 41.9404 77.5 41.25 77.5H36.25C35.5596 77.5 35 76.9404 35 76.25V36.25Z" fill="#202020"/>
</svg>
