<svg width="120" height="120" viewBox="0 0 120 120" fill="none" xmlns="http://www.w3.org/2000/svg">
<g clip-path="url(#clip0)">
<path d="M115.432 31.1752C115.255 31.1752 115.033 31.0865 114.9 30.9534L89.623 5.67626L64.3459 30.9534C64.0354 31.2638 63.5476 31.2638 63.2372 30.9534C62.9268 30.643 62.9268 30.1552 63.2372 29.8448L89.0465 3.99112C89.357 3.6807 89.8448 3.6807 90.1552 3.99112L116.009 29.8448C116.319 30.1552 116.319 30.643 116.009 30.9534C115.831 31.0865 115.654 31.1752 115.432 31.1752Z" fill="#C2C2C2"/>
<path d="M5.01134 73.7029C7.84948 73.0377 12.3728 72.4612 17.6499 73.3038C19.5568 73.6142 21.1532 73.7473 22.6167 73.7473C29.0468 73.7473 31.2198 70.9091 33.3484 68.1597C34.4127 66.785 35.4326 65.4546 37.0291 64.4346C37.3838 64.2129 37.4725 63.7251 37.2508 63.3703C37.0291 63.0156 36.5413 62.9269 36.1865 63.1486C34.4127 64.3016 33.2597 65.8094 32.151 67.2284C29.6233 70.51 27.4504 73.3482 17.916 71.796C12.3728 70.9091 7.6721 71.53 4.65658 72.1952C4.25746 72.2839 3.99139 72.7273 4.08008 73.1264C4.16877 73.5255 4.61223 73.7916 5.01134 73.7029Z" fill="#C2C2C2"/>
<path d="M4.83396 83.9468C4.8783 83.9468 4.967 83.9468 5.01134 83.9468C11.4415 82.4834 24.5235 80.0443 39.5125 80C51.3085 79.9557 52.8606 78.4036 54.5901 75.6541C55.477 74.2794 56.4526 72.7273 60.355 71.1308C66.7408 68.5144 68.9138 65.8537 69.6233 64.0798C69.8007 63.6807 69.579 63.2372 69.1799 63.0599C68.7807 62.8825 68.3373 63.1042 68.1599 63.5033C67.6721 64.745 65.9426 67.184 59.7342 69.6674C55.3883 71.4412 54.1909 73.3038 53.2597 74.7672C51.9293 76.8514 50.998 78.3592 39.5125 78.4036C24.3462 78.4479 11.1754 80.9313 4.65658 82.3947C4.25746 82.4834 3.99139 82.9268 4.08008 83.3259C4.16877 83.6807 4.47919 83.9468 4.83396 83.9468Z" fill="#C2C2C2"/>
<path d="M4.8337 94.5011C8.69179 94.5011 14.4124 94.3237 19.4678 93.7028C25.4989 92.949 28.4701 91.3082 31.3525 89.756C33.4368 88.6031 35.388 87.5388 38.4035 86.8736C41.4634 86.2084 47.3614 86.1197 53.6585 85.9866C62.306 85.8536 72.0621 85.6762 77.3392 83.9911C80 83.1485 82.6607 81.5964 85.765 79.7782C92.7716 75.7427 101.463 70.6873 114.945 70.9534C115.388 70.9534 115.743 70.5986 115.743 70.1995C115.743 69.756 115.388 69.4013 114.989 69.4013C101.064 69.1352 92.1508 74.2793 84.9667 78.4478C81.9512 80.2217 79.3348 81.7294 76.8071 82.5277C71.7516 84.1685 62.1286 84.3015 53.5698 84.4345C47.2284 84.5232 41.2417 84.6563 38.0044 85.3215C34.7672 86.031 32.5942 87.2283 30.51 88.337C27.7605 89.8447 24.878 91.3968 19.1574 92.1064C14.1463 92.7272 8.55875 92.8603 4.70066 92.9046C4.2572 92.9046 3.94678 93.2594 3.94678 93.7028C4.07982 94.1906 4.43458 94.5011 4.8337 94.5011Z" fill="#C2C2C2"/>
<path d="M104.878 94.9002C107.938 94.3237 111.796 93.5699 115.299 91.9291C115.699 91.7517 115.832 91.2639 115.654 90.9091C115.477 90.5543 114.989 90.3769 114.634 90.5543C111.308 92.1508 107.583 92.8603 104.568 93.4368C100.621 94.1907 97.7828 94.7228 97.7385 96.8958C97.6942 98.4479 99.7341 99.3792 104.568 100.133C108.027 100.665 112.107 100.887 114.945 101.02H114.989C115.388 101.02 115.743 100.71 115.743 100.266C115.743 99.8226 115.433 99.4679 114.989 99.4679C103.104 98.9357 99.5123 97.561 99.2463 96.9401C99.335 95.9645 102.173 95.4324 104.878 94.9002Z" fill="#C2C2C2"/>
<path d="M115.166 105.942C111.397 105.1 96.9842 102.927 78.7137 102.04C71.574 101.685 66.6072 101.286 63.0596 100.798C57.1172 99.9557 56.8955 98.9801 56.8955 98.9801C56.8955 98.9357 56.9842 97.694 65.2325 95.0333C76.7181 91.3526 82.9709 90.9978 87.9819 90.7317C92.2391 90.51 95.6094 90.2883 100.354 88.071C105.676 85.5433 111.308 84.5233 115.077 84.0355C115.521 83.9912 115.787 83.5921 115.742 83.1929C115.698 82.7495 115.299 82.4834 114.9 82.5278C110.997 82.9712 105.188 84.0799 99.6893 86.6963C95.2103 88.8249 92.1505 88.9579 87.8933 89.224C82.7935 89.4901 76.452 89.8448 64.7447 93.6142C56.1859 96.3637 55.166 97.9158 55.3434 99.2462C55.6094 101.33 59.5119 102.705 78.625 103.681C96.7624 104.568 111.086 106.696 114.811 107.539C114.856 107.539 114.944 107.539 114.989 107.539C115.343 107.539 115.654 107.273 115.742 106.918C115.831 106.475 115.565 106.075 115.166 105.942Z" fill="#C2C2C2"/>
<path d="M112.949 112.018C110.421 111.441 96.6737 108.692 75.4764 109.667C54.2791 110.599 51.8844 110.067 46.0751 108.78C43.8578 108.293 41.064 107.672 36.5407 107.007C30.3766 106.075 27.9376 105.1 25.7646 104.213C22.2613 102.794 19.7336 101.774 4.78904 102.173C4.34558 102.173 4.03516 102.528 4.03516 102.971C4.03516 103.415 4.38992 103.725 4.78904 103.725C19.3788 103.326 21.7735 104.302 25.0995 105.676C27.2281 106.563 29.8888 107.628 36.1859 108.559C40.6205 109.224 43.37 109.845 45.5873 110.333C51.5296 111.663 54.013 112.195 75.432 111.22C96.4077 110.288 109.977 112.993 112.505 113.57C112.55 113.57 112.638 113.57 112.683 113.57C113.037 113.57 113.348 113.304 113.436 112.949C113.614 112.55 113.348 112.106 112.949 112.018Z" fill="#C2C2C2"/>
<path d="M33.9245 114.678C29.8003 113.836 26.0753 112.461 22.7937 110.687C15.8757 106.874 7.7604 109.002 4.5675 110.066C4.16838 110.199 3.94665 110.643 4.07969 111.042C4.21273 111.441 4.65619 111.663 5.0553 111.53C8.02648 110.51 15.654 108.514 22.0398 112.018C25.4544 113.88 29.3125 115.299 33.6141 116.186C33.6584 116.186 33.7027 116.186 33.7914 116.186C34.1462 116.186 34.4566 115.92 34.5453 115.565C34.634 115.166 34.3679 114.767 33.9245 114.678Z" fill="#C2C2C2"/>
<path d="M116.231 110.953V63.7694C116.231 63.326 115.876 62.9712 115.432 62.9712H4.61189C4.16843 62.9712 3.81366 63.326 3.81366 63.7694V110.953C1.64071 111.308 -0.0444336 113.171 -0.0444336 115.432C-0.0444336 117.96 1.99548 120 4.52319 120C6.78483 120 8.64736 118.359 9.00213 116.231H110.953C111.308 118.359 113.171 120 115.432 120C117.96 120 120 117.96 120 115.432C120 113.215 118.359 111.353 116.231 110.953ZM114.678 64.5676V110.998C112.816 111.308 111.308 112.816 110.998 114.679H9.00213C8.69171 112.816 7.22829 111.353 5.36577 110.998V64.5676H114.678ZM4.56754 118.448C2.92674 118.448 1.55202 117.118 1.55202 115.432C1.55202 113.792 2.83805 112.461 4.47885 112.461C4.52319 112.461 4.56754 112.461 4.61189 112.461C4.65623 112.461 4.65623 112.461 4.70058 112.461C6.25268 112.55 7.49437 113.836 7.53871 115.432C7.53871 117.118 6.20834 118.448 4.56754 118.448ZM115.432 118.448C113.791 118.448 112.417 117.118 112.417 115.432C112.417 113.792 113.747 112.461 115.388 112.461C117.029 112.461 118.359 113.792 118.359 115.432C118.448 117.118 117.073 118.448 115.432 118.448Z" fill="#202020"/>
<path d="M120 4.56763C120 2.03991 117.96 0 115.432 0C113.171 0 111.308 1.6408 110.953 3.7694H63.7694C63.326 3.7694 62.9712 4.12417 62.9712 4.56763V56.2306C62.9712 56.6741 63.326 57.0288 63.7694 57.0288H115.432C115.876 57.0288 116.231 56.6741 116.231 56.2306V9.00222C118.359 8.64745 120 6.78492 120 4.56763ZM64.5676 55.4324V5.32151H110.998C111.308 7.18404 112.816 8.6918 114.679 9.00222V55.4324H64.5676ZM115.432 7.5388C113.792 7.5388 112.417 6.20843 112.417 4.52328C112.417 2.83814 113.747 1.50776 115.432 1.50776C117.118 1.50776 118.448 2.83814 118.448 4.52328C118.448 6.20843 117.073 7.5388 115.432 7.5388Z" fill="#202020"/>
<path d="M55.521 5.32153H54.4124L44.1685 15.6098V5.32153H42.6164V17.1619L31.2195 28.5144V5.32153H29.6674V30.0665L18.3148 41.4191V5.32153H16.7627V42.9712L5.41016 54.3237V55.4324H6.5188L17.7383 44.2129L55.5654 44.0355V42.4834L19.2904 42.6164L30.5986 31.3082L55.4767 31.1752V29.6231L32.1507 29.7561L43.5033 18.4036L55.4767 18.2705V16.7184L45.0554 16.8515L55.4767 6.43018V5.32153H55.521Z" fill="#C2C2C2"/>
<path d="M56.2749 3.7694H9.00222C8.64745 1.6408 6.78492 0 4.56763 0C2.03991 0 0 2.03991 0 4.56763C0 6.82927 1.68514 8.73614 3.85809 9.04656V56.2306C3.85809 56.6741 4.21286 57.0288 4.65632 57.0288H56.3193C56.7627 57.0288 57.1175 56.6741 57.1175 56.2306V4.56763C57.0732 4.12417 56.7184 3.7694 56.2749 3.7694ZM1.55211 4.56763C1.55211 2.92683 2.88248 1.55211 4.56763 1.55211C6.20843 1.55211 7.5388 2.88248 7.5388 4.52328C7.5388 6.16408 6.20843 7.49446 4.56763 7.49446C2.88248 7.5388 1.55211 6.20843 1.55211 4.56763ZM55.5211 55.4324H5.4102V9.00222C7.27273 8.64745 8.6918 7.18404 9.04656 5.32151H55.5211V55.4324Z" fill="#202020"/>
</g>
<defs>
<clipPath id="clip0">
<rect width="120" height="120" fill="white"/>
</clipPath>
</defs>
</svg>
