<svg width="120" height="120" viewBox="0 0 120 120" fill="none" xmlns="http://www.w3.org/2000/svg">
<path d="M76.484 114.792H66.4484C66.0213 114.792 65.6797 115.134 65.6797 115.561C65.6797 115.988 66.0213 116.329 66.4484 116.329H76.484C76.911 116.329 77.2526 115.988 77.2526 115.561C77.2526 115.134 76.8683 114.792 76.484 114.792Z" fill="#C2C2C2"/>
<path d="M56.3702 114.792H46.3346C45.9076 114.792 45.5659 115.134 45.5659 115.561C45.5659 115.988 45.9076 116.329 46.3346 116.329H56.3702C56.7972 116.329 57.1389 115.988 57.1389 115.561C57.1389 115.134 56.7972 114.792 56.3702 114.792Z" fill="#C2C2C2"/>
<path d="M96.5977 114.792H86.5621C86.1351 114.792 85.7935 115.134 85.7935 115.561C85.7935 115.988 86.1351 116.329 86.5621 116.329H96.5977C97.0248 116.329 97.3664 115.988 97.3664 115.561C97.3664 115.134 96.9821 114.792 96.5977 114.792Z" fill="#C2C2C2"/>
<path d="M36.982 115.561C36.982 115.988 36.6404 116.329 36.2133 116.329H30.918C31.345 116.329 31.6867 115.988 31.6867 115.561V114.792H36.2988C36.6831 114.792 36.982 115.134 36.982 115.561Z" fill="#C2C2C2"/>
<path d="M36.9822 4.35462C36.9822 4.78167 36.6406 5.1233 36.2136 5.1233H31.6442V4.35462C31.6442 3.92757 31.3025 3.58594 30.8755 3.58594H36.2136C36.6833 3.62864 36.9822 3.97028 36.9822 4.35462Z" fill="#C2C2C2"/>
<path d="M76.484 3.62842H66.4484C66.0213 3.62842 65.6797 3.97006 65.6797 4.3971C65.6797 4.82415 66.0213 5.16579 66.4484 5.16579H76.484C76.911 5.16579 77.2526 4.82415 77.2526 4.3971C77.2526 3.97006 76.8683 3.62842 76.484 3.62842Z" fill="#C2C2C2"/>
<path d="M96.5977 3.62842H86.5621C86.1351 3.62842 85.7935 3.97006 85.7935 4.3971C85.7935 4.82415 86.1351 5.16579 86.5621 5.16579H96.5977C97.0248 5.16579 97.3664 4.82415 97.3664 4.3971C97.3664 3.97006 96.9821 3.62842 96.5977 3.62842Z" fill="#C2C2C2"/>
<path d="M56.3702 3.62842H46.3346C45.9076 3.62842 45.5659 3.97006 45.5659 4.3971C45.5659 4.82415 45.9076 5.16579 46.3346 5.16579H56.3702C56.7972 5.16579 57.1389 4.82415 57.1389 4.3971C57.1389 3.97006 56.7972 3.62842 56.3702 3.62842Z" fill="#C2C2C2"/>
<path d="M115.601 8.75115C115.345 8.75115 115.089 8.75115 114.833 8.70846V13.3616C114.833 13.7885 115.174 14.13 115.601 14.13C116.028 14.13 116.37 13.7885 116.37 13.3616V8.66577C116.114 8.70846 115.858 8.75115 115.601 8.75115ZM111.288 3.62842H106.633C106.206 3.62842 105.865 3.96993 105.865 4.39683C105.865 4.82372 106.206 5.16524 106.633 5.16524H111.288C111.246 4.9091 111.203 4.69565 111.203 4.39683C111.203 4.098 111.246 3.88455 111.288 3.62842Z" fill="#C2C2C2"/>
<path d="M116.37 65.1439C116.37 64.717 116.028 64.3755 115.601 64.3755C115.174 64.3755 114.833 64.717 114.833 65.1439V75.5174C114.833 75.9443 115.174 76.2858 115.601 76.2858C116.028 76.2858 116.37 75.9443 116.37 75.5174V65.1439Z" fill="#C2C2C2"/>
<path d="M116.37 44.4398C116.37 44.0129 116.028 43.6714 115.601 43.6714C115.174 43.6714 114.833 44.0129 114.833 44.4398V54.8133C114.833 55.2402 115.174 55.5817 115.601 55.5817C116.028 55.5817 116.37 55.2402 116.37 54.8133V44.4398Z" fill="#C2C2C2"/>
<path d="M115.601 85.1226C115.174 85.1226 114.833 85.4641 114.833 85.891V96.2645C114.833 96.6914 115.174 97.0329 115.601 97.0329C116.028 97.0329 116.37 96.6914 116.37 96.2645V85.891C116.37 85.4641 116.028 85.1226 115.601 85.1226Z" fill="#C2C2C2"/>
<path d="M116.37 23.6927C116.37 23.2658 116.028 22.9243 115.601 22.9243C115.174 22.9243 114.833 23.2658 114.833 23.6927V34.0663C114.833 34.4932 115.174 34.8347 115.601 34.8347C116.028 34.8347 116.37 34.4932 116.37 34.0663V23.6927Z" fill="#C2C2C2"/>
<path d="M111.288 114.792H106.633C106.206 114.792 105.865 115.133 105.865 115.56C105.865 115.987 106.206 116.329 106.633 116.329H111.288C111.246 116.073 111.203 115.859 111.203 115.56C111.203 115.304 111.246 115.048 111.288 114.792ZM115.601 105.827C115.174 105.827 114.833 106.169 114.833 106.596V111.249C115.089 111.206 115.345 111.163 115.601 111.163C115.858 111.163 116.114 111.206 116.37 111.249V106.596C116.327 106.169 116.028 105.827 115.601 105.827Z" fill="#C2C2C2"/>
<path d="M115.601 8.75133C113.167 8.75133 111.203 6.78762 111.203 4.35432C111.203 1.92102 113.167 0 115.601 0C118.035 0 120 1.96371 120 4.39701C120 6.83031 118.035 8.75133 115.601 8.75133ZM115.601 1.49413C114.021 1.49413 112.697 2.77481 112.697 4.39701C112.697 6.01921 113.978 7.29989 115.601 7.29989C117.224 7.29989 118.505 6.01921 118.505 4.39701C118.505 2.77481 117.181 1.49413 115.601 1.49413Z" fill="#202020"/>
<path d="M115.601 119.915C113.167 119.915 111.203 117.951 111.203 115.518C111.203 113.084 113.167 111.121 115.601 111.121C118.035 111.121 120 113.127 120 115.56C120 117.994 118.035 119.915 115.601 119.915ZM115.601 112.657C114.021 112.657 112.697 113.938 112.697 115.56C112.697 117.183 113.978 118.463 115.601 118.463C117.224 118.463 118.505 117.183 118.505 115.56C118.505 113.938 117.181 112.657 115.601 112.657Z" fill="#202020"/>
<path d="M31.6868 32.1878C31.6868 32.1878 31.6441 32.1878 31.6868 32.1878V18.3138V4.35432C31.6868 3.92743 31.3452 3.58591 30.9182 3.58591H8.66904C8.3274 1.57951 6.53381 0 4.39858 0C1.96441 0 0 1.96371 0 4.39701C0 6.57417 1.58007 8.36713 3.62989 8.70864V111.291C1.58007 111.633 0 113.426 0 115.603C0 118.036 1.96441 120 4.39858 120C6.57651 120 8.37011 118.42 8.71175 116.371H30.9609C31.3879 116.371 31.7295 116.03 31.7295 115.603V101.729V87.8549V73.9808V60.1067V46.2327L31.6868 32.1878C31.6441 32.1878 31.6868 32.1878 31.6868 32.1878ZM1.49466 4.39701C1.49466 2.8175 2.7758 1.49413 4.39858 1.49413C6.02135 1.49413 7.30249 2.77481 7.30249 4.39701C7.30249 5.97652 6.02135 7.2572 4.44128 7.2572C2.7758 7.2572 1.49466 5.97652 1.49466 4.39701ZM4.39858 118.463C2.81851 118.463 1.49466 117.183 1.49466 115.56C1.49466 113.938 2.7758 112.657 4.39858 112.657C6.02135 112.657 7.30249 113.938 7.30249 115.56C7.30249 117.183 5.97865 118.463 4.39858 118.463ZM30.1495 17.5454H17.637C17.21 17.5454 16.8683 17.8869 16.8683 18.3138C16.8683 18.7407 17.21 19.0822 17.637 19.0822H30.1495V31.5048H24.2989C23.8719 31.5048 23.5303 31.8463 23.5303 32.2732C23.5303 32.7001 23.8719 33.0416 24.2989 33.0416H30.1922V45.4642H17.637C17.21 45.4642 16.8683 45.8058 16.8683 46.2327C16.8683 46.6596 17.21 47.0011 17.637 47.0011H30.1495V59.4237H24.2562C23.8292 59.4237 23.4876 59.7652 23.4876 60.1921C23.4876 60.619 23.8292 60.9605 24.2562 60.9605H30.1495V73.3831H17.637C17.21 73.3831 16.8683 73.7246 16.8683 74.1515C16.8683 74.5784 17.21 74.92 17.637 74.92H30.1495V87.3426H24.2989C23.8719 87.3426 23.5303 87.6841 23.5303 88.111C23.5303 88.5379 23.8719 88.8794 24.2989 88.8794H30.1922V101.302H17.637C17.21 101.302 16.8683 101.644 16.8683 102.07C16.8683 102.497 17.21 102.839 17.637 102.839H30.1495V115.261H8.66904C8.37011 113.469 6.91815 112.017 5.12456 111.718V8.66595C6.91815 8.36713 8.37011 6.91569 8.66904 5.12273H30.1495V17.5454Z" fill="#202020"/>
<path d="M95.1886 43.2869V46.8728H93.6086V43.3295C90.5338 43.1588 87.6726 42.0489 86.1353 40.4694L87.0321 38.6764C88.484 40.0852 90.9609 41.1524 93.6086 41.2805V33.0841C90.1922 32.2303 86.6904 31.1631 86.6904 27.0649C86.6904 24.0766 88.8256 21.4726 93.6086 21.0884V17.5024H95.1886V21.0457C97.5374 21.131 99.8861 21.8141 101.509 22.9667L100.74 24.8023C98.9893 23.6924 96.9822 23.0948 95.1886 23.0094V31.2911C98.7331 32.1449 102.448 33.1268 102.448 37.3103C102.448 40.384 100.185 42.988 95.1886 43.2869ZM93.6513 30.9069V23.0948C90.4484 23.3936 88.9965 25.0158 88.9965 26.9795C88.9965 29.3701 91.089 30.2666 93.6513 30.9069ZM100.185 37.4811C100.185 35.0051 97.9217 34.1513 95.2313 33.511V41.3231C98.6477 41.067 100.185 39.4875 100.185 37.4811Z" fill="#202020"/>
</svg>
