<svg width="120" height="120" viewBox="0 0 120 120" fill="none" xmlns="http://www.w3.org/2000/svg">
<path d="M116.107 76.4136V9.33995C118.305 8.97367 120 7.05074 120 4.71576C120 2.10607 117.893 0 115.282 0C112.947 0 111.023 1.69401 110.656 3.89164H43.5115C43.145 1.73979 41.2214 0.0457841 38.8855 0.0457841C36.2748 0.0457841 34.1679 2.15185 34.1679 4.76154C34.1679 7.05074 35.8626 9.01946 38.0611 9.38573V42.1671C16.9924 42.625 0 59.9313 0 81.0836C0 102.556 17.4504 120 38.9313 120C60.0916 120 77.3588 103.014 77.8626 81.9535H110.656C111.069 84.1053 112.992 85.7535 115.282 85.7535C117.893 85.7535 120 83.6475 120 81.0378C120 78.7028 118.305 76.8256 116.107 76.4136ZM115.282 1.64823C116.977 1.64823 118.397 3.02175 118.397 4.76154C118.397 6.45555 117.023 7.87486 115.282 7.87486C113.542 7.87486 112.168 6.50134 112.168 4.76154C112.214 3.02175 113.588 1.64823 115.282 1.64823ZM35.8168 4.76154C35.8168 3.06753 37.1908 1.64823 38.9313 1.64823C40.626 1.64823 42.0458 3.02175 42.0458 4.76154C42.0458 6.45555 40.6718 7.87486 38.9313 7.87486C37.1908 7.82907 35.8168 6.45555 35.8168 4.76154ZM38.9771 118.352C18.4122 118.352 1.64885 101.595 1.64885 81.0378C1.64885 60.7554 17.9084 44.2274 38.1069 43.7238C38.3817 43.7238 38.7023 43.7238 38.9771 43.7238C39.2061 43.7238 39.4351 43.7238 39.7099 43.7238C59.7252 44.09 75.9389 60.2976 76.3053 80.3052C76.3053 80.5341 76.3053 80.8088 76.3053 81.0378C76.3053 81.3125 76.3053 81.633 76.3053 81.9077C75.8015 102.098 59.2672 118.352 38.9771 118.352ZM110.656 80.3052H77.9084C77.542 59.4277 60.5954 42.4876 39.7099 42.1213V9.33995C41.6794 9.01946 43.1908 7.4628 43.5115 5.53987H110.702C111.023 7.50858 112.58 9.01946 114.504 9.33995V76.4136C112.534 76.7799 110.977 78.3365 110.656 80.3052ZM115.282 84.1511C113.588 84.1511 112.168 82.7776 112.168 81.0378C112.168 79.298 113.542 77.9245 115.282 77.9245C117.023 77.9245 118.397 79.298 118.397 81.0378C118.397 82.7776 117.023 84.1511 115.282 84.1511Z" fill="#202020"/>
<path d="M77.9085 80.3052C77.5421 59.4277 60.5955 42.4876 39.7101 42.1213C39.481 42.1213 39.252 42.1213 38.9772 42.1213C38.7024 42.1213 38.3818 42.1213 38.107 42.1213V43.7238V76.5052C35.9085 76.8714 34.2139 78.7944 34.2139 81.1294C34.2139 83.739 36.3207 85.8451 38.9314 85.8451C41.2673 85.8451 43.191 84.1511 43.5574 81.9535H76.3513H77.9543C77.9543 81.6788 77.9543 81.3583 77.9543 81.0836C77.9085 80.8089 77.9085 80.5799 77.9085 80.3052ZM38.8856 84.1969C37.191 84.1969 35.7711 82.8234 35.7711 81.0836C35.7711 79.3438 37.1452 77.9702 38.8856 77.9702C40.5803 77.9702 41.9543 79.3438 41.9543 81.0378C41.9543 82.8234 40.5803 84.1969 38.8856 84.1969ZM43.5116 80.3052C43.191 78.3823 41.6337 76.8256 39.7101 76.5052V43.7238C59.7253 44.0901 75.9391 60.2976 76.3055 80.3052H43.5116Z" fill="#C2C2C2"/>
</svg>
