<svg width="898" height="371" viewBox="0 0 898 371" fill="none" xmlns="http://www.w3.org/2000/svg">
<g clip-path="url(#clip0)">
<path d="M211.57 338.91H207.49V369.77H211.57V338.91Z" fill="black"/>
<path d="M246.72 363.15L230.51 338.91H226.32V369.78H230.24V345.53L246.45 369.78H250.64V338.91H246.72V363.15Z" fill="black"/>
<path d="M262.77 342.56H272.94V369.78H277.03V342.56H287.24V338.91H262.77V342.56Z" fill="black"/>
<path d="M303.18 355.63H320.26V352.01H303.18V342.56H321.41V338.91H299.1V369.78H322.13V366.13H303.18V355.63Z" fill="black"/>
<path d="M353.86 357.27C353.3 356.76 352.48 356.25 351.4 355.73C354.36 355.32 356.55 354.37 357.97 352.87C359.39 351.37 360.1 349.52 360.1 347.33C360.1 345.63 359.67 344.08 358.82 342.68C357.96 341.28 356.82 340.3 355.39 339.74C353.96 339.19 351.87 338.91 349.12 338.91H335.44V369.77H339.52V356.06H344.26C345.31 356.06 346.07 356.11 346.53 356.21C347.16 356.36 347.78 356.64 348.39 357.03C349 357.42 349.69 358.11 350.47 359.09C351.24 360.07 352.22 361.49 353.42 363.34L357.5 369.76H362.64L357.27 361.36C356.19 359.74 355.06 358.37 353.86 357.27ZM348.29 352.54H339.51V342.33H349.28C351.57 342.33 353.24 342.8 354.3 343.74C355.36 344.68 355.89 345.88 355.89 347.34C355.89 348.34 355.62 349.26 355.07 350.11C354.52 350.96 353.72 351.58 352.67 351.96C351.61 352.34 350.15 352.54 348.29 352.54Z" fill="black"/>
<path d="M378.86 338.91H374.78V369.77H378.86V338.91Z" fill="black"/>
<path d="M414.9 340.41C412.61 339.05 410.04 338.37 407.2 338.37C402.85 338.37 399.3 339.82 396.55 342.72C393.8 345.62 392.42 349.63 392.42 354.75C392.42 357.46 393.01 360.03 394.19 362.46C395.37 364.89 397.1 366.8 399.39 368.21C401.68 369.61 404.28 370.31 407.18 370.31C409.86 370.31 412.36 369.67 414.67 368.41C416.98 367.14 418.77 365.27 420.04 362.8C421.3 360.33 421.93 357.53 421.93 354.4C421.93 351.31 421.33 348.55 420.13 346.12C418.93 343.67 417.18 341.77 414.9 340.41ZM414.74 363.57C412.75 365.73 410.22 366.81 407.15 366.81C404.13 366.81 401.62 365.74 399.62 363.6C397.62 361.46 396.62 358.53 396.62 354.81C396.62 350.16 397.66 346.85 399.75 344.86C401.83 342.87 404.32 341.88 407.21 341.88C409.24 341.88 411.08 342.4 412.71 343.43C414.35 344.46 415.59 345.91 416.44 347.79C417.29 349.66 417.71 351.86 417.71 354.37C417.72 358.34 416.72 361.41 414.74 363.57Z" fill="black"/>
<path d="M453.28 357.27C452.72 356.76 451.9 356.25 450.82 355.73C453.78 355.32 455.97 354.37 457.39 352.87C458.81 351.37 459.52 349.52 459.52 347.33C459.52 345.63 459.09 344.08 458.24 342.68C457.38 341.28 456.24 340.3 454.81 339.74C453.38 339.19 451.29 338.91 448.54 338.91H434.86V369.77H438.94V356.06H443.68C444.73 356.06 445.49 356.11 445.95 356.21C446.58 356.36 447.2 356.64 447.81 357.03C448.42 357.42 449.11 358.11 449.89 359.09C450.66 360.07 451.64 361.49 452.84 363.34L456.92 369.76H462.06L456.69 361.36C455.61 359.74 454.48 358.37 453.28 357.27ZM447.71 352.54H438.93V342.33H448.7C450.99 342.33 452.66 342.8 453.72 343.74C454.78 344.68 455.31 345.88 455.31 347.34C455.31 348.34 455.04 349.26 454.49 350.11C453.94 350.96 453.14 351.58 452.09 351.96C451.03 352.34 449.57 352.54 447.71 352.54Z" fill="black"/>
<path d="M513.73 341.57C512.48 340.5 510.97 339.77 509.2 339.36C507.94 339.07 506.11 338.92 503.71 338.92H493.08V369.78H504.22C506.09 369.78 507.74 369.6 509.18 369.25C510.62 368.9 511.85 368.38 512.86 367.7C513.88 367.02 514.81 366.09 515.67 364.9C516.52 363.71 517.23 362.22 517.77 360.41C518.32 358.6 518.59 356.52 518.59 354.18C518.59 351.43 518.19 348.98 517.38 346.84C516.57 344.7 515.35 342.94 513.73 341.57ZM513.57 360.06C513.03 361.7 512.28 363 511.31 363.97C510.62 364.66 509.7 365.19 508.54 365.57C507.38 365.95 505.79 366.14 503.75 366.14H497.16V342.56H503.64C506.07 342.56 507.83 342.77 508.92 343.19C510.43 343.78 511.72 344.94 512.78 346.67C513.84 348.4 514.37 350.88 514.37 354.11C514.38 356.44 514.11 358.43 513.57 360.06Z" fill="black"/>
<path d="M535.97 355.63H553.04V352.01H535.97V342.56H554.2V338.91H531.88V369.78H554.91V366.13H535.97V355.63Z" fill="black"/>
<path d="M586.06 353.53C584.82 352.97 582.549 352.31 579.229 351.56C575.909 350.81 573.86 350.08 573.07 349.36C572.27 348.64 571.87 347.73 571.87 346.62C571.87 345.34 572.44 344.25 573.56 343.35C574.69 342.44 576.49 341.99 578.96 341.99C581.33 341.99 583.12 342.49 584.34 343.48C585.56 344.48 586.269 345.95 586.479 347.9L590.4 347.6C590.33 345.79 589.82 344.17 588.89 342.74C587.95 341.31 586.599 340.23 584.859 339.49C583.109 338.75 581.1 338.38 578.81 338.38C576.73 338.38 574.85 338.73 573.15 339.43C571.45 340.13 570.16 341.16 569.28 342.51C568.4 343.86 567.95 345.32 567.95 346.88C567.95 348.3 568.31 349.58 569.03 350.72C569.75 351.86 570.85 352.82 572.33 353.59C573.47 354.19 575.449 354.84 578.289 355.52C581.119 356.2 582.96 356.7 583.78 357.02C585.07 357.51 586 358.12 586.56 358.84C587.12 359.56 587.4 360.41 587.4 361.38C587.4 362.33 587.11 363.22 586.53 364.02C585.95 364.83 585.06 365.46 583.87 365.93C582.68 366.4 581.3 366.62 579.74 366.62C577.98 366.62 576.41 366.31 575 365.7C573.6 365.09 572.56 364.29 571.89 363.3C571.22 362.31 570.8 361.04 570.62 359.5L566.77 359.84C566.83 361.9 567.39 363.75 568.46 365.39C569.53 367.03 571.01 368.25 572.9 369.06C574.79 369.87 577.129 370.28 579.919 370.28C582.119 370.28 584.11 369.88 585.87 369.07C587.63 368.26 588.979 367.13 589.919 365.68C590.859 364.23 591.33 362.68 591.33 361.04C591.33 359.38 590.899 357.92 590.049 356.65C589.179 355.4 587.86 354.35 586.06 353.53Z" fill="black"/>
<path d="M609.27 338.91H605.19V369.77H609.27V338.91Z" fill="black"/>
<path d="M638.5 357.67H647.57V363.42C646.7 364.19 645.42 364.92 643.74 365.6C642.06 366.28 640.33 366.62 638.56 366.62C636.52 366.62 634.6 366.17 632.79 365.27C630.98 364.37 629.6 363 628.65 361.14C627.7 359.29 627.23 356.99 627.23 354.23C627.23 352 627.62 349.93 628.41 348.02C628.87 346.91 629.52 345.89 630.36 344.97C631.19 344.04 632.29 343.3 633.66 342.73C635.02 342.16 636.63 341.88 638.5 341.88C640.06 341.88 641.47 342.15 642.75 342.69C644.03 343.23 645.01 343.95 645.7 344.85C646.39 345.75 646.96 346.98 647.43 348.55L651.11 347.54C650.58 345.46 649.8 343.78 648.77 342.49C647.75 341.2 646.33 340.19 644.53 339.47C642.73 338.75 640.71 338.39 638.48 338.39C635.41 338.39 632.69 339.02 630.33 340.28C627.97 341.54 626.17 343.48 624.91 346.08C623.65 348.68 623.03 351.49 623.03 354.49C623.03 357.52 623.66 360.27 624.92 362.72C626.18 365.18 628.05 367.05 630.53 368.35C633.01 369.65 635.76 370.3 638.79 370.3C641.04 370.3 643.22 369.9 645.36 369.09C647.49 368.28 649.56 367.08 651.57 365.48V354.03L638.5 354.05V357.67V357.67Z" fill="black"/>
<path d="M685.54 363.15L669.33 338.91H665.14V369.78H669.06V345.53L685.27 369.78H689.46V338.91H685.54V363.15Z" fill="black"/>
<path d="M403.55 112.3C404.09 114.39 405.19 118.79 406.82 125.49C408.45 132.2 409.63 137.81 410.36 142.34C412.17 152.62 413.76 161.41 415.13 168.73C416.49 176.04 417.99 182.66 419.62 188.58C420.16 189.97 421.16 191.58 422.61 193.41C424.06 195.24 425.69 196.15 427.51 196.15C429.51 196.15 431.23 195.54 432.68 194.32C434.13 193.1 434.86 191.62 434.86 189.88C434.86 189.18 434.4 186.83 433.5 182.83C430.05 170.47 426.69 155.49 423.43 137.9C421.98 130.24 420.62 124.23 419.35 119.87C419.35 120.05 418.62 116.82 417.17 110.2C418.62 110.03 421.34 109.55 425.34 108.76C429.33 107.98 431.96 107.06 433.23 106.02C434.32 105.33 435.18 104.28 435.82 102.88C436.45 101.49 436.77 100.18 436.77 98.96C436.77 95.65 435.59 93.47 433.23 92.43C432.14 91.91 431.14 91.87 430.24 92.3C429.33 92.74 428.33 93.39 427.24 94.26C426.15 95.13 425.15 95.74 424.24 96.09C423.7 96.26 422.47 96.66 420.57 97.27C418.66 97.88 416.35 98.36 413.63 98.71C412.54 95.05 410.18 87.52 406.55 76.11C402.92 64.7 399.92 56.13 397.56 50.38C393.57 40.63 389.43 32.18 385.17 25.04C380.9 17.9 377.14 14.33 373.87 14.33C372.24 14.33 370.92 14.55 369.92 14.98C368.92 15.42 368.02 16.2 367.2 17.33C366.38 18.47 365.79 19.2 365.43 19.55C362.52 18.51 359.26 17.98 355.63 17.98C354.18 17.98 353.04 18.68 352.23 20.07C351.41 21.46 350.55 23.38 349.64 25.82C348.55 29.13 344.55 42.45 337.66 65.79L333.58 79.11C332.12 84.16 330.81 88.38 329.63 91.78C328.45 95.18 327.49 98.01 326.77 100.27C325.86 103.76 324.5 108.02 322.69 113.07C319.78 113.59 314.48 114.64 306.76 116.21C299.04 117.78 291.74 119.35 284.84 120.91C282.29 121.61 280.48 122.35 279.39 123.13C278.3 123.91 277.76 125.35 277.76 127.44C277.76 129.18 278.26 130.79 279.26 132.27C280.26 133.75 281.75 134.49 283.75 134.49C285.39 134.49 289.65 133.62 296.55 131.88C301.09 130.66 307.98 129.01 317.24 126.92C315.97 130.06 313.47 136.46 309.75 146.12C306.03 155.79 302.98 164.02 300.63 170.81C298.45 177.08 297 181.08 296.27 182.83C295.9 184.05 294.64 187.75 292.46 193.93C290.28 200.11 289.19 204.16 289.19 206.08C289.19 207.99 289.87 209.48 291.23 210.52C292.59 211.56 294.27 212.09 296.27 212.09C298.63 212.09 300.63 211.26 302.26 209.61C303.9 207.95 304.98 205.91 305.53 203.47C308.25 193.19 312.79 178.57 319.14 159.58L326.76 138.68L332.48 123.27L348.27 120.66C374.41 116.48 392.83 113.7 403.55 112.3ZM356.44 48.82C358.25 43.42 360.89 37.41 364.34 30.79L367.34 24C370.06 25.74 373.42 30.01 377.41 36.8C381.4 43.59 384.67 50.21 387.21 56.65C389.75 62.92 392.47 71.06 395.38 81.08C398.28 91.1 400.19 97.67 401.1 100.8L393.75 101.85L367.61 105.77L335.75 111C345.18 82.09 352.09 61.36 356.44 48.82Z" fill="black"/>
<path d="M605.04 153.19C595.6 149.97 580.99 145.48 561.2 139.74L555.48 138.17C536.42 132.77 517.09 127.98 497.48 123.8C497.3 123.28 497.21 122.49 497.21 121.45C498.84 120.76 501.97 119.54 506.6 117.79C511.23 116.05 515.9 114.13 520.62 112.04C539.14 104.73 553.79 98.19 564.59 92.45C575.39 86.7 584.06 79.91 590.6 72.07C597.13 64.23 600.4 54.83 600.4 43.86C600.4 35.33 597.27 27.75 591.01 21.13C584.75 14.51 575.49 9.36998 563.24 5.71998C550.99 2.05998 536.15 0.22998 518.72 0.22998C508.55 0.22998 497.57 0.79998 485.77 1.92998C473.97 3.06998 464.26 4.40998 456.64 5.97998C443.03 8.76998 430.41 12.34 418.79 16.69C407.18 21.05 401.37 24.88 401.37 28.18C401.37 30.1 401.91 31.71 403 33.01C404.09 34.32 405.36 34.97 406.81 34.97C408.26 34.97 409.76 34.67 411.3 34.06C412.84 33.45 414.43 32.62 416.07 31.58C421.7 28.62 427.55 25.96 433.63 23.61C439.72 21.26 448.56 18.78 460.18 16.16C463.45 15.47 467.8 14.77 473.25 14.07C478.7 13.38 481.96 12.94 483.05 12.76C483.05 14.33 482.96 17.46 482.78 22.16C482.6 26.86 482.51 32 482.51 37.57C482.51 43.84 483.06 68.75 484.15 112.28C482.69 113.15 481.6 113.94 480.88 114.63C480.15 115.33 479.79 116.29 479.79 117.5C479.79 118.37 479.97 119.68 480.33 121.42C480.69 123.16 481.15 124.82 481.69 126.38C482.23 127.6 482.92 128.56 483.73 129.25C484.55 129.95 485.23 130.56 485.77 131.08C485.77 133.69 485.86 136.7 486.04 140.09C486.22 143.49 486.4 147.01 486.58 150.67C487.3 161.47 487.67 168.52 487.67 171.83C487.67 176.88 487.89 180.8 488.35 183.59C488.8 186.37 489.03 187.94 489.03 188.29C489.75 191.95 491.48 193.77 494.2 193.77C496.38 193.77 498.46 193.12 500.46 191.81C502.46 190.5 503.46 188.89 503.46 186.98C503.46 186.11 502.92 184.06 501.82 180.84C500.73 177.62 500.09 173.66 499.92 168.95L498.02 135.25C504.37 136.65 513.13 138.78 524.29 141.65C535.45 144.52 545.12 147.27 553.29 149.88C571.81 155.98 586.78 162.25 598.22 168.69C601.49 170.43 603.94 171.61 605.57 172.22C607.2 172.83 608.93 173.13 610.74 173.13C612.74 173.13 614.64 171.65 616.46 168.69C618.27 165.73 619.18 163.2 619.18 161.11C619.2 159.06 614.48 156.41 605.04 153.19ZM495.31 75.99L494.22 34.19C494.22 29.66 494.36 25.14 494.63 20.6C494.9 16.07 495.13 13.2 495.31 11.98C498.21 11.63 505.29 11.46 516.55 11.46C531.61 11.46 544.46 12.99 555.08 16.03C565.7 19.08 573.64 23.04 578.91 27.92C584.17 32.8 586.81 38.11 586.81 43.86C586.81 55.53 581.14 65.85 569.79 74.82C558.44 83.79 541.24 92.71 518.19 101.6C514.92 103 510.88 104.43 506.07 105.91C501.26 107.39 498.04 108.22 496.4 108.39L495.31 75.99Z" fill="black"/>
<path d="M896.95 352.27H704.97V355.9H896.95V352.27Z" fill="black"/>
<path d="M191.98 352.35H0V355.98H191.98V352.35Z" fill="black"/>
<path d="M15.75 275.42H41.13L50.4 294.8H56.76L29.29 235.89H27.85L0 294.8H6.57L15.75 275.42ZM28.53 248.41L38.58 269.74H18.44L28.53 248.41Z" fill="black"/>
<path d="M88.4201 250.19L127.31 294.8H128.63V235.89H122.82V281.05L83.6101 235.89H82.3301V294.8H88.4201V250.19Z" fill="black"/>
<path d="M199.91 281.05L160.69 235.89H159.41V294.8H165.5V250.19L204.39 294.8H205.71V235.89H199.91V281.05Z" fill="black"/>
<path d="M259.08 235.89L231.24 294.8H237.81L246.99 275.42H272.37L281.64 294.8H288L260.52 235.89H259.08V235.89ZM249.69 269.73L259.79 248.4L269.84 269.73H249.69Z" fill="black"/>
<path d="M380.2 265.54C383 264.3 385.16 262.46 386.67 260.03C388.18 257.6 388.93 254.78 388.93 251.57C388.93 247.72 387.83 244.48 385.64 241.85C383.45 239.22 380.61 237.5 377.11 236.7C374.79 236.17 370.35 235.9 363.81 235.9H352.08V294.81H357.97V267.45H361.3L382.49 294.81H389.77L368.58 267.45C373.53 267.42 377.4 266.79 380.2 265.54ZM357.97 261.68V241.65H368.36C372.4 241.65 375.29 242 377.03 242.69C378.77 243.38 380.17 244.54 381.24 246.15C382.31 247.76 382.84 249.56 382.84 251.54C382.84 253.57 382.31 255.41 381.26 257.05C380.2 258.69 378.73 259.89 376.85 260.63C374.97 261.38 372.06 261.75 368.13 261.75L357.97 261.68Z" fill="black"/>
<path d="M440.58 235.89L412.74 294.8H419.31L428.49 275.42H453.87L463.14 294.8H469.5L442.03 235.89H440.58V235.89ZM431.18 269.73L441.28 248.4L451.33 269.73H431.18Z" fill="black"/>
<path d="M492.76 235.89V241.58H514.94L490.11 294.8H522.59V289.04H499.22L523.83 235.89H492.76Z" fill="black"/>
<path d="M582.31 291.2C585.39 288.8 587.45 285.97 588.48 282.73C589.51 279.49 590.02 275.24 590.02 269.97V235.89H584.13V269.97C584.13 274.62 583.93 277.69 583.53 279.18C582.97 281.26 582.09 283.04 580.89 284.51C579.69 285.98 578.19 287.13 576.4 287.95C574.61 288.77 572.74 289.19 570.79 289.19C568.55 289.19 566.32 288.66 564.1 287.61C561.88 286.56 560.24 285.25 559.17 283.69C558.1 282.13 557.42 280.18 557.13 277.86C556.97 276.82 556.89 274.19 556.89 269.97V235.89H551V269.97C551 275.95 551.36 280.09 552.08 282.39C553.23 286.13 555.5 289.13 558.89 291.4C562.28 293.67 566.35 294.8 571.11 294.8C575.5 294.8 579.23 293.6 582.31 291.2Z" fill="black"/>
<path d="M649.8 294.8H651.3L672.13 252.67L677.95 294.8H683.73L675.25 235.89H674.31L650.59 284.23L626.64 235.89H625.68L617.24 294.8H622.93L628.72 252.35L649.8 294.8Z" fill="black"/>
<path d="M733.24 294.8C741.46 294.8 748.42 291.94 754.13 286.22C759.84 280.5 762.7 273.53 762.7 265.32C762.7 257.03 759.84 250.05 754.12 244.39C748.4 238.72 741.29 235.89 732.79 235.89C727.55 235.89 722.68 237.19 718.17 239.8C713.67 242.41 710.11 246.01 707.51 250.61C704.9 255.21 703.6 260.21 703.6 265.6C703.6 273.68 706.46 280.57 712.18 286.27C717.9 291.96 724.92 294.8 733.24 294.8ZM712.52 253.33C714.61 249.67 717.51 246.75 721.23 244.59C724.95 242.43 728.88 241.35 733.03 241.35C737.26 241.35 741.25 242.43 745.02 244.59C748.79 246.75 751.71 249.63 753.78 253.23C755.86 256.83 756.89 260.86 756.89 265.31C756.89 269.79 755.85 273.86 753.78 277.52C751.71 281.18 748.81 284.07 745.11 286.18C741.41 288.29 737.38 289.35 733.02 289.35C726.5 289.35 720.93 287.05 716.31 282.46C711.69 277.87 709.38 272.24 709.38 265.57C709.39 261.07 710.43 256.99 712.52 253.33Z" fill="black"/>
<path d="M805.47 294.8L831.11 235.89H824.7L804.85 281.41L785.33 235.89H778.92L804.19 294.8H805.47Z" fill="black"/>
<path d="M855.94 275.42H881.32L890.59 294.8H896.95L869.48 235.89H868.04L840.2 294.8H846.77L855.94 275.42ZM868.73 248.41L878.78 269.74H858.64L868.73 248.41Z" fill="black"/>
</g>
<defs>
<clipPath id="clip0">
<rect width="897.47" height="370.3" fill="white"/>
</clipPath>
</defs>
</svg>
