<svg width="55" height="55" viewBox="0 0 55 55" fill="none" xmlns="http://www.w3.org/2000/svg">
<path d="M20.5792 28.5112C20.6631 28.8358 20.8339 29.5192 21.0871 30.5599C21.3403 31.6021 21.5236 32.4735 21.637 33.1771C21.9181 34.7738 22.1651 36.1391 22.3779 37.2761C22.5891 38.4115 22.8221 39.4398 23.0753 40.3593C23.1591 40.5752 23.3145 40.8252 23.5397 41.1095C23.7649 41.3937 24.0181 41.5351 24.3008 41.5351C24.6114 41.5351 24.8786 41.4403 25.1038 41.2508C25.329 41.0613 25.4424 40.8315 25.4424 40.5612C25.4424 40.4525 25.371 40.0875 25.2312 39.4662C24.6953 37.5464 24.1734 35.2196 23.6671 32.4874C23.4418 31.2977 23.2306 30.3642 23.0333 29.687C23.0333 29.7149 22.92 29.2132 22.6947 28.185C22.92 28.1586 23.3424 28.084 23.9637 27.9613C24.5835 27.8402 24.992 27.6973 25.1892 27.5357C25.3585 27.4285 25.4921 27.2655 25.5915 27.048C25.6894 26.8321 25.7391 26.6286 25.7391 26.4391C25.7391 25.925 25.5558 25.5864 25.1892 25.4249C25.0199 25.3441 24.8646 25.3379 24.7248 25.4047C24.5835 25.473 24.4281 25.574 24.2588 25.7091C24.0895 25.8442 23.9342 25.939 23.7929 25.9934C23.709 26.0198 23.5179 26.0819 23.2228 26.1766C22.9262 26.2714 22.5674 26.3459 22.1449 26.4003C21.9756 25.8318 21.609 24.6622 21.0452 22.89C20.4814 21.1177 20.0154 19.7866 19.6488 18.8935C19.0291 17.3791 18.386 16.0666 17.7244 14.9576C17.0611 13.8486 16.4771 13.2941 15.9692 13.2941C15.716 13.2941 15.511 13.3282 15.3557 13.395C15.2003 13.4634 15.0606 13.5845 14.9332 13.76C14.8058 13.9371 14.7142 14.0505 14.6583 14.1049C14.2063 13.9433 13.6999 13.861 13.1361 13.861C12.9109 13.861 12.7338 13.9697 12.608 14.1856C12.4806 14.4015 12.347 14.6997 12.2057 15.0787C12.0364 15.5929 11.4151 17.6618 10.3449 21.287L9.7112 23.356C9.48442 24.1403 9.28095 24.7958 9.09767 25.3239C8.91439 25.852 8.76527 26.2916 8.65344 26.6426C8.5121 27.1847 8.30086 27.8464 8.01972 28.6308C7.56773 28.7115 6.74451 28.8746 5.54541 29.1185C4.34631 29.3623 3.21244 29.6062 2.14071 29.8485C1.74463 29.9572 1.4635 30.0722 1.29419 30.1933C1.12489 30.3145 1.04102 30.5381 1.04102 30.8628C1.04102 31.133 1.11868 31.3831 1.274 31.613C1.42933 31.8429 1.66076 31.9578 1.9714 31.9578C2.22614 31.9578 2.88781 31.8227 3.95955 31.5524C4.66472 31.3629 5.7349 31.1066 7.1732 30.782C6.97594 31.2697 6.58763 32.2638 6.00983 33.7642C5.43202 35.2662 4.95829 36.5445 4.59327 37.5992C4.25467 38.573 4.02945 39.1943 3.91606 39.4662C3.85859 39.6557 3.66288 40.2303 3.32428 41.1903C2.98567 42.1502 2.81637 42.7792 2.81637 43.0774C2.81637 43.3741 2.92199 43.6055 3.13323 43.7671C3.34447 43.9286 3.60541 44.0109 3.91606 44.0109C4.28262 44.0109 4.59327 43.882 4.84645 43.6257C5.10118 43.3679 5.26893 43.051 5.35436 42.672C5.77684 41.0753 6.48202 38.8045 7.46832 35.8549L8.65189 32.6086L9.54034 30.2151L11.9929 29.8097C16.0531 29.1604 18.9141 28.7286 20.5792 28.5112ZM13.2619 18.6512C13.543 17.8124 13.9531 16.8789 14.489 15.8507L14.9549 14.7961C15.3774 15.0663 15.8993 15.7295 16.519 16.7842C17.1388 17.8388 17.6467 18.8671 18.0412 19.8674C18.4357 20.8413 18.8582 22.1056 19.3102 23.6619C19.7607 25.2183 20.0573 26.2388 20.1987 26.7249L19.057 26.888L14.9969 27.4969L10.0483 28.3092C11.513 23.8188 12.5862 20.599 13.2619 18.6512Z" fill="white"/>
<path d="M51.8751 34.8624C50.4088 34.3622 48.1395 33.6648 45.0657 32.7732L44.1772 32.5294C41.2167 31.6906 38.2143 30.9466 35.1684 30.2974C35.1405 30.2166 35.1265 30.0939 35.1265 29.9324C35.3797 29.8252 35.8658 29.6357 36.585 29.3639C37.3041 29.0936 38.0295 28.7954 38.7626 28.4708C41.6392 27.3354 43.9147 26.3195 45.5922 25.428C47.2697 24.5349 48.6164 23.4802 49.6322 22.2625C50.6464 21.0447 51.1544 19.5847 51.1544 17.8808C51.1544 16.5559 50.6682 15.3785 49.6959 14.3503C48.7235 13.322 47.2852 12.5237 45.3825 11.9567C43.4798 11.3882 41.1748 11.104 38.4675 11.104C36.8878 11.104 35.1824 11.1925 33.3496 11.3681C31.5168 11.5451 30.0086 11.7533 28.825 11.9971C26.711 12.4305 24.7508 12.985 22.946 13.6606C21.1427 14.3378 20.2402 14.9327 20.2402 15.4453C20.2402 15.7435 20.3241 15.9936 20.4934 16.1955C20.6627 16.399 20.86 16.5 21.0852 16.5C21.3104 16.5 21.5434 16.4534 21.7826 16.3586C22.0218 16.2639 22.2688 16.1349 22.5235 15.9734C23.398 15.5136 24.3066 15.1005 25.251 14.7355C26.1969 14.3705 27.57 13.9853 29.3748 13.5783C29.8827 13.4711 30.5584 13.3624 31.4049 13.2537C32.2514 13.1465 32.7578 13.0782 32.9271 13.0502C32.9271 13.2941 32.9131 13.7802 32.8852 14.5103C32.8572 15.2403 32.8432 16.0386 32.8432 16.9038C32.8432 17.8777 32.9286 21.7468 33.0979 28.508C32.8712 28.6432 32.7019 28.7659 32.59 28.8731C32.4767 28.9818 32.4207 29.1309 32.4207 29.3188C32.4207 29.454 32.4487 29.6574 32.5046 29.9277C32.5605 30.198 32.632 30.4558 32.7159 30.6981C32.7997 30.8876 32.9069 31.0367 33.0327 31.1439C33.1601 31.2526 33.2657 31.3474 33.3496 31.4281C33.3496 31.8335 33.3636 32.3011 33.3915 32.8276C33.4195 33.3557 33.4474 33.9025 33.4754 34.4709C33.5872 36.1484 33.6447 37.2435 33.6447 37.7576C33.6447 38.542 33.6789 39.1508 33.7503 39.5842C33.8202 40.016 33.8559 40.2599 33.8559 40.3142C33.9678 40.8827 34.2365 41.1654 34.659 41.1654C34.9976 41.1654 35.3206 41.0644 35.6313 40.861C35.9419 40.6575 36.0973 40.4074 36.0973 40.1107C36.0973 39.9756 36.0134 39.6572 35.8425 39.1571C35.6732 38.6569 35.5738 38.0418 35.5474 37.3103L35.2523 32.0758C36.2386 32.2933 37.5992 32.6241 39.3326 33.0699C41.0661 33.5157 42.568 33.9428 43.837 34.3482C46.7136 35.2957 49.0388 36.2696 50.8157 37.2699C51.3237 37.5401 51.7042 37.7234 51.9574 37.8182C52.2106 37.9129 52.4793 37.9595 52.7604 37.9595C53.0711 37.9595 53.3662 37.7296 53.6489 37.2699C53.93 36.8101 54.0713 36.4171 54.0713 36.0925C54.0744 35.7741 53.3413 35.3625 51.8751 34.8624ZM34.8314 22.8713L34.6621 16.3788C34.6621 15.6752 34.6838 14.9731 34.7257 14.268C34.7677 13.5643 34.8034 13.1186 34.8314 12.9291C35.2818 12.8747 36.3815 12.8483 38.1304 12.8483C40.4696 12.8483 42.4655 13.0859 44.1151 13.5581C45.7646 14.0319 46.9979 14.6469 47.8164 15.4049C48.6334 16.1629 49.0435 16.9877 49.0435 17.8808C49.0435 19.6934 48.1628 21.2964 46.3999 22.6896C44.637 24.0829 41.9654 25.4684 38.3852 26.8492C37.8773 27.0666 37.2498 27.2888 36.5027 27.5186C35.7555 27.7485 35.2554 27.8774 35.0007 27.9038L34.8314 22.8713Z" fill="white"/>
</svg>
