<svg  fill="none" xmlns="http://www.w3.org/2000/svg">
<g clip-path="url(#clip0)" id="first">
<path d="M28.2721 45.1814H27.7269V49.2955H28.2721V45.1814Z" fill="black"/>
<path d="M32.9693 48.4129L30.8031 45.1814H30.2432V49.2968H30.7671V46.0639L32.9332 49.2968H33.4931V45.1814H32.9693V48.4129Z" fill="black"/>
<path d="M35.114 45.668H36.473V49.2968H37.0196V45.668H38.3839V45.1814H35.114V45.668Z" fill="black"/>
<path d="M40.514 47.4104H42.7964V46.9278H40.514V45.668H42.9501V45.1814H39.9688V49.2968H43.0463V48.8102H40.514V47.4104Z" fill="black"/>
<path d="M47.2864 47.629C47.2116 47.561 47.102 47.4931 46.9577 47.4237C47.3532 47.3691 47.6459 47.2424 47.8356 47.0425C48.0254 46.8425 48.1203 46.5959 48.1203 46.3039C48.1203 46.0773 48.0628 45.8706 47.9492 45.684C47.8343 45.4973 47.682 45.3667 47.4909 45.292C47.2998 45.2187 47.0205 45.1814 46.653 45.1814H44.825V49.2955H45.3702V47.4677H46.0036C46.1439 47.4677 46.2454 47.4744 46.3069 47.4877C46.3911 47.5077 46.4739 47.5451 46.5555 47.597C46.637 47.649 46.7292 47.741 46.8334 47.8717C46.9363 48.0023 47.0673 48.1916 47.2276 48.4383L47.7728 49.2941H48.4597L47.7421 48.1743C47.5978 47.9583 47.4468 47.7757 47.2864 47.629ZM46.5421 46.9985H45.3688V45.6373H46.6744C46.9804 45.6373 47.2036 45.7 47.3452 45.8253C47.4869 45.9506 47.5577 46.1106 47.5577 46.3052C47.5577 46.4385 47.5216 46.5612 47.4481 46.6745C47.3746 46.7878 47.2677 46.8705 47.1274 46.9211C46.9858 46.9718 46.7907 46.9985 46.5421 46.9985Z" fill="black"/>
<path d="M50.6272 45.1814H50.082V49.2955H50.6272V45.1814Z" fill="black"/>
<path d="M55.4432 45.3813C55.1372 45.2 54.7938 45.1094 54.4143 45.1094C53.833 45.1094 53.3586 45.3027 52.9911 45.6893C52.6236 46.0759 52.4392 46.6105 52.4392 47.2931C52.4392 47.6543 52.518 47.997 52.6757 48.3209C52.8334 48.6449 53.0646 48.8995 53.3706 49.0875C53.6766 49.2741 54.0241 49.3674 54.4116 49.3674C54.7697 49.3674 55.1038 49.2821 55.4125 49.1141C55.7212 48.9448 55.9604 48.6955 56.1301 48.3662C56.2984 48.0369 56.3826 47.6637 56.3826 47.2464C56.3826 46.8345 56.3025 46.4665 56.1421 46.1426C55.9817 45.8159 55.7479 45.5626 55.4432 45.3813ZM55.4218 48.4689C55.1559 48.7568 54.8178 48.9008 54.4076 48.9008C54.004 48.9008 53.6686 48.7582 53.4013 48.4729C53.1341 48.1876 53.0005 47.797 53.0005 47.3011C53.0005 46.6811 53.1394 46.2399 53.4187 45.9746C53.6967 45.7093 54.0294 45.5773 54.4156 45.5773C54.6869 45.5773 54.9327 45.6466 55.1506 45.7839C55.3697 45.9213 55.5354 46.1146 55.649 46.3652C55.7626 46.6145 55.8187 46.9078 55.8187 47.2424C55.82 47.7717 55.6864 48.1809 55.4218 48.4689Z" fill="black"/>
<path d="M60.5719 47.629C60.4971 47.561 60.3875 47.4931 60.2432 47.4237C60.6388 47.3691 60.9314 47.2424 61.1212 47.0425C61.3109 46.8425 61.4058 46.5959 61.4058 46.3039C61.4058 46.0773 61.3483 45.8706 61.2347 45.684C61.1198 45.4973 60.9675 45.3667 60.7764 45.292C60.5853 45.2187 60.306 45.1814 59.9385 45.1814H58.1105V49.2955H58.6557V47.4677H59.2891C59.4294 47.4677 59.531 47.4744 59.5924 47.4877C59.6766 47.5077 59.7595 47.5451 59.841 47.597C59.9225 47.649 60.0147 47.741 60.1189 47.8717C60.2218 48.0023 60.3528 48.1916 60.5131 48.4383L61.0584 49.2941H61.7452L61.0276 48.1743C60.8833 47.9583 60.7323 47.7757 60.5719 47.629ZM59.8276 46.9985H58.6543V45.6373H59.9599C60.2659 45.6373 60.4891 45.7 60.6307 45.8253C60.7724 45.9506 60.8432 46.1106 60.8432 46.3052C60.8432 46.4385 60.8071 46.5612 60.7336 46.6745C60.6601 46.7878 60.5532 46.8705 60.4129 46.9211C60.2713 46.9718 60.0762 46.9985 59.8276 46.9985Z" fill="black"/>
<path d="M68.6499 45.5361C68.4829 45.3935 68.2811 45.2962 68.0446 45.2415C67.8762 45.2029 67.6316 45.1829 67.3109 45.1829H65.8904V49.2969H67.3791C67.629 49.2969 67.8495 49.2729 68.0419 49.2263C68.2343 49.1796 68.3987 49.1103 68.5336 49.0196C68.6699 48.929 68.7942 48.805 68.9091 48.6463C69.0227 48.4877 69.1176 48.2891 69.1898 48.0478C69.2633 47.8065 69.2993 47.5292 69.2993 47.2172C69.2993 46.8506 69.2459 46.524 69.1376 46.2387C69.0294 45.9534 68.8664 45.7188 68.6499 45.5361ZM68.6285 48.0011C68.5564 48.2197 68.4561 48.3931 68.3265 48.5224C68.2343 48.6144 68.1114 48.685 67.9564 48.7357C67.8013 48.7863 67.5889 48.8117 67.3163 48.8117H66.4357V45.6681H67.3016C67.6263 45.6681 67.8615 45.6961 68.0071 45.7521C68.2089 45.8308 68.3813 45.9854 68.523 46.216C68.6646 46.4467 68.7354 46.7773 68.7354 47.2079C68.7368 47.5185 68.7007 47.7838 68.6285 48.0011Z" fill="black"/>
<path d="M71.6218 47.4104H73.9029V46.9278H71.6218V45.668H74.0579V45.1814H71.0753V49.2968H74.1528V48.8102H71.6218V47.4104Z" fill="black"/>
<path d="M78.3154 47.1305C78.1497 47.0559 77.8462 46.9679 77.4026 46.8679C76.9589 46.7679 76.6851 46.6706 76.5795 46.5746C76.4726 46.4786 76.4192 46.3573 76.4192 46.2093C76.4192 46.0387 76.4954 45.8934 76.645 45.7734C76.796 45.6521 77.0366 45.5921 77.3666 45.5921C77.6833 45.5921 77.9225 45.6588 78.0856 45.7907C78.2486 45.9241 78.3433 46.12 78.3714 46.38L78.8954 46.34C78.886 46.0987 78.8178 45.8827 78.6936 45.6921C78.568 45.5014 78.3874 45.3575 78.1549 45.2588C77.9211 45.1602 77.6526 45.1108 77.3466 45.1108C77.0686 45.1108 76.8174 45.1575 76.5902 45.2508C76.3631 45.3441 76.1907 45.4815 76.0731 45.6614C75.9555 45.8414 75.8954 46.036 75.8954 46.244C75.8954 46.4333 75.9435 46.604 76.0397 46.7559C76.1359 46.9079 76.2829 47.0359 76.4807 47.1385C76.633 47.2185 76.8974 47.3052 77.277 47.3958C77.6551 47.4865 77.9011 47.5531 78.0107 47.5958C78.1831 47.6611 78.3074 47.7425 78.3822 47.8384C78.457 47.9344 78.4945 48.0477 78.4945 48.1771C78.4945 48.3037 78.4557 48.4224 78.3782 48.529C78.3007 48.637 78.1818 48.721 78.0227 48.7836C77.8637 48.8463 77.6793 48.8756 77.4709 48.8756C77.2357 48.8756 77.0259 48.8343 76.8374 48.753C76.6504 48.6717 76.5114 48.565 76.4219 48.433C76.3323 48.301 76.2762 48.1317 76.2521 47.9264L75.7377 47.9718C75.7457 48.2464 75.8205 48.493 75.9635 48.7116C76.1065 48.9303 76.3043 49.0929 76.5568 49.2009C76.8094 49.3089 77.1219 49.3636 77.4948 49.3636C77.7888 49.3636 78.0548 49.3102 78.29 49.2022C78.5252 49.0943 78.7055 48.9436 78.8311 48.7503C78.9567 48.557 79.0196 48.3504 79.0196 48.1317C79.0196 47.9104 78.962 47.7158 78.8484 47.5465C78.7322 47.3798 78.5559 47.2399 78.3154 47.1305Z" fill="black"/>
<path d="M81.4169 45.1814H80.8717V49.2955H81.4169V45.1814Z" fill="black"/>
<path d="M85.3229 47.6824H86.535V48.4489C86.4187 48.5516 86.2477 48.6489 86.0232 48.7395C85.7987 48.8302 85.5675 48.8755 85.331 48.8755C85.0583 48.8755 84.8018 48.8155 84.5599 48.6955C84.318 48.5755 84.1336 48.3929 84.0067 48.1449C83.8797 47.8983 83.8169 47.5917 83.8169 47.2238C83.8169 46.9265 83.869 46.6505 83.9746 46.3959C84.0361 46.2479 84.1229 46.1119 84.2352 45.9893C84.3461 45.8653 84.4931 45.7666 84.6762 45.6906C84.8579 45.6147 85.073 45.5773 85.3229 45.5773C85.5314 45.5773 85.7198 45.6133 85.8909 45.6853C86.0619 45.7573 86.1929 45.8533 86.2851 45.9733C86.3773 46.0932 86.4534 46.2572 86.5162 46.4665L87.008 46.3319C86.9372 46.0546 86.833 45.8306 86.6953 45.6586C86.559 45.4867 86.3693 45.352 86.1287 45.256C85.8882 45.1601 85.6183 45.1121 85.3203 45.1121C84.91 45.1121 84.5465 45.196 84.2312 45.364C83.9158 45.532 83.6753 45.7906 83.5069 46.1372C83.3385 46.4839 83.2557 46.8585 83.2557 47.2584C83.2557 47.6624 83.3399 48.029 83.5082 48.3556C83.6766 48.6835 83.9265 48.9328 84.2579 49.1061C84.5893 49.2794 84.9568 49.3661 85.3617 49.3661C85.6624 49.3661 85.9537 49.3128 86.2396 49.2048C86.5243 49.0968 86.8009 48.9368 87.0695 48.7235V47.1971L85.3229 47.1998V47.6824Z" fill="black"/>
<path d="M91.6089 48.4129L89.4427 45.1814H88.8828V49.2968H89.4066V46.0639L91.5728 49.2968H92.1327V45.1814H91.6089V48.4129Z" fill="black"/>
<path d="M119.86 46.9624H94.2053V47.4463H119.86V46.9624Z" fill="black"/>
<path d="M25.6543 46.9731H0V47.4571H25.6543V46.9731Z" fill="black"/>
<path d="M2.10468 36.7174H5.49621L6.73497 39.301H7.58486L3.91403 31.4475H3.7216L0 39.301H0.877951L2.10468 36.7174ZM3.81247 33.1166L5.15546 35.9602H2.46414L3.81247 33.1166Z" fill="black"/>
<path d="M11.8156 33.3539L17.0125 39.301H17.1889V31.4475H16.4125V37.468L11.1729 31.4475H11.0018V39.301H11.8156V33.3539Z" fill="black"/>
<path d="M26.714 37.468L21.473 31.4475H21.302V39.301H22.1158V33.3539L27.3127 39.301H27.4891V31.4475H26.714V37.468Z" fill="black"/>
<path d="M34.6209 31.4475L30.9006 39.301H31.7786L33.0053 36.7174H36.3968L37.6356 39.301H38.4855L34.8133 31.4475H34.6209ZM33.3661 35.9589L34.7158 33.1153L36.0588 35.9589H33.3661Z" fill="black"/>
<path d="M50.8063 35.4002C51.1804 35.2349 51.4691 34.9896 51.6709 34.6656C51.8726 34.3416 51.9729 33.9657 51.9729 33.5378C51.9729 33.0245 51.8259 32.5926 51.5332 32.242C51.2406 31.8913 50.8611 31.662 50.3933 31.5554C50.0833 31.4847 49.49 31.4487 48.6161 31.4487H47.0486V39.3023H47.8357V35.6548H48.2807L51.1123 39.3023H52.0851L49.2535 35.6548C49.915 35.6508 50.4321 35.5668 50.8063 35.4002ZM47.8357 34.8856V32.2153H49.2241C49.764 32.2153 50.1501 32.2619 50.3827 32.3539C50.6152 32.4459 50.8023 32.6006 50.9452 32.8152C51.0882 33.0298 51.1591 33.2698 51.1591 33.5338C51.1591 33.8044 51.0882 34.0497 50.9479 34.2683C50.8063 34.487 50.6098 34.6469 50.3586 34.7456C50.1074 34.8456 49.7185 34.8949 49.1934 34.8949L47.8357 34.8856Z" fill="black"/>
<path d="M58.8748 31.4475L55.1545 39.301H56.0325L57.2592 36.7174H60.6508L61.8895 39.301H62.7394L59.0686 31.4475H58.8748ZM57.6187 35.9589L58.9683 33.1153L60.3113 35.9589H57.6187Z" fill="black"/>
<path d="M65.8477 31.4475V32.2061H68.8116L65.4935 39.301H69.8338V38.5332H66.7109L69.9995 31.4475H65.8477Z" fill="black"/>
<path d="M77.8143 38.8211C78.2258 38.5012 78.5011 38.1239 78.6388 37.6919C78.7764 37.26 78.8446 36.6934 78.8446 35.9909V31.4475H78.0575V35.9909C78.0575 36.6108 78.0308 37.02 77.9773 37.2187C77.9025 37.496 77.7849 37.7333 77.6245 37.9292C77.4642 38.1252 77.2637 38.2785 77.0245 38.3878C76.7853 38.4972 76.5354 38.5531 76.2748 38.5531C75.9755 38.5531 75.6775 38.4825 75.3809 38.3425C75.0842 38.2025 74.865 38.0279 74.7221 37.8199C74.5791 37.612 74.4882 37.352 74.4495 37.0427C74.4281 36.9041 74.4174 36.5534 74.4174 35.9909V31.4475H73.6303V35.9909C73.6303 36.7881 73.6784 37.34 73.7746 37.6466C73.9283 38.1452 74.2316 38.5451 74.6847 38.8478C75.1377 39.1504 75.6815 39.301 76.3176 39.301C76.9042 39.301 77.4027 39.1411 77.8143 38.8211Z" fill="black"/>
<path d="M86.8329 39.301H87.0334L89.8169 33.6845L90.5946 39.301H91.367L90.2338 31.4475H90.1082L86.9385 37.8919L83.7381 31.4475H83.6098L82.4819 39.301H83.2423L84.016 33.6419L86.8329 39.301Z" fill="black"/>
<path d="M97.9831 39.301C99.0815 39.301 100.012 38.9198 100.775 38.1572C101.538 37.3946 101.92 36.4655 101.92 35.3709C101.92 34.2658 101.538 33.3352 100.773 32.5807C100.009 31.8248 99.0588 31.4475 97.9229 31.4475C97.2227 31.4475 96.5719 31.6208 95.9693 31.9688C95.3679 32.3167 94.8922 32.7966 94.5448 33.4099C94.196 34.0231 94.0223 34.6897 94.0223 35.4083C94.0223 36.4854 94.4045 37.404 95.1688 38.1639C95.9332 38.9224 96.8713 39.301 97.9831 39.301ZM95.2143 33.7725C95.4936 33.2846 95.8811 32.8953 96.3782 32.6073C96.8753 32.3194 97.4005 32.1754 97.955 32.1754C98.5203 32.1754 99.0535 32.3194 99.5572 32.6073C100.061 32.8953 100.451 33.2792 100.728 33.7592C101.006 34.2391 101.143 34.7764 101.143 35.3696C101.143 35.9669 101.004 36.5094 100.728 36.9974C100.451 37.4853 100.064 37.8706 99.5693 38.1519C99.0748 38.4332 98.5363 38.5745 97.9537 38.5745C97.0824 38.5745 96.3381 38.2679 95.7207 37.6559C95.1033 37.044 94.7947 36.2935 94.7947 35.4043C94.796 34.8044 94.935 34.2604 95.2143 33.7725Z" fill="black"/>
<path d="M107.635 39.301L111.061 31.4475H110.205L107.552 37.516L104.944 31.4475H104.087L107.464 39.301H107.635Z" fill="black"/>
<path d="M114.38 36.7174H117.771L119.01 39.301H119.86L116.189 31.4475H115.996L112.276 39.301H113.154L114.38 36.7174ZM116.089 33.1166L117.432 35.9602H114.74L116.089 33.1166Z" fill="black"/>
</g>
<path class="logo-hidden" d="M53.9265 14.9712C53.9987 15.2498 54.1457 15.8364 54.3635 16.7296C54.5813 17.6241 54.739 18.372 54.8366 18.9759C55.0784 20.3464 55.2909 21.5182 55.474 22.4941C55.6557 23.4686 55.8562 24.3511 56.074 25.1403C56.1461 25.3257 56.2798 25.5403 56.4735 25.7843C56.6673 26.0282 56.8851 26.1495 57.1283 26.1495C57.3956 26.1495 57.6254 26.0682 57.8192 25.9056C58.0129 25.7429 58.1105 25.5456 58.1105 25.3137C58.1105 25.2203 58.049 24.907 57.9288 24.3738C57.4677 22.726 57.0187 20.729 56.5831 18.384C56.3893 17.3628 56.2076 16.5616 56.0379 15.9804C56.0379 16.0043 55.9403 15.5737 55.7466 14.6912C55.9403 14.6685 56.3038 14.6046 56.8383 14.4992C57.3715 14.3952 57.723 14.2726 57.8927 14.134C58.0383 14.042 58.1533 13.902 58.2388 13.7153C58.323 13.53 58.3657 13.3554 58.3657 13.1928C58.3657 12.7515 58.208 12.4609 57.8927 12.3222C57.747 12.2529 57.6134 12.2476 57.4931 12.3049C57.3715 12.3635 57.2379 12.4502 57.0922 12.5662C56.9466 12.6822 56.8129 12.7635 56.6913 12.8101C56.6192 12.8328 56.4548 12.8861 56.2009 12.9675C55.9457 13.0488 55.637 13.1128 55.2735 13.1594C55.1279 12.6715 54.8125 11.6676 54.3274 10.1465C53.8423 8.62542 53.4415 7.48292 53.1261 6.71637C52.5929 5.41656 52.0397 4.29005 51.4704 3.33819C50.8998 2.38633 50.3974 1.9104 49.9604 1.9104C49.7426 1.9104 49.5662 1.93973 49.4326 1.99705C49.2989 2.05571 49.1787 2.1597 49.0691 2.31034C48.9595 2.46232 48.8807 2.55964 48.8325 2.6063C48.4437 2.46765 48.0081 2.397 47.523 2.397C47.3292 2.397 47.1769 2.49032 47.0686 2.67562C46.9591 2.86093 46.8441 3.11689 46.7225 3.44218C46.5769 3.88345 46.0424 5.65919 45.1216 8.77073L44.5764 10.5465C44.3813 11.2197 44.2063 11.7823 44.0486 12.2356C43.8909 12.6888 43.7626 13.0661 43.6664 13.3674C43.5448 13.8327 43.3631 14.4006 43.1212 15.0738C42.7323 15.1431 42.0241 15.2831 40.9925 15.4924C39.9608 15.7017 38.9853 15.911 38.0633 16.119C37.7225 16.2123 37.4807 16.311 37.335 16.415C37.1893 16.5189 37.1172 16.7109 37.1172 16.9895C37.1172 17.2215 37.184 17.4361 37.3176 17.6334C37.4513 17.8307 37.6504 17.9294 37.9176 17.9294C38.1368 17.9294 38.706 17.8134 39.6281 17.5815C40.2348 17.4188 41.1555 17.1988 42.3929 16.9202C42.2232 17.3388 41.8891 18.192 41.392 19.4798C40.8949 20.769 40.4873 21.8662 40.1733 22.7714C39.882 23.6072 39.6882 24.1405 39.5907 24.3738C39.5412 24.5364 39.3729 25.0297 39.0815 25.8536C38.7902 26.6775 38.6446 27.2174 38.6446 27.4733C38.6446 27.728 38.7354 27.9266 38.9172 28.0653C39.0989 28.2039 39.3234 28.2746 39.5907 28.2746C39.906 28.2746 40.1733 28.1639 40.3911 27.9439C40.6103 27.7226 40.7546 27.4507 40.8281 27.1254C41.1916 25.7549 41.7983 23.8059 42.6468 21.2742L43.6651 18.488L44.4294 16.4336L46.5395 16.0857C50.0325 15.5284 52.494 15.1578 53.9265 14.9712ZM47.6312 6.5084C47.8731 5.7885 48.2259 4.98729 48.6869 4.10475L49.0878 3.19955C49.4513 3.43151 49.9003 4.00076 50.4334 4.90596C50.9666 5.81117 51.4036 6.6937 51.743 7.55225C52.0824 8.38812 52.4459 9.4733 52.8348 10.8091C53.2223 12.1449 53.4775 13.0208 53.5991 13.4381L52.617 13.578L49.1239 14.1006L44.8664 14.7979C46.1265 10.9438 47.0499 8.18015 47.6312 6.5084Z" fill="black"/>
<path class="logo-hidden" d="M80.8517 20.4225C79.5902 19.9932 77.6379 19.3946 74.9933 18.6294L74.229 18.4201C71.682 17.7002 69.0989 17.0616 66.4784 16.5044C66.4543 16.435 66.4423 16.3297 66.4423 16.1911C66.6601 16.0991 67.0784 15.9364 67.6971 15.7031C68.3158 15.4712 68.9399 15.2152 69.5706 14.9366C72.0454 13.9621 74.0031 13.0902 75.4463 12.325C76.8895 11.5584 78.0481 10.6532 78.922 9.60804C79.7947 8.56286 80.2316 7.3097 80.2316 5.84725C80.2316 4.71008 79.8134 3.69956 78.9768 2.81703C78.1403 1.93449 76.9029 1.24925 75.2659 0.762655C73.629 0.274726 71.6459 0.0307617 69.3167 0.0307617C67.9577 0.0307617 66.4904 0.106751 64.9136 0.257395C63.3367 0.409373 62.0392 0.588014 61.0209 0.797317C59.2022 1.16926 57.5158 1.6452 55.963 2.22511C54.4116 2.80636 53.6352 3.31695 53.6352 3.75689C53.6352 4.01285 53.7074 4.22749 53.853 4.40079C53.9987 4.57544 54.1684 4.66209 54.3621 4.66209C54.5559 4.66209 54.7563 4.6221 54.9621 4.54077C55.1679 4.45945 55.3804 4.3488 55.5996 4.21016C56.3519 3.81555 57.1336 3.46093 57.9461 3.14764C58.7599 2.83436 59.9412 2.50374 61.494 2.15446C61.931 2.06247 62.5123 1.96915 63.2405 1.87583C63.9688 1.78384 64.4045 1.72518 64.5501 1.70119C64.5501 1.91049 64.5381 2.32776 64.514 2.95434C64.49 3.58091 64.478 4.26615 64.478 5.00871C64.478 5.84458 64.5514 9.16543 64.6971 14.9686C64.502 15.0846 64.3563 15.1899 64.2601 15.2819C64.1626 15.3752 64.1145 15.5032 64.1145 15.6645C64.1145 15.7805 64.1385 15.9551 64.1866 16.1871C64.2347 16.419 64.2962 16.6403 64.3684 16.8483C64.4405 17.011 64.5327 17.1389 64.641 17.2309C64.7506 17.3242 64.8414 17.4056 64.9136 17.4749C64.9136 17.8228 64.9256 18.2241 64.9497 18.6761C64.9737 19.1293 64.9978 19.5986 65.0218 20.0865C65.118 21.5263 65.1675 22.4662 65.1675 22.9074C65.1675 23.5807 65.1969 24.1033 65.2584 24.4752C65.3185 24.8458 65.3492 25.0551 65.3492 25.1018C65.4454 25.5897 65.6766 25.8323 66.0401 25.8323C66.3314 25.8323 66.6094 25.7457 66.8766 25.571C67.1439 25.3964 67.2775 25.1818 67.2775 24.9271C67.2775 24.8112 67.2053 24.5379 67.0584 24.1086C66.9127 23.6793 66.8272 23.1514 66.8045 22.5235L66.5506 18.0308C67.3991 18.2174 68.5697 18.5014 70.061 18.884C71.5523 19.2666 72.8445 19.6332 73.9363 19.9812C76.4111 20.7944 78.4116 21.6303 79.9403 22.4888C80.3773 22.7208 80.7047 22.8781 80.9225 22.9594C81.1403 23.0407 81.3715 23.0807 81.6134 23.0807C81.8806 23.0807 82.1345 22.8834 82.3777 22.4888C82.6196 22.0942 82.7412 21.7569 82.7412 21.4783C82.7439 21.205 82.1131 20.8517 80.8517 20.4225ZM66.1884 10.1306L66.0428 4.5581C66.0428 3.95419 66.0615 3.35161 66.0976 2.74637C66.1336 2.14246 66.1644 1.75985 66.1884 1.5972C66.5759 1.55054 67.522 1.52788 69.0267 1.52788C71.0392 1.52788 72.7563 1.73185 74.1755 2.13712C75.5947 2.54373 76.6557 3.07166 77.3599 3.72223C78.0628 4.3728 78.4156 5.0807 78.4156 5.84725C78.4156 7.40302 77.6579 8.77882 76.1412 9.97465C74.6245 11.1705 72.3261 12.3596 69.2459 13.5448C68.8089 13.7314 68.269 13.9221 67.6263 14.1194C66.9835 14.3167 66.5532 14.4273 66.3341 14.45L66.1884 10.1306Z" fill="black"/>

<!-- <defs>
<clipPath id="clip0">
<rect width="120" height="49.4595" fill="white"/>
</clipPath>
</defs> -->
</svg>
