<svg width="150" height="62" viewBox="0 0 150 62" fill="none" xmlns="http://www.w3.org/2000/svg">
<g clip-path="url(#clip0)">
<path d="M35.3606 56.6445H34.6787V61.8024H35.3606V56.6445Z" fill="black"/>
<path d="M41.2358 60.6959L38.5265 56.6445H37.8262V61.804H38.4813V57.751L41.1906 61.804H41.8909V56.6445H41.2358V60.6959Z" fill="black"/>
<path d="M43.9189 57.2546H45.6187V61.804H46.3023V57.2546H48.0088V56.6445H43.9189V57.2546Z" fill="black"/>
<path d="M50.6731 59.4391H53.5278V58.834H50.6731V57.2546H53.72V56.6445H49.9912V61.804H53.8404V61.194H50.6731V59.4391Z" fill="black"/>
<path d="M59.1421 59.7132C59.0485 59.6279 58.9115 59.5427 58.731 59.4558C59.2257 59.3872 59.5917 59.2285 59.8291 58.9778C60.0664 58.7271 60.1851 58.4178 60.1851 58.0518C60.1851 57.7677 60.1132 57.5086 59.9711 57.2746C59.8274 57.0406 59.6369 56.8768 59.3979 56.7833C59.1588 56.6913 58.8095 56.6445 58.3499 56.6445H56.0635V61.8024H56.7454V59.5109H57.5376C57.7131 59.5109 57.8401 59.5193 57.917 59.536C58.0223 59.5611 58.1259 59.6079 58.2279 59.673C58.3299 59.7382 58.4452 59.8536 58.5755 60.0173C58.7042 60.1811 58.868 60.4185 59.0686 60.7277L59.7505 61.8007H60.6096L59.7121 60.3967C59.5316 60.126 59.3427 59.897 59.1421 59.7132ZM58.2112 58.9226H56.7437V57.2161H58.3766C58.7594 57.2161 59.0385 57.2947 59.2157 57.4518C59.3928 57.6089 59.4814 57.8095 59.4814 58.0535C59.4814 58.2206 59.4363 58.3744 59.3444 58.5165C59.2524 58.6585 59.1187 58.7621 58.9432 58.8257C58.7661 58.8892 58.5221 58.9226 58.2112 58.9226Z" fill="black"/>
<path d="M63.3216 56.6445H62.6396V61.8024H63.3216V56.6445Z" fill="black"/>
<path d="M69.3451 56.8952C68.9624 56.6679 68.5328 56.5542 68.0582 56.5542C67.3311 56.5542 66.7378 56.7965 66.2782 57.2812C65.8185 57.7659 65.5879 58.4362 65.5879 59.2919C65.5879 59.7448 65.6865 60.1744 65.8837 60.5805C66.0809 60.9867 66.3701 61.3059 66.7528 61.5416C67.1356 61.7755 67.5701 61.8925 68.0548 61.8925C68.5027 61.8925 68.9206 61.7856 69.3067 61.575C69.6928 61.3627 69.9919 61.0502 70.2042 60.6373C70.4148 60.2245 70.5201 59.7565 70.5201 59.2334C70.5201 58.7169 70.4198 58.2556 70.2192 57.8495C70.0187 57.44 69.7262 57.1225 69.3451 56.8952ZM69.3184 60.766C68.9858 61.1271 68.5629 61.3076 68.0498 61.3076C67.5451 61.3076 67.1255 61.1287 66.7913 60.7711C66.457 60.4134 66.2899 59.9237 66.2899 59.3019C66.2899 58.5247 66.4637 57.9715 66.813 57.6389C67.1606 57.3063 67.5768 57.1409 68.0598 57.1409C68.3991 57.1409 68.7067 57.2278 68.9791 57.3999C69.2532 57.5721 69.4604 57.8144 69.6025 58.1286C69.7446 58.4412 69.8148 58.8089 69.8148 59.2284C69.8164 59.8919 69.6493 60.405 69.3184 60.766Z" fill="black"/>
<path d="M75.7593 59.7132C75.6657 59.6279 75.5287 59.5427 75.3482 59.4558C75.8429 59.3872 76.2089 59.2285 76.4463 58.9778C76.6836 58.7271 76.8023 58.4178 76.8023 58.0518C76.8023 57.7677 76.7304 57.5086 76.5883 57.2746C76.4446 57.0406 76.2541 56.8768 76.0151 56.7833C75.7761 56.6913 75.4267 56.6445 74.9671 56.6445H72.6807V61.8024H73.3626V59.5109H74.1548C74.3303 59.5109 74.4573 59.5193 74.5342 59.536C74.6395 59.5611 74.7431 59.6079 74.8451 59.673C74.9471 59.7382 75.0624 59.8536 75.1927 60.0173C75.3214 60.1811 75.4852 60.4185 75.6858 60.7277L76.3677 61.8007H77.2268L76.3293 60.3967C76.1488 60.126 75.9599 59.897 75.7593 59.7132ZM74.8284 58.9226H73.3609V57.2161H74.9939C75.3766 57.2161 75.6557 57.2947 75.8329 57.4518C76.01 57.6089 76.0986 57.8095 76.0986 58.0535C76.0986 58.2206 76.0535 58.3744 75.9616 58.5165C75.8696 58.6585 75.7359 58.7621 75.5604 58.8257C75.3833 58.8892 75.1393 58.9226 74.8284 58.9226Z" fill="black"/>
<path d="M85.8625 57.0889C85.6536 56.9101 85.4012 56.7881 85.1054 56.7195C84.8948 56.6711 84.5889 56.646 84.1878 56.646H82.4111V61.8038H84.2731C84.5856 61.8038 84.8614 61.7737 85.1021 61.7152C85.3427 61.6567 85.5483 61.5698 85.7171 61.4562C85.8876 61.3425 86.043 61.1871 86.1868 60.9882C86.3288 60.7893 86.4475 60.5403 86.5378 60.2378C86.6297 59.9352 86.6748 59.5876 86.6748 59.1965C86.6748 58.7369 86.608 58.3274 86.4726 57.9697C86.3372 57.612 86.1333 57.3179 85.8625 57.0889ZM85.8358 60.1793C85.7455 60.4534 85.6202 60.6706 85.4581 60.8328C85.3427 60.9481 85.189 61.0367 84.9951 61.1002C84.8012 61.1637 84.5355 61.1955 84.1945 61.1955H83.0931V57.2544H84.1761C84.5823 57.2544 84.8764 57.2895 85.0586 57.3597C85.311 57.4583 85.5266 57.6522 85.7038 57.9413C85.8809 58.2305 85.9695 58.6449 85.9695 59.1848C85.9712 59.5742 85.926 59.9068 85.8358 60.1793Z" fill="black"/>
<path d="M89.5801 59.4391H92.4331V58.834H89.5801V57.2546H92.627V56.6445H88.8965V61.804H92.7456V61.194H89.5801V59.4391Z" fill="black"/>
<path d="M97.9526 59.0878C97.7453 58.9942 97.3659 58.8839 96.811 58.7585C96.2561 58.6332 95.9135 58.5112 95.7815 58.3908C95.6478 58.2705 95.5809 58.1184 95.5809 57.9329C95.5809 57.7189 95.6762 57.5368 95.8634 57.3863C96.0522 57.2342 96.3531 57.159 96.7659 57.159C97.162 57.159 97.4612 57.2426 97.6651 57.4081C97.869 57.5752 97.9877 57.8209 98.0228 58.1468L98.6779 58.0967C98.6662 57.7941 98.581 57.5234 98.4256 57.2844C98.2685 57.0454 98.0428 56.8649 97.752 56.7412C97.4595 56.6175 97.1236 56.5557 96.7408 56.5557C96.3932 56.5557 96.079 56.6142 95.7948 56.7312C95.5107 56.8482 95.2951 57.0203 95.148 57.2459C95.0009 57.4716 94.9257 57.7156 94.9257 57.9763C94.9257 58.2137 94.9859 58.4276 95.1062 58.6181C95.2266 58.8087 95.4104 58.9691 95.6578 59.0978C95.8483 59.1981 96.1793 59.3067 96.6539 59.4204C97.1269 59.534 97.4345 59.6176 97.5715 59.6711C97.7871 59.753 97.9425 59.8549 98.0361 59.9753C98.1297 60.0956 98.1765 60.2377 98.1765 60.3998C98.1765 60.5586 98.1281 60.7073 98.0311 60.841C97.9342 60.9764 97.7854 61.0817 97.5865 61.1603C97.3876 61.2388 97.157 61.2756 96.8963 61.2756C96.6021 61.2756 96.3397 61.2238 96.104 61.1218C95.8701 61.0199 95.6962 60.8862 95.5843 60.7207C95.4723 60.5552 95.4021 60.343 95.372 60.0856L94.7285 60.1424C94.7385 60.4867 94.8321 60.7959 95.011 61.07C95.1898 61.3441 95.4372 61.548 95.7531 61.6834C96.0689 61.8188 96.46 61.8873 96.9264 61.8873C97.2941 61.8873 97.6267 61.8205 97.9208 61.6851C98.215 61.5497 98.4406 61.3608 98.5977 61.1185C98.7548 60.8761 98.8334 60.6171 98.8334 60.343C98.8334 60.0655 98.7615 59.8215 98.6194 59.6092C98.474 59.4003 98.2534 59.2248 97.9526 59.0878Z" fill="black"/>
<path d="M101.831 56.6445H101.149V61.8024H101.831V56.6445Z" fill="black"/>
<path d="M106.716 59.78H108.232V60.741C108.087 60.8697 107.873 60.9917 107.592 61.1054C107.311 61.2191 107.022 61.2759 106.726 61.2759C106.386 61.2759 106.065 61.2007 105.762 61.0502C105.46 60.8998 105.229 60.6708 105.07 60.36C104.911 60.0508 104.833 59.6664 104.833 59.2051C104.833 58.8323 104.898 58.4864 105.03 58.1671C105.107 57.9816 105.216 57.8111 105.356 57.6574C105.495 57.5019 105.679 57.3783 105.908 57.283C106.135 57.1877 106.404 57.1409 106.716 57.1409C106.977 57.1409 107.213 57.186 107.427 57.2763C107.641 57.3666 107.805 57.4869 107.92 57.6373C108.035 57.7877 108.13 57.9933 108.209 58.2557L108.824 58.0869C108.735 57.7393 108.605 57.4585 108.433 57.2429C108.262 57.0273 108.025 56.8585 107.724 56.7381C107.423 56.6178 107.086 56.5576 106.713 56.5576C106.2 56.5576 105.745 56.6629 105.351 56.8735C104.957 57.0841 104.656 57.4083 104.445 57.8429C104.234 58.2774 104.131 58.7471 104.131 59.2485C104.131 59.7549 104.236 60.2146 104.447 60.624C104.657 61.0352 104.97 61.3477 105.384 61.565C105.799 61.7823 106.259 61.8909 106.765 61.8909C107.141 61.8909 107.505 61.8241 107.863 61.6887C108.219 61.5533 108.565 61.3528 108.901 61.0853V59.1716L106.716 59.175V59.78V59.78Z" fill="black"/>
<path d="M114.579 60.6959L111.87 56.6445H111.17V61.804H111.825V57.751L114.534 61.804H115.235V56.6445H114.579V60.6959Z" fill="black"/>
<path d="M67.4479 18.7694C67.5382 19.1187 67.722 19.8541 67.9945 20.9739C68.2669 22.0954 68.4641 23.033 68.5861 23.7902C68.8886 25.5083 69.1544 26.9775 69.3834 28.2009C69.6107 29.4227 69.8614 30.5291 70.1338 31.5186C70.2241 31.7509 70.3912 32.02 70.6336 32.3258C70.8759 32.6317 71.1483 32.7838 71.4525 32.7838C71.7868 32.7838 72.0743 32.6818 72.3166 32.4779C72.559 32.274 72.681 32.0267 72.681 31.7358C72.681 31.6188 72.6041 31.2261 72.4537 30.5575C71.877 28.4917 71.3155 25.988 70.7706 23.0481C70.5283 21.7678 70.301 20.7633 70.0887 20.0346C70.0887 20.0647 69.9667 19.5248 69.7243 18.4184C69.9667 18.39 70.4213 18.3098 71.0898 18.1777C71.7567 18.0474 72.1963 17.8936 72.4085 17.7198C72.5907 17.6044 72.7345 17.4289 72.8414 17.195C72.9467 16.9626 73.0002 16.7437 73.0002 16.5398C73.0002 15.9866 72.803 15.6222 72.4085 15.4484C72.2264 15.3615 72.0592 15.3548 71.9088 15.4267C71.7567 15.5002 71.5896 15.6088 71.4074 15.7542C71.2252 15.8997 71.0581 16.0016 70.906 16.0601C70.8157 16.0885 70.6102 16.1554 70.2926 16.2573C69.9734 16.3593 69.5873 16.4395 69.1327 16.498C68.9505 15.8863 68.556 14.6277 67.9493 12.7207C67.3426 10.8137 66.8412 9.38133 66.4468 8.42029C65.7799 6.79071 65.088 5.37841 64.376 4.18505C63.6623 2.9917 63.0339 2.39502 62.4873 2.39502C62.2149 2.39502 61.9943 2.43179 61.8271 2.50366C61.66 2.5772 61.5096 2.70756 61.3725 2.89643C61.2355 3.08696 61.1369 3.20897 61.0767 3.26747C60.5903 3.09365 60.0455 3.00507 59.4387 3.00507C59.1964 3.00507 59.0059 3.12206 58.8705 3.35438C58.7334 3.5867 58.5897 3.9076 58.4376 4.31542C58.2554 4.86864 57.5869 7.0949 56.4353 10.9959L55.7534 13.2221C55.5094 14.0662 55.2904 14.7715 55.0932 15.3397C54.896 15.908 54.7355 16.381 54.6152 16.7587C54.4631 17.342 54.2358 18.054 53.9333 18.8981C53.4469 18.985 52.5611 19.1605 51.2708 19.4229C49.9805 19.6853 48.7604 19.9477 47.6072 20.2084C47.181 20.3254 46.8784 20.4491 46.6963 20.5795C46.5141 20.7098 46.4238 20.9505 46.4238 21.2998C46.4238 21.5906 46.5074 21.8597 46.6745 22.1071C46.8417 22.3545 47.0907 22.4781 47.425 22.4781C47.6991 22.4781 48.4111 22.3327 49.5643 22.0419C50.3231 21.838 51.4747 21.5622 53.0224 21.2129C52.8101 21.7377 52.3923 22.8074 51.7705 24.4219C51.1488 26.0382 50.639 27.4137 50.2462 28.5485C49.8819 29.5965 49.6395 30.265 49.5175 30.5575C49.4557 30.7614 49.2451 31.3798 48.8807 32.4127C48.5164 33.4456 48.3342 34.1225 48.3342 34.4434C48.3342 34.7627 48.4479 35.0117 48.6752 35.1855C48.9025 35.3594 49.1832 35.4479 49.5175 35.4479C49.912 35.4479 50.2462 35.3092 50.5187 35.0334C50.7928 34.756 50.9733 34.415 51.0652 34.0072C51.5198 32.2891 52.2786 29.8455 53.3399 26.6716L54.6135 23.1784L55.5695 20.6029L58.2086 20.1666C62.5776 19.468 65.6562 19.0034 67.4479 18.7694ZM59.5741 8.15956C59.8766 7.25702 60.3179 6.25253 60.8945 5.14609L61.3959 4.01123C61.8505 4.30205 62.4121 5.01572 63.079 6.15058C63.7459 7.28543 64.2924 8.39188 64.7169 9.46824C65.1414 10.5162 65.5961 11.8767 66.0824 13.5514C66.5671 15.2261 66.8864 16.3242 67.0384 16.8473L65.81 17.0228L61.441 17.678L56.1161 18.5521C57.6922 13.7202 58.8471 10.2554 59.5741 8.15956Z" fill="black"/>
<path d="M101.124 25.6038C99.5459 25.0656 97.1041 24.3152 93.7964 23.3558L92.8404 23.0934C89.6548 22.1908 86.424 21.3903 83.1465 20.6916C83.1164 20.6047 83.1014 20.4727 83.1014 20.2989C83.3738 20.1835 83.8969 19.9796 84.6708 19.6871C85.4446 19.3963 86.2252 19.0754 87.014 18.7261C90.1094 17.5043 92.558 16.4113 94.363 15.4519C96.1681 14.4909 97.6172 13.356 98.7102 12.0457C99.8016 10.7353 100.348 9.16423 100.348 7.33074C100.348 5.90507 99.8251 4.63817 98.7788 3.53173C97.7325 2.42528 96.1848 1.5662 94.1374 0.956154C92.09 0.344434 89.6097 0.0385742 86.6965 0.0385742C84.9967 0.0385742 83.1615 0.133842 81.1893 0.322706C79.2171 0.513242 77.5942 0.737205 76.3206 0.999609C74.0459 1.46592 71.9367 2.0626 69.9945 2.78964C68.0541 3.51836 67.083 4.15849 67.083 4.71004C67.083 5.03094 67.1733 5.30003 67.3554 5.51731C67.5376 5.73626 67.7499 5.8449 67.9922 5.8449C68.2346 5.8449 68.4853 5.79476 68.7427 5.6928C69.0001 5.59085 69.2658 5.45213 69.5399 5.2783C70.4809 4.78358 71.4586 4.339 72.4748 3.94623C73.4927 3.55346 74.9702 3.13896 76.9123 2.70106C77.4588 2.58573 78.1859 2.46874 79.0968 2.35174C80.0077 2.23642 80.5525 2.16288 80.7347 2.13279C80.7347 2.3952 80.7197 2.91834 80.6896 3.70388C80.6595 4.48942 80.6445 5.3485 80.6445 6.27945C80.6445 7.3274 80.7364 11.4908 80.9186 18.7662C80.6745 18.9116 80.4924 19.0437 80.372 19.159C80.25 19.276 80.1899 19.4364 80.1899 19.6387C80.1899 19.7841 80.2199 20.003 80.2801 20.2938C80.3403 20.5847 80.4172 20.8621 80.5074 21.1228C80.5977 21.3268 80.713 21.4872 80.8484 21.6025C80.9854 21.7195 81.0991 21.8215 81.1893 21.9084C81.1893 22.3446 81.2044 22.8477 81.2345 23.4143C81.2645 23.9826 81.2946 24.5709 81.3247 25.1826C81.445 26.9877 81.5069 28.166 81.5069 28.7192C81.5069 29.5632 81.5437 30.2184 81.6205 30.6847C81.6958 31.1494 81.7342 31.4118 81.7342 31.4703C81.8545 32.082 82.1437 32.3862 82.5983 32.3862C82.9627 32.3862 83.3103 32.2775 83.6446 32.0586C83.9788 31.8396 84.146 31.5706 84.146 31.2513C84.146 31.1059 84.0557 30.7633 83.8719 30.2251C83.6897 29.6869 83.5827 29.0251 83.5543 28.2378L83.2368 22.6053C84.2981 22.8393 85.7622 23.1953 87.6274 23.675C89.4927 24.1547 91.1089 24.6143 92.4744 25.0506C95.5698 26.0701 98.0718 27.118 99.9838 28.1944C100.53 28.4852 100.94 28.6824 101.212 28.7844C101.485 28.8863 101.774 28.9365 102.076 28.9365C102.411 28.9365 102.728 28.6891 103.032 28.1944C103.335 27.6997 103.487 27.2768 103.487 26.9275C103.49 26.5849 102.701 26.142 101.124 25.6038ZM82.7838 12.7008L82.6016 5.71453C82.6016 4.9574 82.625 4.20195 82.6702 3.44315C82.7153 2.68602 82.7537 2.20633 82.7838 2.00243C83.2685 1.94393 84.4518 1.91552 86.3338 1.91552C88.8509 1.91552 90.9986 2.17124 92.7736 2.67933C94.5486 3.1891 95.8756 3.85096 96.7564 4.66658C97.6356 5.48221 98.0768 6.36971 98.0768 7.33074C98.0768 9.28122 97.1291 11.0061 95.2321 12.5053C93.3351 14.0045 90.4604 15.4954 86.6079 16.9812C86.0614 17.2152 85.3861 17.4542 84.5822 17.7016C83.7783 17.9489 83.2401 18.0876 82.966 18.1161L82.7838 12.7008Z" fill="black"/>
<path d="M149.913 58.8774H117.826V59.4841H149.913V58.8774Z" fill="black"/>
<path d="M32.0869 58.8906H0V59.4973H32.0869V58.8906Z" fill="black"/>
<path d="M2.6324 46.0327H6.87433L8.42368 49.2718H9.48667L4.89543 39.4258H4.65475L0 49.2718H1.09809L2.6324 46.0327ZM4.76841 41.5183L6.44813 45.0834H3.082L4.76841 41.5183Z" fill="black"/>
<path d="M14.7786 41.8158L21.2785 49.2718H21.4992V39.4258H20.5281V46.9737L13.9747 39.4258H13.7607V49.2718H14.7786V41.8158Z" fill="black"/>
<path d="M33.4126 46.9737L26.8575 39.4258H26.6436V49.2718H27.6614V41.8158L34.1614 49.2718H34.382V39.4258H33.4126V46.9737Z" fill="black"/>
<path d="M43.3015 39.4258L38.6484 49.2718H39.7465L41.2808 46.0327H45.5228L47.0721 49.2718H48.1351L43.5422 39.4258H43.3015V39.4258ZM41.7321 45.0817L43.4202 41.5167L45.0999 45.0817H41.7321Z" fill="black"/>
<path d="M63.5456 44.3817C64.0136 44.1744 64.3746 43.8669 64.627 43.4607C64.8793 43.0546 65.0047 42.5833 65.0047 42.0468C65.0047 41.4033 64.8208 40.8618 64.4548 40.4222C64.0888 39.9826 63.6141 39.6952 63.0291 39.5614C62.6414 39.4729 61.8993 39.4277 60.8062 39.4277H58.8457V49.2737H59.8301V44.7009H60.3867L63.9283 49.2737H65.1451L61.6035 44.7009C62.4308 44.6959 63.0776 44.5906 63.5456 44.3817ZM59.8301 43.7365V40.3888H61.5667C62.2419 40.3888 62.7249 40.4473 63.0158 40.5626C63.3066 40.6779 63.5406 40.8718 63.7194 41.1409C63.8982 41.41 63.9868 41.7108 63.9868 42.0417C63.9868 42.381 63.8982 42.6886 63.7228 42.9627C63.5456 43.2368 63.2999 43.4373 62.9857 43.561C62.6715 43.6864 62.1851 43.7482 61.5282 43.7482L59.8301 43.7365Z" fill="black"/>
<path d="M73.6365 39.4258L68.9834 49.2718H70.0815L71.6158 46.0327H75.8577L77.4071 49.2718H78.4701L73.8788 39.4258H73.6365V39.4258ZM72.0654 45.0817L73.7535 41.5167L75.4332 45.0817H72.0654Z" fill="black"/>
<path d="M82.358 39.4258V40.3768H86.065L81.915 49.2718H87.3436V48.3091H83.4377L87.5509 39.4258H82.358Z" fill="black"/>
<path d="M97.3248 48.6701C97.8396 48.269 98.1839 47.796 98.3561 47.2545C98.5282 46.7129 98.6135 46.0026 98.6135 45.1218V39.4258H97.629V45.1218C97.629 45.899 97.5956 46.4121 97.5288 46.6611C97.4352 47.0088 97.2881 47.3063 97.0875 47.552C96.8869 47.7977 96.6362 47.9899 96.3371 48.1269C96.0379 48.264 95.7253 48.3342 95.3994 48.3342C95.025 48.3342 94.6523 48.2456 94.2813 48.0701C93.9102 47.8946 93.6361 47.6757 93.4573 47.4149C93.2785 47.1542 93.1648 46.8283 93.1163 46.4405C93.0896 46.2667 93.0762 45.8271 93.0762 45.1218V39.4258H92.0918V45.1218C92.0918 46.1213 92.152 46.8132 92.2723 47.1976C92.4645 47.8227 92.8439 48.3241 93.4105 48.7035C93.9771 49.0829 94.6573 49.2718 95.4529 49.2718C96.1866 49.2718 96.8101 49.0712 97.3248 48.6701Z" fill="black"/>
<path d="M108.605 49.2718H108.856L112.337 42.2303L113.31 49.2718H114.276L112.859 39.4258H112.702L108.737 47.5052L104.734 39.4258H104.574L103.163 49.2718H104.114L105.082 42.1769L108.605 49.2718Z" fill="black"/>
<path d="M122.552 49.2718C123.925 49.2718 125.089 48.7938 126.043 47.8378C126.997 46.8818 127.475 45.7168 127.475 44.3446C127.475 42.9591 126.997 41.7924 126.041 40.8464C125.085 39.8988 123.897 39.4258 122.476 39.4258C121.601 39.4258 120.787 39.6431 120.033 40.0793C119.281 40.5155 118.686 41.1172 118.251 41.886C117.815 42.6549 117.598 43.4905 117.598 44.3914C117.598 45.7419 118.076 46.8934 119.032 47.8461C119.988 48.7971 121.161 49.2718 122.552 49.2718ZM119.089 42.3406C119.438 41.7289 119.923 41.2409 120.544 40.8799C121.166 40.5189 121.823 40.3383 122.516 40.3383C123.223 40.3383 123.89 40.5189 124.52 40.8799C125.151 41.2409 125.639 41.7222 125.985 42.3239C126.332 42.9256 126.504 43.5992 126.504 44.3429C126.504 45.0917 126.331 45.772 125.985 46.3837C125.639 46.9954 125.154 47.4784 124.535 47.8311C123.917 48.1837 123.244 48.3609 122.515 48.3609C121.425 48.3609 120.494 47.9765 119.722 47.2093C118.95 46.4422 118.564 45.5012 118.564 44.3864C118.565 43.6343 118.739 42.9524 119.089 42.3406Z" fill="black"/>
<path d="M134.623 49.2718L138.908 39.4258H137.837L134.519 47.0338L131.257 39.4258H130.186L134.409 49.2718H134.623Z" fill="black"/>
<path d="M143.058 46.0327H147.3L148.85 49.2718H149.913L145.321 39.4258H145.081L140.428 49.2718H141.526L143.058 46.0327ZM145.196 41.5183L146.876 45.0834H143.51L145.196 41.5183Z" fill="black"/>
</g>
<defs>
<clipPath id="clip0">
<rect width="150" height="61.8906" fill="white"/>
</clipPath>
</defs>
</svg>
