<svg width="92" height="71" viewBox="0 0 92 71" fill="none" xmlns="http://www.w3.org/2000/svg">
<g filter="url(#filter0_d)">
<path d="M62 21.129C62 30.0368 51.44 39.5161 46 45C40.08 39.0323 30 30.0368 30 21.129C30 12.2212 37.1634 5 46 5C54.8366 5 62 12.2212 62 21.129Z" fill="#202020"/>
</g>
<path d="M17.6563 70L17.0683 68.236H13.1623L12.5743 70H10.4883L13.9183 60.2H16.3123L19.7563 70H17.6563ZM13.7783 66.43H16.4663L15.1223 62.426L13.7783 66.43ZM26.0839 70L24.1099 66.598H22.6399V70H20.7079V60.2H24.6279C25.5332 60.2 26.3032 60.5173 26.9379 61.152C27.5725 61.7867 27.8899 62.552 27.8899 63.448C27.8899 64.0547 27.7172 64.6193 27.3719 65.142C27.0265 65.6553 26.5692 66.0427 25.9999 66.304L28.1699 70H26.0839ZM22.6399 62.006V64.904H24.6279C24.9919 64.904 25.3045 64.764 25.5659 64.484C25.8272 64.1947 25.9579 63.8493 25.9579 63.448C25.9579 63.0467 25.8272 62.706 25.5659 62.426C25.3045 62.146 24.9919 62.006 24.6279 62.006H22.6399ZM36.6995 60.2C38.0435 60.2 39.1635 60.6713 40.0595 61.614C40.9648 62.5567 41.4175 63.7187 41.4175 65.1C41.4175 66.4813 40.9648 67.6433 40.0595 68.586C39.1635 69.5287 38.0435 70 36.6995 70H32.8075V60.2H36.6995ZM36.6995 68.152C37.5488 68.152 38.2395 67.872 38.7715 67.312C39.3035 66.7427 39.5695 66.0053 39.5695 65.1C39.5695 64.1947 39.3035 63.462 38.7715 62.902C38.2395 62.3327 37.5488 62.048 36.6995 62.048H34.7395V68.152H36.6995ZM44.7199 68.152H48.8499V70H42.7879V60.2H48.7799V62.048H44.7199V64.134H48.4299V65.954H44.7199V68.152ZM53.5578 70.196C52.5871 70.196 51.7704 69.9813 51.1078 69.552C50.4451 69.1133 49.9784 68.5207 49.7078 67.774L51.3598 66.808C51.7424 67.8067 52.4938 68.306 53.6138 68.306C54.1551 68.306 54.5518 68.208 54.8038 68.012C55.0558 67.816 55.1818 67.5687 55.1818 67.27C55.1818 66.9247 55.0278 66.6587 54.7198 66.472C54.4118 66.276 53.8611 66.066 53.0678 65.842C52.6291 65.7113 52.2558 65.5807 51.9478 65.45C51.6491 65.3193 51.3458 65.1467 51.0378 64.932C50.7391 64.708 50.5104 64.428 50.3518 64.092C50.1931 63.756 50.1138 63.364 50.1138 62.916C50.1138 62.0293 50.4264 61.3247 51.0518 60.802C51.6864 60.27 52.4471 60.004 53.3338 60.004C54.1271 60.004 54.8224 60.2 55.4198 60.592C56.0264 60.9747 56.4978 61.5113 56.8338 62.202L55.2098 63.14C54.8178 62.3 54.1924 61.88 53.3338 61.88C52.9324 61.88 52.6151 61.9733 52.3818 62.16C52.1578 62.3373 52.0458 62.5707 52.0458 62.86C52.0458 63.168 52.1718 63.42 52.4238 63.616C52.6851 63.8027 53.1798 64.008 53.9078 64.232C54.2064 64.3253 54.4304 64.4 54.5798 64.456C54.7384 64.5027 54.9484 64.582 55.2098 64.694C55.4804 64.7967 55.6858 64.8947 55.8258 64.988C55.9751 65.0813 56.1431 65.2073 56.3298 65.366C56.5164 65.5247 56.6564 65.688 56.7498 65.856C56.8524 66.024 56.9364 66.2293 57.0018 66.472C57.0764 66.7053 57.1138 66.962 57.1138 67.242C57.1138 68.1473 56.7824 68.866 56.1198 69.398C55.4664 69.93 54.6124 70.196 53.5578 70.196ZM58.3055 60.2H60.2375V70H58.3055V60.2ZM71.6696 64.736V65.492C71.6696 66.892 71.2216 68.026 70.3256 68.894C69.4296 69.762 68.2723 70.196 66.8536 70.196C65.3416 70.196 64.0863 69.706 63.0876 68.726C62.0983 67.7367 61.6036 66.5327 61.6036 65.114C61.6036 63.686 62.0936 62.4773 63.0736 61.488C64.0629 60.4987 65.2856 60.004 66.7416 60.004C67.6563 60.004 68.4916 60.214 69.2476 60.634C70.0036 61.0447 70.5916 61.5953 71.0116 62.286L69.3596 63.238C69.1263 62.8367 68.7716 62.51 68.2956 62.258C67.8289 62.006 67.3063 61.88 66.7276 61.88C65.7943 61.88 65.0243 62.188 64.4176 62.804C63.8203 63.4107 63.5216 64.1807 63.5216 65.114C63.5216 66.038 63.8249 66.8033 64.4316 67.41C65.0476 68.0073 65.8596 68.306 66.8676 68.306C67.6143 68.306 68.2303 68.1427 68.7156 67.816C69.2103 67.48 69.5463 67.0227 69.7236 66.444H66.7556V64.736H71.6696ZM78.7138 60.2H80.6458V70H79.1758L74.9758 64.008V70H73.0438V60.2H74.5138L78.7138 66.178V60.2Z" fill="#2E2E2E"/>
<defs>
<filter id="filter0_d" x="15" y="0" width="62" height="70" filterUnits="userSpaceOnUse" color-interpolation-filters="sRGB">
<feFlood flood-opacity="0" result="BackgroundImageFix"/>
<feColorMatrix in="SourceAlpha" type="matrix" values="0 0 0 0 0 0 0 0 0 0 0 0 0 0 0 0 0 0 127 0"/>
<feOffset dy="10"/>
<feGaussianBlur stdDeviation="7.5"/>
<feColorMatrix type="matrix" values="0 0 0 0 0.12549 0 0 0 0 0.12549 0 0 0 0 0.12549 0 0 0 0.2 0"/>
<feBlend mode="normal" in2="BackgroundImageFix" result="effect1_dropShadow"/>
<feBlend mode="normal" in="SourceGraphic" in2="effect1_dropShadow" result="shape"/>
</filter>
</defs>
</svg>
