<svg width="698" height="698" viewBox="0 0 698 698" fill="none" xmlns="http://www.w3.org/2000/svg">
  <mask id="path-1-inside-1" fill="white">
    <path fill-rule="evenodd" clip-rule="evenodd"
      d="M547.685 17.5251C547.885 27.7397 541.976 38.2548 529.859 49.7713C509.73 68.7986 366.725 226.124 340.187 255.366C337.884 257.97 333.878 258.07 331.375 255.766C328.771 253.463 328.571 249.457 330.974 246.954C358.013 217.111 500.617 60.2864 521.347 40.6582C530.66 31.8456 535.367 24.1346 535.267 17.7254C535.167 12.3176 531.762 6.80976 524.652 0.400574L524.151 0H541.276C545.582 5.80832 547.585 11.5165 547.685 17.5251ZM468.071 367.326C481.39 349.801 526.254 290.917 545.281 269.386C548.779 265.427 555.917 257.153 565.837 245.652L565.847 245.64L568.514 242.547C597.055 209.4 651.233 146.51 698 94.235V75.408C658.043 119.772 607.871 177.554 559.001 234.336C547.785 247.354 539.673 256.768 535.868 261.074C517.041 282.405 475.181 337.183 458.056 359.715C454.551 364.322 450.746 368.728 446.74 372.934L392.763 429.515C357.522 396.705 324.484 366.71 298.677 343.281L298.677 343.281C275.569 322.302 258.259 306.587 250.359 298.828C246.888 295.413 242.455 290.912 237.223 285.601C223.588 271.757 204.53 252.409 182.962 232.433L395.667 0.100098H378.642L173.849 223.821C117.969 172.247 40.458 101.545 0 64.6926V141.202C62.5187 199.436 161.684 296.684 195.561 329.906L198.284 332.576C208.799 342.891 272.09 401.575 272.09 401.575C243.248 442.634 78.4123 620.289 6.10875 698H23.1331C80.5154 636.011 183.162 524.451 242.648 455.653C247.154 459.859 251.16 464.365 254.465 469.072C260.473 477.584 271.189 488.7 287.812 493.207C295.592 495.287 302.228 497.613 308.089 499.667L308.09 499.668C308.717 499.887 309.335 500.104 309.944 500.317L310.263 500.428C320.133 503.883 328.254 506.726 336.081 506.726C337.183 506.726 338.285 506.626 339.286 506.526C349.901 505.424 370.13 496.712 378.242 493.106C415.696 527.956 454.251 563.808 488.5 595.553C487.899 598.457 484.995 620.99 531.161 671.162L534.566 674.867C541.059 682.01 547.638 689.152 554.144 696.215L554.158 696.23L555.696 697.9H572.62C566.345 690.957 559.892 683.926 553.439 676.894C550.212 673.377 546.984 669.86 543.779 666.355L540.374 662.649C516.54 636.712 507.026 619.287 503.221 609.173C537.476 641.015 566.032 667.472 582.552 682.777L582.561 682.785C590.714 690.339 595.934 695.175 597.456 696.598L598.858 697.9H632.706C588.243 655.94 474.179 547.284 474.179 547.284L274.994 363.821L150.616 246.753C150.616 246.753 113.162 211.503 80.6155 181.16L84.8225 184.883C127.054 222.265 181.093 270.098 188.069 279.4C196.061 289.904 370.995 449.301 455.596 526.389C482.309 550.73 500.016 566.864 500.617 567.513C502.42 569.416 589.845 649.13 643.622 698H682.277L635.911 655.339C635.01 654.538 612.578 633.708 578.829 602.363C594.752 606.97 619.387 619.187 654.037 649.631C668.658 662.349 683.379 671.963 697.9 679.173V649.03C689.087 643.822 680.675 637.614 672.463 630.403C635.811 598.357 608.472 578.529 581.333 570.417C569.616 566.912 548.285 564.008 541.976 566.211C522.524 548.174 501.801 529.367 480.397 509.941L480.396 509.94C454.859 486.763 428.353 462.707 401.876 438.028L455.753 381.547C460.159 377.04 464.265 372.233 468.071 367.326ZM281.904 410.087C293.978 421.388 307.495 432.41 321.648 443.95C336.843 456.338 352.77 469.324 368.428 483.893C358.714 488.099 344.894 493.507 338.084 494.208C331.986 494.897 324.632 492.3 314.693 488.792L314.692 488.791L314.15 488.6L313.532 488.385C307.079 486.135 299.85 483.615 291.117 481.189C278.098 477.684 269.586 468.772 264.679 461.862C260.774 456.354 256.067 451.046 250.759 446.139C256.836 439.082 261.992 433.36 266.384 428.487L266.384 428.486C273.209 420.913 278.187 415.389 281.904 410.087ZM385.853 323.463L275.996 220.215L250.459 246.954L391.661 377.34L444.737 319.257L418.299 291.718L385.853 323.463Z" />
  </mask>
  <path fill-rule="evenodd" clip-rule="evenodd"
    d="M547.685 17.5251C547.885 27.7397 541.976 38.2548 529.859 49.7713C509.73 68.7986 366.725 226.124 340.187 255.366C337.884 257.97 333.878 258.07 331.375 255.766C328.771 253.463 328.571 249.457 330.974 246.954C358.013 217.111 500.617 60.2864 521.347 40.6582C530.66 31.8456 535.367 24.1346 535.267 17.7254C535.167 12.3176 531.762 6.80976 524.652 0.400574L524.151 0H541.276C545.582 5.80832 547.585 11.5165 547.685 17.5251ZM468.071 367.326C481.39 349.801 526.254 290.917 545.281 269.386C548.779 265.427 555.917 257.153 565.837 245.652L565.847 245.64L568.514 242.547C597.055 209.4 651.233 146.51 698 94.235V75.408C658.043 119.772 607.871 177.554 559.001 234.336C547.785 247.354 539.673 256.768 535.868 261.074C517.041 282.405 475.181 337.183 458.056 359.715C454.551 364.322 450.746 368.728 446.74 372.934L392.763 429.515C357.522 396.705 324.484 366.71 298.677 343.281L298.677 343.281C275.569 322.302 258.259 306.587 250.359 298.828C246.888 295.413 242.455 290.912 237.223 285.601C223.588 271.757 204.53 252.409 182.962 232.433L395.667 0.100098H378.642L173.849 223.821C117.969 172.247 40.458 101.545 0 64.6926V141.202C62.5187 199.436 161.684 296.684 195.561 329.906L198.284 332.576C208.799 342.891 272.09 401.575 272.09 401.575C243.248 442.634 78.4123 620.289 6.10875 698H23.1331C80.5154 636.011 183.162 524.451 242.648 455.653C247.154 459.859 251.16 464.365 254.465 469.072C260.473 477.584 271.189 488.7 287.812 493.207C295.592 495.287 302.228 497.613 308.089 499.667L308.09 499.668C308.717 499.887 309.335 500.104 309.944 500.317L310.263 500.428C320.133 503.883 328.254 506.726 336.081 506.726C337.183 506.726 338.285 506.626 339.286 506.526C349.901 505.424 370.13 496.712 378.242 493.106C415.696 527.956 454.251 563.808 488.5 595.553C487.899 598.457 484.995 620.99 531.161 671.162L534.566 674.867C541.059 682.01 547.638 689.152 554.144 696.215L554.158 696.23L555.696 697.9H572.62C566.345 690.957 559.892 683.926 553.439 676.894C550.212 673.377 546.984 669.86 543.779 666.355L540.374 662.649C516.54 636.712 507.026 619.287 503.221 609.173C537.476 641.015 566.032 667.472 582.552 682.777L582.561 682.785C590.714 690.339 595.934 695.175 597.456 696.598L598.858 697.9H632.706C588.243 655.94 474.179 547.284 474.179 547.284L274.994 363.821L150.616 246.753C150.616 246.753 113.162 211.503 80.6155 181.16L84.8225 184.883C127.054 222.265 181.093 270.098 188.069 279.4C196.061 289.904 370.995 449.301 455.596 526.389C482.309 550.73 500.016 566.864 500.617 567.513C502.42 569.416 589.845 649.13 643.622 698H682.277L635.911 655.339C635.01 654.538 612.578 633.708 578.829 602.363C594.752 606.97 619.387 619.187 654.037 649.631C668.658 662.349 683.379 671.963 697.9 679.173V649.03C689.087 643.822 680.675 637.614 672.463 630.403C635.811 598.357 608.472 578.529 581.333 570.417C569.616 566.912 548.285 564.008 541.976 566.211C522.524 548.174 501.801 529.367 480.397 509.941L480.396 509.94C454.859 486.763 428.353 462.707 401.876 438.028L455.753 381.547C460.159 377.04 464.265 372.233 468.071 367.326ZM281.904 410.087C293.978 421.388 307.495 432.41 321.648 443.95C336.843 456.338 352.77 469.324 368.428 483.893C358.714 488.099 344.894 493.507 338.084 494.208C331.986 494.897 324.632 492.3 314.693 488.792L314.692 488.791L314.15 488.6L313.532 488.385C307.079 486.135 299.85 483.615 291.117 481.189C278.098 477.684 269.586 468.772 264.679 461.862C260.774 456.354 256.067 451.046 250.759 446.139C256.836 439.082 261.992 433.36 266.384 428.487L266.384 428.486C273.209 420.913 278.187 415.389 281.904 410.087ZM385.853 323.463L275.996 220.215L250.459 246.954L391.661 377.34L444.737 319.257L418.299 291.718L385.853 323.463Z"
    fill="white" />
  <path
    d="M529.859 49.7713L530.546 50.498L530.548 50.4962L529.859 49.7713ZM547.685 17.5251L546.685 17.5418L546.685 17.5447L547.685 17.5251ZM340.187 255.366L339.447 254.694L339.438 254.703L340.187 255.366ZM331.375 255.766L332.052 255.03L332.045 255.024L332.037 255.017L331.375 255.766ZM330.974 246.954L331.696 247.646L331.706 247.636L331.715 247.625L330.974 246.954ZM521.347 40.6582L520.66 39.9319L520.659 39.9321L521.347 40.6582ZM535.267 17.7254L536.267 17.7098L536.267 17.7069L535.267 17.7254ZM524.652 0.400574L525.321 -0.342199L525.299 -0.361892L525.276 -0.380267L524.652 0.400574ZM524.151 0V-1H521.3L523.526 0.780841L524.151 0ZM541.276 0L542.079 -0.595557L541.779 -1H541.276V0ZM545.281 269.386L544.532 268.724L544.532 268.724L545.281 269.386ZM468.071 367.326L468.861 367.939L468.867 367.931L468.071 367.326ZM565.837 245.652L566.594 246.305L566.597 246.302L565.837 245.652ZM565.847 245.64L565.089 244.987L565.087 244.99L565.847 245.64ZM568.514 242.547L569.272 243.201L569.272 243.2L568.514 242.547ZM698 94.235L698.745 94.9017L699 94.617V94.235H698ZM698 75.408H699V72.8035L697.257 74.7388L698 75.408ZM559.001 234.336L559.758 234.988L559.759 234.988L559.001 234.336ZM535.868 261.074L535.118 260.412L535.118 260.412L535.868 261.074ZM458.056 359.715L458.852 360.321L458.852 360.32L458.056 359.715ZM446.74 372.934L447.464 373.625L447.464 373.624L446.74 372.934ZM392.763 429.515L392.081 430.247L392.804 430.92L393.486 430.206L392.763 429.515ZM298.677 343.281L297.97 343.988L297.987 344.005L298.005 344.022L298.677 343.281ZM298.677 343.281L299.384 342.574L299.367 342.557L299.349 342.54L298.677 343.281ZM250.359 298.828L249.657 299.541L249.658 299.542L250.359 298.828ZM237.223 285.601L237.936 284.899L237.936 284.899L237.223 285.601ZM182.962 232.433L182.225 231.758L181.553 232.491L182.283 233.167L182.962 232.433ZM395.667 0.100098L396.404 0.775361L397.938 -0.899902H395.667V0.100098ZM378.642 0.100098V-0.899902H378.202L377.905 -0.575118L378.642 0.100098ZM173.849 223.821L173.171 224.555L173.909 225.236L174.587 224.496L173.849 223.821ZM0 64.6926L0.673401 63.9534L-1 62.4291L-1 64.6926H0ZM0 141.202H-1V141.637L-0.681587 141.934L0 141.202ZM195.561 329.906L194.861 330.62L194.861 330.62L195.561 329.906ZM198.284 332.576L198.984 331.863L198.984 331.862L198.284 332.576ZM272.09 401.575L272.908 402.15L273.41 401.436L272.77 400.842L272.09 401.575ZM6.10875 698L5.37663 697.319L3.81245 699H6.10875V698ZM23.1331 698V699H23.5701L23.867 698.679L23.1331 698ZM242.648 455.653L243.33 454.922L242.571 454.213L241.891 454.999L242.648 455.653ZM254.465 469.072L253.646 469.647L253.648 469.649L254.465 469.072ZM287.812 493.207L287.551 494.172L287.554 494.173L287.812 493.207ZM308.089 499.667L307.758 500.611L307.78 500.619L307.802 500.625L308.089 499.667ZM308.09 499.668L308.421 498.724L308.399 498.716L308.377 498.71L308.09 499.668ZM309.944 500.317L310.274 499.373L310.274 499.373L309.944 500.317ZM310.263 500.428L310.593 499.484L310.593 499.484L310.263 500.428ZM339.286 506.526L339.386 507.521L339.389 507.52L339.286 506.526ZM378.242 493.106L378.923 492.374L378.439 491.924L377.836 492.193L378.242 493.106ZM488.5 595.553L489.479 595.756L489.593 595.203L489.18 594.82L488.5 595.553ZM531.161 671.162L531.897 670.485L531.897 670.485L531.161 671.162ZM534.566 674.867L535.306 674.194L535.302 674.19L534.566 674.867ZM554.144 696.215L553.409 696.893L553.411 696.895L554.144 696.215ZM554.158 696.23L554.894 695.553L554.891 695.55L554.158 696.23ZM555.696 697.9L554.961 698.577L555.258 698.9H555.696V697.9ZM572.62 697.9V698.9H574.872L573.362 697.229L572.62 697.9ZM553.439 676.894L552.702 677.57L552.702 677.57L553.439 676.894ZM543.779 666.355L544.517 665.68L544.515 665.678L543.779 666.355ZM540.374 662.649L539.638 663.326L539.638 663.326L540.374 662.649ZM503.221 609.173L503.902 608.44L502.285 609.525L503.221 609.173ZM582.552 682.777L581.872 683.51L581.875 683.513L582.552 682.777ZM582.561 682.785L583.24 682.052L583.238 682.049L582.561 682.785ZM597.456 696.598L596.773 697.329L596.775 697.331L597.456 696.598ZM598.858 697.9L598.178 698.633L598.465 698.9H598.858V697.9ZM632.706 697.9V698.9H635.223L633.393 697.173L632.706 697.9ZM474.179 547.284L474.869 546.56L474.863 546.554L474.857 546.549L474.179 547.284ZM274.994 363.821L274.309 364.549L274.316 364.557L274.994 363.821ZM150.616 246.753L151.301 246.025L151.301 246.025L150.616 246.753ZM80.6155 181.16L81.2783 180.411L79.9336 181.891L80.6155 181.16ZM84.8225 184.883L84.1596 185.632L84.1597 185.632L84.8225 184.883ZM188.069 279.4L187.269 280L187.274 280.006L188.069 279.4ZM455.596 526.389L454.922 527.128L454.922 527.128L455.596 526.389ZM500.617 567.513L499.883 568.193L499.891 568.201L500.617 567.513ZM643.622 698L642.95 698.74L643.236 699H643.622V698ZM682.277 698V699H684.841L682.955 697.264L682.277 698ZM635.911 655.339L636.588 654.603L636.582 654.597L636.575 654.592L635.911 655.339ZM578.829 602.363L579.107 601.402L578.149 603.096L578.829 602.363ZM654.037 649.631L653.377 650.382L653.381 650.385L654.037 649.631ZM697.9 679.173L697.455 680.069L698.9 680.786V679.173H697.9ZM697.9 649.03H698.9V648.459L698.409 648.169L697.9 649.03ZM672.463 630.403L673.123 629.652L673.122 629.65L672.463 630.403ZM581.333 570.417L581.046 571.375L581.046 571.375L581.333 570.417ZM541.976 566.211L541.297 566.945L541.738 567.354L542.306 567.155L541.976 566.211ZM480.397 509.941L481.069 509.2L481.061 509.193L480.397 509.941ZM480.396 509.94L479.724 510.68L479.731 510.687L480.396 509.94ZM401.876 438.028L401.152 437.337L400.454 438.069L401.194 438.759L401.876 438.028ZM455.753 381.547L455.038 380.847L455.029 380.856L455.753 381.547ZM321.648 443.95L321.016 444.725L321.016 444.725L321.648 443.95ZM281.904 410.087L282.587 409.357L281.746 408.57L281.085 409.513L281.904 410.087ZM368.428 483.893L368.825 484.811L370.229 484.203L369.109 483.161L368.428 483.893ZM338.084 494.208L337.982 493.213L337.972 493.214L338.084 494.208ZM314.693 488.792L315.026 487.849L314.981 487.833L314.935 487.821L314.693 488.792ZM314.692 488.791L314.36 489.734L314.404 489.75L314.45 489.762L314.692 488.791ZM314.15 488.6L314.483 487.657L314.479 487.656L314.15 488.6ZM313.532 488.385L313.203 489.329L313.203 489.329L313.532 488.385ZM291.117 481.189L291.385 480.226L291.377 480.224L291.117 481.189ZM264.679 461.862L263.863 462.44L263.864 462.441L264.679 461.862ZM250.759 446.139L250.001 445.487L249.372 446.218L250.08 446.873L250.759 446.139ZM266.384 428.487L267.126 429.157L267.131 429.152L266.384 428.487ZM266.384 428.486L265.641 427.817L265.637 427.822L266.384 428.486ZM275.996 220.215L276.68 219.487L275.958 218.807L275.272 219.525L275.996 220.215ZM385.853 323.463L385.168 324.192L385.867 324.849L386.552 324.178L385.853 323.463ZM250.459 246.954L249.736 246.263L249.033 246.998L249.781 247.688L250.459 246.954ZM391.661 377.34L390.983 378.075L391.721 378.757L392.399 378.015L391.661 377.34ZM444.737 319.257L445.476 319.932L446.107 319.24L445.459 318.565L444.737 319.257ZM418.299 291.718L419.021 291.025L418.322 290.297L417.6 291.003L418.299 291.718ZM530.548 50.4962C542.737 38.9115 548.893 28.1421 548.685 17.5055L546.685 17.5447C546.877 27.3374 541.216 37.5981 529.17 49.0465L530.548 50.4962ZM340.928 256.038C367.492 226.768 510.454 69.4905 530.546 50.498L529.172 49.0446C509.007 68.1066 365.959 225.48 339.447 254.694L340.928 256.038ZM330.698 256.502C333.596 259.169 338.247 259.069 340.936 256.028L339.438 254.703C337.522 256.87 334.161 256.971 332.052 255.03L330.698 256.502ZM330.253 246.261C327.448 249.183 327.692 253.843 330.712 256.515L332.037 255.017C329.85 253.083 329.694 249.732 331.696 247.646L330.253 246.261ZM520.659 39.9321C499.893 59.5949 357.248 216.466 330.233 246.282L331.715 247.625C358.778 217.756 501.341 60.9778 522.034 41.3844L520.659 39.9321ZM534.267 17.741C534.313 20.6949 533.251 24.0387 530.982 27.7711C528.716 31.5005 525.277 35.5627 520.66 39.9319L522.034 41.3846C526.73 36.9411 530.302 32.7416 532.691 28.8099C535.079 24.8814 536.321 21.165 536.267 17.7098L534.267 17.741ZM523.982 1.14335C531.038 7.50333 534.175 12.7657 534.267 17.7439L536.267 17.7069C536.159 11.8696 532.486 6.11618 525.321 -0.342199L523.982 1.14335ZM523.526 0.780841L524.027 1.18141L525.276 -0.380267L524.776 -0.780841L523.526 0.780841ZM541.276 -1H524.151V1H541.276V-1ZM548.685 17.5084C548.58 11.2639 546.492 5.35719 542.079 -0.595557L540.472 0.595557C544.671 6.25945 546.589 11.7691 546.685 17.5418L548.685 17.5084ZM544.532 268.724C525.474 290.29 480.581 349.213 467.274 366.721L468.867 367.931C482.198 350.39 527.034 291.544 546.031 270.048L544.532 268.724ZM565.08 244.998C555.157 256.503 548.025 264.771 544.532 268.724L546.031 270.048C549.534 266.084 556.677 257.803 566.594 246.305L565.08 244.998ZM565.087 244.99L565.077 245.001L566.597 246.302L566.606 246.291L565.087 244.99ZM567.757 241.894L565.089 244.987L566.604 246.294L569.272 243.201L567.757 241.894ZM697.255 93.5682C650.48 145.851 596.297 208.748 567.757 241.895L569.272 243.2C597.814 210.051 651.986 147.168 698.745 94.9017L697.255 93.5682ZM697 75.408V94.235H699V75.408H697ZM559.759 234.988C608.628 178.207 658.794 120.432 698.743 76.0772L697.257 74.7388C657.292 119.111 607.113 176.901 558.243 233.683L559.759 234.988ZM536.617 261.736C540.428 257.424 548.545 248.004 559.758 234.988L558.243 233.683C547.024 246.705 538.918 256.112 535.118 260.412L536.617 261.736ZM458.852 360.32C475.988 337.774 517.821 283.032 536.617 261.736L535.118 260.412C516.261 281.777 474.374 336.592 457.26 359.11L458.852 360.32ZM447.464 373.624C451.492 369.395 455.322 364.96 458.852 360.321L457.26 359.11C453.78 363.684 449.999 368.062 446.016 372.245L447.464 373.624ZM393.486 430.206L447.464 373.625L446.016 372.244L392.039 428.825L393.486 430.206ZM298.005 344.022C323.812 367.451 356.846 397.442 392.081 430.247L393.444 428.783C358.198 395.968 325.156 365.97 299.349 342.541L298.005 344.022ZM297.969 343.988L297.97 343.988L299.384 342.574L299.384 342.574L297.969 343.988ZM249.658 299.542C257.577 307.318 274.907 323.051 298.004 344.021L299.349 342.54C276.231 321.552 258.942 305.856 251.059 298.115L249.658 299.542ZM236.511 286.303C241.74 291.611 246.18 296.119 249.657 299.541L251.06 298.115C247.596 294.707 243.169 290.212 237.936 284.899L236.511 286.303ZM182.283 233.167C203.832 253.125 222.875 272.458 236.511 286.303L237.936 284.899C224.301 271.056 205.229 251.693 183.642 231.699L182.283 233.167ZM394.929 -0.575166L182.225 231.758L183.7 233.108L396.404 0.775361L394.929 -0.575166ZM378.642 1.1001H395.667V-0.899902H378.642V1.1001ZM174.587 224.496L379.38 0.775314L377.905 -0.575118L173.111 223.145L174.587 224.496ZM-0.673401 65.4319C39.7846 102.285 117.293 172.984 173.171 224.555L174.527 223.086C118.645 171.509 41.1313 100.806 0.673401 63.9534L-0.673401 65.4319ZM1 141.202V64.6926H-1V141.202H1ZM196.261 329.192C162.387 295.973 63.2117 198.715 0.681587 140.471L-0.681587 141.934C61.8256 200.157 160.981 297.395 194.861 330.62L196.261 329.192ZM198.984 331.862L196.261 329.192L194.861 330.62L197.584 333.29L198.984 331.862ZM272.09 401.575C272.77 400.842 272.769 400.842 272.769 400.841C272.769 400.841 272.768 400.84 272.767 400.839C272.765 400.838 272.762 400.835 272.758 400.831C272.751 400.824 272.739 400.814 272.724 400.799C272.693 400.771 272.648 400.729 272.588 400.673C272.468 400.562 272.29 400.397 272.056 400.181C271.59 399.748 270.905 399.113 270.03 398.301C268.279 396.676 265.766 394.343 262.717 391.512C256.619 385.849 248.38 378.192 239.812 370.212C222.668 354.246 204.23 337.008 198.984 331.863L197.584 333.29C202.853 338.459 221.318 355.721 238.449 371.676C247.018 379.656 255.258 387.315 261.356 392.978C264.405 395.809 266.918 398.142 268.67 399.767C269.545 400.579 270.23 401.215 270.696 401.647C270.93 401.863 271.108 402.029 271.228 402.14C271.288 402.196 271.333 402.238 271.364 402.266C271.379 402.28 271.391 402.291 271.398 402.298C271.402 402.301 271.405 402.304 271.407 402.306C271.408 402.307 271.409 402.307 271.409 402.308C271.41 402.308 271.41 402.309 272.09 401.575ZM6.84087 698.681C42.9929 659.825 102.281 595.98 156.138 536.716C209.967 477.481 258.442 422.744 272.908 402.15L271.272 401.001C256.896 421.465 208.533 476.085 154.658 535.37C100.81 594.626 41.5282 658.463 5.37663 697.319L6.84087 698.681ZM23.1331 697H6.10875V699H23.1331V697ZM241.891 454.999C182.419 523.782 79.7836 635.33 22.3993 697.321L23.867 698.679C81.2471 636.693 183.906 525.12 243.404 456.307L241.891 454.999ZM255.283 468.497C251.933 463.726 247.88 459.168 243.33 454.922L241.965 456.384C246.428 460.549 250.387 465.004 253.646 469.647L255.283 468.497ZM288.074 492.241C271.755 487.818 261.213 476.898 255.282 468.495L253.648 469.649C259.733 478.27 270.622 489.583 287.551 494.172L288.074 492.241ZM308.42 498.724C302.56 496.67 295.892 494.332 288.071 492.241L287.554 494.173C295.293 496.242 301.896 498.556 307.758 500.611L308.42 498.724ZM308.377 498.71L308.376 498.71L307.802 500.625L307.803 500.626L308.377 498.71ZM310.274 499.373C309.665 499.16 309.048 498.944 308.421 498.724L307.759 500.611C308.386 500.831 309.004 501.048 309.614 501.261L310.274 499.373ZM310.593 499.484L310.274 499.373L309.614 501.261L309.932 501.372L310.593 499.484ZM336.081 505.726C328.459 505.726 320.511 502.956 310.593 499.484L309.932 501.372C319.754 504.81 328.05 507.726 336.081 507.726V505.726ZM339.187 505.531C338.187 505.631 337.129 505.726 336.081 505.726V507.726C337.238 507.726 338.383 507.621 339.386 507.521L339.187 505.531ZM377.836 492.193C373.787 493.992 366.723 497.062 359.353 499.818C351.952 502.586 344.349 504.995 339.183 505.531L339.389 507.52C344.838 506.955 352.657 504.457 360.053 501.692C367.479 498.915 374.586 495.826 378.648 494.02L377.836 492.193ZM489.18 594.82C454.931 563.075 416.377 527.224 378.923 492.374L377.561 493.839C415.014 528.689 453.57 564.541 487.82 596.287L489.18 594.82ZM531.897 670.485C485.819 620.409 488.974 598.195 489.479 595.756L487.521 595.351C486.824 598.72 484.17 621.571 530.425 671.839L531.897 670.485ZM535.302 674.19L531.897 670.485L530.425 671.838L533.829 675.544L535.302 674.19ZM554.88 695.538C548.373 688.474 541.796 681.334 535.306 674.194L533.826 675.54C540.322 682.685 546.903 689.83 553.409 696.893L554.88 695.538ZM554.891 695.55L554.878 695.535L553.411 696.895L553.425 696.91L554.891 695.55ZM556.432 697.222L554.894 695.553L553.422 696.908L554.961 698.577L556.432 697.222ZM572.62 696.9H555.696V698.9H572.62V696.9ZM552.702 677.57C559.156 684.602 565.606 691.631 571.878 698.57L573.362 697.229C567.084 690.283 560.628 683.249 554.176 676.218L552.702 677.57ZM543.041 667.03C546.247 670.536 549.475 674.053 552.702 677.57L554.176 676.218C550.948 672.701 547.721 669.185 544.517 665.68L543.041 667.03ZM539.638 663.326L543.043 667.031L544.515 665.678L541.11 661.973L539.638 663.326ZM502.285 609.525C506.149 619.795 515.747 637.328 539.638 663.326L541.11 661.973C517.333 636.097 507.904 618.779 504.157 608.821L502.285 609.525ZM583.231 682.043C566.712 666.738 538.156 640.281 503.902 608.44L502.54 609.905C536.796 641.748 565.352 668.205 581.872 683.51L583.231 682.043ZM583.238 682.049L583.229 682.041L581.875 683.513L581.884 683.521L583.238 682.049ZM598.139 695.867C596.614 694.442 591.392 689.604 583.24 682.052L581.881 683.519C590.036 691.074 595.253 695.907 596.773 697.329L598.139 695.867ZM599.538 697.167L598.136 695.865L596.775 697.331L598.178 698.633L599.538 697.167ZM632.706 696.9H598.858V698.9H632.706V696.9ZM474.179 547.284C473.49 548.008 473.49 548.009 473.491 548.009C473.492 548.01 473.493 548.011 473.495 548.013C473.498 548.016 473.503 548.021 473.51 548.028C473.524 548.041 473.545 548.061 473.572 548.087C473.627 548.139 473.71 548.218 473.818 548.321C474.035 548.528 474.358 548.836 474.781 549.239C475.628 550.045 476.875 551.232 478.478 552.759C481.683 555.812 486.313 560.22 492.007 565.641C503.395 576.484 519.043 591.377 536.08 607.582C570.153 639.99 609.787 677.646 632.02 698.627L633.393 697.173C611.163 676.194 571.532 638.542 537.458 606.132C520.421 589.928 504.774 575.035 493.386 564.193C487.692 558.772 483.063 554.364 479.857 551.311C478.254 549.784 477.007 548.597 476.161 547.791C475.738 547.387 475.415 547.08 475.198 546.873C475.089 546.77 475.007 546.691 474.952 546.639C474.924 546.613 474.904 546.593 474.89 546.58C474.883 546.573 474.878 546.568 474.874 546.565C474.873 546.563 474.871 546.562 474.87 546.561C474.869 546.56 474.869 546.56 474.179 547.284ZM274.316 364.557L473.502 548.02L474.857 546.549L275.671 363.086L274.316 364.557ZM149.93 247.482L274.309 364.549L275.679 363.093L151.301 246.025L149.93 247.482ZM79.9336 181.891C96.2057 197.062 113.705 213.459 127.136 226.064C133.852 232.367 139.551 237.721 143.57 241.5C145.58 243.389 147.17 244.885 148.258 245.908C148.802 246.419 149.22 246.813 149.502 247.078C149.643 247.211 149.75 247.312 149.822 247.38C149.858 247.413 149.885 247.439 149.903 247.456C149.912 247.465 149.919 247.471 149.924 247.475C149.926 247.477 149.928 247.479 149.929 247.48C149.929 247.481 149.93 247.481 149.93 247.481C149.93 247.482 149.93 247.482 150.616 246.753C151.301 246.025 151.301 246.025 151.301 246.025C151.3 246.025 151.3 246.024 151.299 246.024C151.298 246.023 151.297 246.021 151.294 246.019C151.29 246.015 151.283 246.008 151.274 246C151.256 245.983 151.229 245.957 151.193 245.923C151.121 245.856 151.014 245.755 150.872 245.622C150.59 245.356 150.172 244.963 149.628 244.451C148.54 243.428 146.95 241.932 144.94 240.043C140.92 236.264 135.221 230.909 128.505 224.606C115.073 212 97.5719 195.601 81.2974 180.428L79.9336 181.891ZM85.4853 184.135L81.2783 180.411L79.9527 181.908L84.1596 185.632L85.4853 184.135ZM188.869 278.8C187.064 276.393 182.308 271.597 175.622 265.24C168.906 258.855 160.17 250.829 150.338 241.93C130.672 224.132 106.6 202.825 85.4853 184.135L84.1597 185.632C105.277 204.324 129.34 225.624 148.996 243.413C158.824 252.308 167.546 260.321 174.244 266.689C180.971 273.085 185.587 277.756 187.269 280L188.869 278.8ZM456.269 525.65C413.969 487.106 349.086 427.986 293.781 377.189C266.127 351.79 240.87 328.474 222.028 310.853C212.606 302.041 204.791 294.656 199.084 289.147C196.229 286.393 193.906 284.11 192.173 282.355C190.423 280.583 189.319 279.391 188.865 278.795L187.274 280.006C187.819 280.723 189.018 282.007 190.75 283.761C192.499 285.532 194.836 287.827 197.695 290.586C203.414 296.106 211.238 303.5 220.662 312.313C239.511 329.941 264.773 353.262 292.428 378.662C347.737 429.462 412.622 488.584 454.922 527.128L456.269 525.65ZM501.351 566.834C501.164 566.632 499.894 565.457 497.762 563.5C495.599 561.515 492.494 558.676 488.573 555.097C480.731 547.939 469.626 537.82 456.269 525.65L454.922 527.128C468.279 539.299 479.384 549.417 487.225 556.574C491.145 560.153 494.249 562.99 496.41 564.973C497.49 565.965 498.334 566.742 498.926 567.291C499.222 567.566 499.454 567.782 499.62 567.939C499.703 568.017 499.768 568.079 499.815 568.125C499.869 568.177 499.886 568.195 499.883 568.193L501.351 566.834ZM644.295 697.26C617.407 672.825 582.107 640.68 553.303 614.405C538.901 601.268 526.124 589.598 516.835 581.094C507.516 572.563 501.761 567.267 501.343 566.825L499.891 568.201C500.374 568.711 506.224 574.092 515.485 582.57C524.775 591.075 537.553 602.745 551.955 615.883C580.759 642.158 616.06 674.305 642.95 698.74L644.295 697.26ZM682.277 697H643.622V699H682.277V697ZM635.234 656.075L681.6 698.736L682.955 697.264L636.588 654.603L635.234 656.075ZM578.149 603.096C611.887 634.431 634.334 655.276 635.247 656.086L636.575 654.592C635.685 653.8 613.268 632.985 579.51 601.63L578.149 603.096ZM654.697 648.88C619.977 618.374 595.215 606.063 579.107 601.402L578.551 603.324C594.289 607.877 618.798 620 653.377 650.382L654.697 648.88ZM698.345 678.277C683.901 671.105 669.251 661.539 654.693 648.876L653.381 650.385C668.065 663.159 682.857 672.82 697.455 680.069L698.345 678.277ZM696.9 649.03V679.173H698.9V649.03H696.9ZM671.804 631.155C680.056 638.401 688.518 644.648 697.391 649.891L698.409 648.169C689.656 642.997 681.294 636.826 673.123 629.652L671.804 631.155ZM581.046 571.375C607.956 579.418 635.151 599.109 671.805 631.156L673.122 629.65C636.47 597.606 608.987 577.639 581.619 569.459L581.046 571.375ZM542.306 567.155C543.71 566.665 546.078 566.429 549.134 566.446C552.156 566.463 555.741 566.725 559.51 567.167C567.054 568.051 575.257 569.643 581.046 571.375L581.619 569.459C575.692 567.686 567.371 566.074 559.743 565.18C555.927 564.733 552.264 564.464 549.145 564.446C546.061 564.429 543.397 564.656 541.647 565.267L542.306 567.155ZM479.725 510.681C501.13 530.108 521.848 548.912 541.297 566.945L542.656 565.478C523.199 547.437 502.472 528.625 481.069 509.2L479.725 510.681ZM479.731 510.687L479.732 510.688L481.061 509.193L481.06 509.192L479.731 510.687ZM401.194 438.759C427.676 463.443 454.188 487.505 479.724 510.68L481.068 509.199C455.531 486.022 429.029 461.97 402.558 437.296L401.194 438.759ZM455.029 380.856L401.152 437.337L402.599 438.718L456.477 382.237L455.029 380.856ZM467.28 366.713C463.494 371.596 459.413 376.373 455.038 380.847L456.468 382.246C460.905 377.708 465.036 372.871 468.861 367.939L467.28 366.713ZM322.28 443.175C308.121 431.63 294.631 420.631 282.587 409.357L281.221 410.818C293.324 422.146 306.869 433.19 321.016 444.725L322.28 443.175ZM369.109 483.161C353.423 468.566 337.472 455.561 322.28 443.175L321.016 444.725C336.214 457.116 352.116 470.082 367.747 484.625L369.109 483.161ZM338.187 495.203C341.724 494.839 346.983 493.272 352.502 491.307C358.05 489.332 363.956 486.919 368.825 484.811L368.03 482.976C363.186 485.073 357.324 487.467 351.832 489.423C346.31 491.389 341.255 492.876 337.982 493.213L338.187 495.203ZM314.36 489.734C319.317 491.485 323.684 493.027 327.577 494.041C331.47 495.056 334.971 495.566 338.197 495.202L337.972 493.214C335.1 493.539 331.874 493.095 328.081 492.106C324.287 491.117 320.007 489.607 315.026 487.849L314.36 489.734ZM314.45 489.762L314.45 489.762L314.935 487.821L314.935 487.821L314.45 489.762ZM313.817 489.543L314.36 489.734L315.025 487.848L314.483 487.657L313.817 489.543ZM313.203 489.329L313.821 489.544L314.479 487.656L313.861 487.44L313.203 489.329ZM290.849 482.153C299.548 484.569 306.749 487.079 313.203 489.329L313.861 487.44C307.408 485.191 300.152 482.661 291.385 480.226L290.849 482.153ZM263.864 462.441C268.841 469.449 277.526 478.566 290.857 482.155L291.377 480.224C278.671 476.803 270.331 468.094 265.494 461.283L263.864 462.441ZM250.08 446.873C255.341 451.737 260.001 456.993 263.863 462.44L265.495 461.283C261.546 455.714 256.792 450.355 251.438 445.405L250.08 446.873ZM265.641 427.818C261.249 432.691 256.087 438.42 250.001 445.487L251.517 446.792C257.586 439.744 262.735 434.03 267.126 429.157L265.641 427.818ZM265.637 427.822L265.636 427.823L267.131 429.152L267.132 429.151L265.637 427.822ZM281.085 409.513C277.411 414.754 272.481 420.227 265.641 427.817L267.127 429.156C273.938 421.598 278.963 416.024 282.723 410.662L281.085 409.513ZM275.311 220.944L385.168 324.192L386.538 322.735L276.68 219.487L275.311 220.944ZM251.182 247.644L276.719 220.906L275.272 219.525L249.736 246.263L251.182 247.644ZM392.34 376.606L251.137 246.219L249.781 247.688L390.983 378.075L392.34 376.606ZM443.999 318.583L390.923 376.666L392.399 378.015L445.476 319.932L443.999 318.583ZM417.578 292.41L444.016 319.95L445.459 318.565L419.021 291.025L417.578 292.41ZM386.552 324.178L418.999 292.433L417.6 291.003L385.154 322.748L386.552 324.178Z"
    fill="#D8D8D8" mask="url(#path-1-inside-1)" />
  <rect x="0.5" y="0.5" width="697" height="697" stroke="#C2C2C2" />
</svg>