<svg viewBox="0 0 370 68" fill="none" xmlns="http://www.w3.org/2000/svg">
  <path
    d="M239.63 37.29L216.23 8.04C213.36 4.46 209.03 2.37 204.44 2.37H181.29V29.87C181.29 38.66 175.08 45.99 166.55 45.99C157.93 45.99 151.72 38.66 151.72 29.87V2.37H128.64C124.6 2.37 121.32 5.65 121.32 9.69V37.28L96.11 5.77C94.39 3.62 91.78 2.36 89.02 2.36C84 2.36 79.94 6.43 79.94 11.44V51.67C79.94 55.38 82.95 58.39 86.66 58.39C90.37 58.39 93.38 55.38 93.38 51.67V24.87L119.3 55.99C120.58 57.52 122.47 58.41 124.47 58.41H128.04C131.75 58.41 134.76 55.4 134.76 51.69V15.82H138.01V29.87C138.01 47.89 150.6 59.87 166.55 59.87C182.41 59.87 195 47.89 195 29.87V15.82H198.25V51.68C198.25 55.39 201.26 58.4 204.97 58.4C208.68 58.4 211.69 55.39 211.69 51.68V24.87L237.61 55.99C238.89 57.52 240.78 58.41 242.78 58.41H246.35C250.06 58.41 253.07 55.4 253.07 51.69V9.09C253.07 5.38 250.06 2.37 246.35 2.37C242.64 2.37 239.63 5.38 239.63 9.09V37.29V37.29Z"
    fill="white" />
  <path
    d="M287.05 0.95C269.94 0.0599999 255.89 13.66 255.89 30.48C255.89 46.77 269.08 59.96 285.46 59.96C302.48 59.96 316.12 45.56 314.87 28.27C313.8 13.58 301.76 1.71 287.05 0.95ZM285.96 47.02C276.5 47.3 268.82 39.78 268.82 30.47C268.82 21.33 276.23 13.83 285.46 13.83C294.99 13.83 302.65 21.99 301.97 31.66C301.38 40.05 294.36 46.78 285.96 47.02Z"
    fill="white" />
  <path
    d="M367.41 4.64L367.4 4.63C364.4 1.63 359.53 1.65 356.55 4.67L342.03 19.39L327.06 4.68C324.07 1.74 319.26 1.76 316.29 4.73L316.27 4.75C313.27 7.75 313.29 12.62 316.31 15.6L331.12 30.21L316.21 45.18C313.24 48.17 313.24 53 316.22 55.98L316.28 56.04C319.25 59.01 324.07 59.03 327.06 56.08L342.03 41.31L356.55 56.03C359.53 59.05 364.4 59.07 367.4 56.07C370.38 53.09 370.39 48.27 367.42 45.28L352.67 30.4L367.44 15.43C370.4 12.43 370.38 7.61 367.41 4.64Z"
    fill="white" />
  <!-- <path
    d="M22.82 43.86C22.82 47.95 21.88 51.23 20 53.71C18.12 56.19 15.6 57.43 12.44 57.43C9.05999 57.43 6.44999 56.24 4.59999 53.85L4.37999 56.94H0.179993V18.97H4.74999V33.13C6.59999 30.84 9.13999 29.69 12.39 29.69C15.64 29.69 18.19 30.92 20.04 33.37C21.89 35.83 22.82 39.19 22.82 43.46V43.86ZM18.24 43.34C18.24 40.23 17.64 37.82 16.44 36.12C15.24 34.42 13.51 33.57 11.25 33.57C8.22999 33.57 6.06999 34.97 4.74999 37.77V49.34C6.14999 52.14 8.33 53.54 11.3 53.54C13.49 53.54 15.2 52.69 16.42 50.99C17.63 49.31 18.24 46.76 18.24 43.34Z"
    fill="white" /> -->
  <!-- <path d="M37.05 50.24L43.28 30.19H48.17L37.42 61.06C35.76 65.51 33.11 67.73 29.49 67.73L28.62 67.66L26.91 67.34V63.63L28.15 63.73C29.7 63.73 30.91 63.42 31.77 62.79C32.63 62.16 33.35 61.02 33.91 59.35L34.92 56.63L25.38 30.18H30.37L37.05 50.24Z" fill="white"/> -->
</svg>