<svg width="460" height="183" viewBox="0 0 460 183" fill="none" xmlns="http://www.w3.org/2000/svg">
<path d="M135.62 120.551V147.424H115.528V179.068H86.3949V147.424H0V120.551L60.5266 3.26492H91.9201L31.3935 120.551H86.3949V74.842H115.528V120.551H135.62Z" fill="#202020"/>
<path d="M280.003 157.47C267.948 174.045 251.037 182.333 229.271 182.333C207.505 182.333 190.511 174.045 178.288 157.47C166.233 140.894 160.205 118.793 160.205 91.1666C160.205 63.5404 166.233 41.4394 178.288 24.8636C190.511 8.28788 207.505 0 229.271 0C251.037 0 267.948 8.28788 280.003 24.8636C292.225 41.4394 298.337 63.5404 298.337 91.1666C298.337 118.793 292.225 140.894 280.003 157.47ZM229.271 154.205C242.331 154.205 252.293 148.763 259.158 137.88C266.022 126.997 269.455 111.426 269.455 91.1666C269.455 70.9074 266.022 55.3362 259.158 44.4532C252.293 33.5701 242.331 28.1286 229.271 28.1286C216.379 28.1286 206.417 33.5701 199.385 44.4532C192.52 55.3362 189.087 70.9074 189.087 91.1666C189.087 111.426 192.52 126.997 199.385 137.88C206.417 148.763 216.379 154.205 229.271 154.205Z" fill="#202020"/>
<path d="M460 120.551V147.424H439.908V179.068H410.775V147.424H324.38V120.551L384.907 3.26492H416.3L355.774 120.551H410.775V74.842H439.908V120.551H460Z" fill="#202020"/>
</svg>
