<svg width="34" height="20" viewBox="0 0 34 20" fill="none" xmlns="http://www.w3.org/2000/svg">
<path d="M26.0557 20C29.62 20 32.4913 17.1287 32.4913 13.5644C32.4913 10 29.62 7.0297 26.0557 7.0297C22.7884 7.0297 20.1151 9.50495 19.62 12.5743C18.7289 8.51485 20.1151 3.9604 24.1745 2.27723C25.2636 1.88119 26.3527 1.58416 27.4418 1.58416C29.125 1.58416 30.8082 2.07921 32.3923 2.97029L33.1844 1.48515C31.3032 0.49505 29.323 0 27.4418 0C23.2834 0 19.422 2.47524 18.2339 6.63366C16.4517 12.8713 18.4319 20 26.0557 20ZM8.43192 20C11.9963 20 14.8676 17.1287 14.8676 13.5644C14.8676 10 11.9963 7.0297 8.43192 7.0297C5.16459 7.0297 2.49133 9.50495 1.99628 12.5743C1.10519 8.51485 2.49133 3.9604 6.55073 2.27723C7.63984 1.88119 8.72895 1.58416 9.81806 1.58416C11.5012 1.58416 13.1844 2.07921 14.7686 2.97029L15.5606 1.48515C13.6794 0.49505 11.6992 0 9.81806 0C5.65964 0 1.79826 2.57426 0.610138 6.63366C-1.17204 12.8713 0.808157 20 8.43192 20Z" fill="#D8D8D8"/>
</svg>
