<svg width="34" height="20" viewBox="0 0 34 20" fill="none" xmlns="http://www.w3.org/2000/svg">
<path d="M7.12791 2.27786e-06C3.56355 2.58947e-06 0.692267 2.87129 0.692267 6.43565C0.692267 10 3.56356 12.9703 7.12791 12.9703C10.3952 12.9703 13.0685 10.495 13.5636 7.42575C14.4546 11.4851 13.0685 16.0396 9.0091 17.7228C7.91999 18.1188 6.83088 18.4158 5.74177 18.4158C4.05861 18.4158 2.37544 17.9208 0.791282 17.0297L-0.000797402 18.5149C1.88039 19.505 3.86059 20 5.74177 20C9.90019 20 13.7616 17.5248 14.9497 13.3663C16.7319 7.12872 14.7517 1.61137e-06 7.12791 2.27786e-06ZM24.7517 7.37142e-07C21.1873 1.04875e-06 18.316 2.87129 18.316 6.43564C18.316 10 21.1873 12.9703 24.7517 12.9703C28.019 12.9703 30.6923 10.495 31.1873 7.42575C32.0784 11.4851 30.6923 16.0396 26.6329 17.7228C25.5438 18.1188 24.4546 18.4158 23.3655 18.4158C21.6824 18.4158 19.9992 17.9208 18.415 17.0297L17.623 18.5149C19.5041 19.505 21.4843 20 23.3655 20C27.524 20 31.3853 17.4257 32.5735 13.3663C34.3556 7.12872 32.3754 7.06513e-08 24.7517 7.37142e-07Z" fill="#D8D8D8"/>
</svg>
