<svg width="20" height="21" viewBox="0 0 20 21" fill="none" xmlns="http://www.w3.org/2000/svg">
<path d="M10.1455 3.94922C10.2383 3.94922 10.3709 3.95585 10.5035 3.95585C10.3974 3.95585 10.2781 3.95585 10.1455 3.94922Z" fill="white"/>
<path d="M12.3929 8.45648C12.4128 8.38356 12.3995 8.29739 12.3929 8.21784C12.3001 7.11083 11.624 6.62692 10.6893 6.56063C10.5368 6.54738 10.4043 6.66007 10.3844 6.79264C10.3579 6.9451 10.4507 7.07768 10.6098 7.11083C10.7556 7.14397 10.9147 7.13734 11.0605 7.17711C11.1798 7.21026 11.2925 7.26329 11.3853 7.33621C11.5975 7.48867 11.7234 7.72068 11.7897 7.96594C11.8228 8.09189 11.8295 8.22447 11.8493 8.35042C11.8692 8.52939 11.9687 8.63545 12.1543 8.64208C12.141 8.64208 12.1211 8.64208 12.1145 8.64208C12.1278 8.64208 12.1476 8.64208 12.1808 8.64208C12.2007 8.64208 12.2007 8.64208 12.194 8.64208C12.2802 8.64208 12.3664 8.58242 12.3929 8.45648Z" fill="white"/>
<path d="M13.1075 8.67551C13.1075 8.75506 13.1142 8.8346 13.134 8.90752C13.2202 9.15279 13.5848 9.11964 13.6511 8.88101C13.671 8.81472 13.671 8.7418 13.671 8.71529C13.6644 8.54957 13.6577 8.42362 13.6445 8.29767C13.6445 8.24464 13.6312 8.19824 13.6246 8.14521C13.4589 7.02494 12.8821 6.18307 11.8812 5.65277C11.3907 5.39424 10.8537 5.2683 10.2969 5.24178C10.1312 5.22852 10.0119 5.34121 10.0052 5.50031C9.99861 5.66603 10.0848 5.77209 10.2571 5.7986C10.3963 5.81849 10.5355 5.83175 10.6748 5.85163C10.9929 5.90466 11.3045 5.99084 11.5895 6.13004C12.0668 6.36205 12.4712 6.74653 12.7363 7.21054C13.0015 7.65467 13.1075 8.16509 13.1075 8.67551Z" fill="white"/>
<path d="M14.3674 12.1489C14.1023 11.9169 13.8172 11.718 13.5322 11.5125C13.2405 11.307 12.9489 11.0949 12.6439 10.9027C12.339 10.7104 11.9811 10.7104 11.696 10.9424C11.411 11.1745 11.2718 11.6318 10.8608 11.6782C10.6155 11.7048 10.4034 11.6053 10.1913 11.5125C8.85889 10.9557 8.04354 9.92824 7.56627 8.60247C7.50661 8.43012 7.50661 8.24451 7.60604 8.08542C7.65907 7.99925 7.73199 7.93296 7.81153 7.8733C7.89771 7.80038 7.98388 7.72747 8.08331 7.66118C8.47441 7.39602 8.53407 6.91875 8.31532 6.52765C7.964 5.89128 7.53312 5.3212 7.06247 4.77101C6.84372 4.51911 6.55206 4.43294 6.25376 4.57877C5.86929 4.76438 5.51796 5.00965 5.24618 5.34109C4.95451 5.68579 4.6761 6.16306 4.8617 6.62708C5.0672 7.13087 5.27269 7.64129 5.51133 8.13182C6.02175 9.16592 6.61834 10.1404 7.38729 11.0021C8.73294 12.5201 10.4365 13.5078 12.2926 14.2767C12.4716 14.3497 12.6638 14.3894 12.8627 14.4557C13.035 14.4027 13.2273 14.3762 13.3797 14.29C13.9299 13.9917 14.3144 13.5277 14.5729 12.9709C14.7055 12.6659 14.6193 12.3676 14.3674 12.1489Z" fill="white"/>
<path d="M14.8389 8.01269C14.4147 5.62631 12.4393 4.02876 10.033 3.94922C10.0198 3.94922 10.0131 3.94922 9.99989 3.94922C9.95349 3.94922 9.90709 3.94922 9.86069 3.94922C9.68834 3.95585 9.53587 4.10168 9.56902 4.28066C9.60879 4.49278 9.83417 4.50604 10.0065 4.52593C10.2783 4.55244 10.5567 4.5657 10.8285 4.61873C12.6249 4.93691 14.0634 6.4284 14.3086 8.23144C14.355 8.57614 14.3749 8.92084 14.4014 9.26554C14.4147 9.43789 14.5009 9.60361 14.6931 9.59698C14.8787 9.59698 14.9781 9.43126 14.9649 9.25228C14.9384 8.84129 14.9119 8.42368 14.8389 8.01269Z" fill="white"/>
<path d="M19.5517 4.96996L19.5451 4.94345C19.0612 2.99457 16.8869 0.899863 14.8917 0.462361H14.8651C11.6303 -0.15412 8.35564 -0.15412 5.1274 0.462361H5.10751C3.11223 0.899863 0.93135 2.98794 0.454075 4.94345L0.447446 4.96996C-0.149149 7.69441 -0.149149 10.4586 0.447446 13.1831L0.454075 13.2096C0.918092 15.0789 2.93326 17.0742 4.85562 17.6244V19.7986C4.85562 20.5875 5.81679 20.9719 6.36036 20.4085L8.56776 18.1149C9.04503 18.1414 9.52231 18.1547 10.0062 18.1547C11.6303 18.1547 13.261 18.0022 14.8784 17.6907L14.8983 17.6841C16.8936 17.2465 19.0744 15.1518 19.5517 13.203L19.5584 13.1764C20.1483 10.4586 20.1483 7.69441 19.5517 4.96996ZM17.8083 12.7853C17.4835 14.0581 15.833 15.6424 14.5204 15.934C12.8036 16.2589 11.0735 16.3981 9.3367 16.3517C9.30356 16.3517 9.27041 16.3649 9.2439 16.3914C8.99863 16.6433 7.63309 18.042 7.63309 18.042L5.92286 19.7986C5.79691 19.9312 5.57816 19.8384 5.57816 19.6594V16.0534C5.57816 15.9937 5.53838 15.9407 5.47872 15.934C4.16622 15.6424 2.51564 14.0581 2.19083 12.7853C1.65389 10.3194 1.65389 7.82699 2.19083 5.36106C2.51564 4.08833 4.16622 2.51067 5.47872 2.219C8.48158 1.64892 11.5242 1.64892 14.5204 2.219C15.833 2.51067 17.4835 4.09496 17.8083 5.36769C18.3453 7.82699 18.3453 10.3261 17.8083 12.7853Z" fill="white"/>
</svg>
