<svg width="120" height="120" viewBox="0 0 120 120" fill="none" xmlns="http://www.w3.org/2000/svg">
<path fill-rule="evenodd" clip-rule="evenodd" d="M114 8H116V110.1C118.282 110.563 120 112.581 120 115C120 117.761 117.761 120 115 120C112.581 120 110.563 118.282 110.1 116H8V114H110.1C110.498 112.041 112.041 110.498 114 110.1V8ZM117.778 115C117.778 116.534 116.534 117.778 115 117.778C113.466 117.778 112.222 116.534 112.222 115C112.222 113.466 113.466 112.222 115 112.222C116.534 112.222 117.778 113.466 117.778 115Z" fill="#C2C2C2"/>
<path fill-rule="evenodd" clip-rule="evenodd" d="M6 9.89998C7.95914 9.5023 9.50229 7.95913 9.89998 6H110.1C110.563 8.28224 112.581 10 115 10C117.761 10 120 7.76142 120 5C120 2.23858 117.761 0 115 0C112.581 0 110.563 1.71776 110.1 4H9.89998C9.43671 1.71776 7.41896 0 5 0C2.23857 0 0 2.23858 0 5C0 7.41895 1.71776 9.43671 4 9.89998V110.1C1.71776 110.563 0 112.581 0 115C0 117.761 2.23857 120 5 120C7.76143 120 10 117.761 10 115C10 112.581 8.28224 110.563 6 110.1V9.89998ZM5 7.77778C6.53412 7.77778 7.77777 6.53413 7.77777 5C7.77777 3.46587 6.53412 2.22222 5 2.22222C3.46588 2.22222 2.22223 3.46587 2.22223 5C2.22223 6.53413 3.46588 7.77778 5 7.77778ZM5 117.778C6.53412 117.778 7.77777 116.534 7.77777 115C7.77777 113.466 6.53412 112.222 5 112.222C3.46588 112.222 2.22223 113.466 2.22223 115C2.22223 116.534 3.46588 117.778 5 117.778ZM117.778 5C117.778 6.53413 116.534 7.77778 115 7.77778C113.466 7.77778 112.222 6.53413 112.222 5C112.222 3.46587 113.466 2.22222 115 2.22222C116.534 2.22222 117.778 3.46587 117.778 5Z" fill="#202020"/>
<path fill-rule="evenodd" clip-rule="evenodd" d="M61.0002 42C61.0002 41.4477 60.5525 41 60.0002 41C59.448 41 59.0002 41.4477 59.0002 42V61C59.0002 61.5523 59.448 62 60.0002 62C60.5525 62 61.0002 61.5523 61.0002 61V42ZM83.4317 80.0979L60.4386 69.1012C60.426 69.095 60.4133 69.0892 60.4005 69.0836C60.273 69.0278 60.1399 69.0008 60.0084 68.9998C59.877 68.9986 59.7434 69.0235 59.6151 69.0771C59.6021 69.0825 59.5893 69.0882 59.5766 69.0941L35.5836 80.0909C35.0815 80.321 34.8611 80.9146 35.0912 81.4167C35.3213 81.9187 35.9148 82.1392 36.4169 81.9091L59.9912 71.1042L82.5688 81.9021C83.067 82.1404 83.6641 81.9297 83.9024 81.4315C84.1407 80.9332 83.9299 80.3362 83.4317 80.0979Z" fill="#C2C2C2"/>
<path fill-rule="evenodd" clip-rule="evenodd" d="M60.0002 28C60.5525 28 61.0002 28.4477 61.0002 29V40.3444L83.399 50.0829C83.7641 50.2417 84.0002 50.6019 84.0002 51V80.3501L92.4064 84.0862C92.9111 84.3105 93.1384 84.9015 92.9141 85.4061C92.6898 85.9108 92.0988 86.1381 91.5941 85.9138L82.9958 82.0924L60.399 91.9171C60.1495 92.0255 59.8667 92.0277 59.6156 91.9231L36.013 82.0886L27.4064 85.9138C26.9017 86.1381 26.3107 85.9108 26.0864 85.4061C25.8621 84.9015 26.0894 84.3105 26.5941 84.0862L35.0002 80.3501V51C35.0002 50.5963 35.243 50.2322 35.6156 50.0769L59.0002 40.3333V29C59.0002 28.4477 59.448 28 60.0002 28ZM59.9919 42.0868L38.6002 51L59.9919 59.9132L80.4923 51L59.9919 42.0868ZM82.0002 52.5252L61.0002 61.6556V89.4748L82.0002 80.3444V52.5252ZM59.0002 89.5V61.6667L37.0002 52.5V80.3333L59.0002 89.5Z" fill="#202020"/>
</svg>
