<svg width="20" height="21" viewBox="0 0 20 21" fill="none" xmlns="http://www.w3.org/2000/svg">
<path d="M10.0125 0C4.50439 0 0.0250941 4.4793 0.0250941 9.98745C0.0250941 11.7754 0.501882 13.5194 1.399 15.0439L0 20.0188L5.13174 18.7014C6.61857 19.5358 8.29988 19.9749 10.0125 19.9749C15.5207 19.9749 20 15.4956 20 9.98745C20 4.4793 15.5207 0 10.0125 0ZM10.0125 18.2748C8.48808 18.2748 6.99498 17.8545 5.69636 17.064L5.38896 16.8758L2.42785 17.6412L3.23087 14.7742L3.02384 14.4542C2.16437 13.1179 1.71267 11.5747 1.71267 9.98118C1.71895 5.41405 5.43915 1.69385 10.0125 1.69385C14.5859 1.69385 18.3061 5.41405 18.3061 9.98745C18.3061 14.5546 14.5859 18.2748 10.0125 18.2748Z" fill="white"/>
<path d="M14.9061 12.1578L12.7167 11.1478C12.5724 11.085 12.4093 11.1227 12.3089 11.2481L11.4494 12.3648C11.3867 12.4464 11.2738 12.484 11.1734 12.4464C10.5837 12.2394 8.61379 11.4113 7.52847 9.32845C7.47828 9.24062 7.49083 9.1277 7.55984 9.05242L8.38167 8.10511C8.46323 8.01101 8.48832 7.87299 8.43813 7.7538L7.4971 5.54551C7.44692 5.42632 7.33399 5.35104 7.20852 5.34476L6.56235 5.30712C6.3616 5.29457 6.16084 5.36358 6.004 5.49533C5.69033 5.76509 5.18845 6.29834 5.03161 6.98215C4.79949 8.00474 5.15708 9.25944 6.07929 10.5141C7.0015 11.7689 8.71417 13.7764 11.7443 14.6359C12.7229 14.9119 13.4883 14.7237 14.0843 14.3473C14.5548 14.0461 14.8748 13.5631 14.994 13.0173L15.1006 12.5342C15.132 12.3774 15.0504 12.2205 14.9061 12.1578Z" fill="white"/>
</svg>
